<svg width="266" height="46" fill="none" xmlns="http://www.w3.org/2000/svg"><g clip-path="url(#a)"><g clip-path="url(#b)"><path d="M105.465 3.928c-12.602 3.69-24.566 11.097-48.495 25.91-8.464 5.24-12.695 7.859-17.174 9.854a72.917 72.917 0 0 1-19.918 5.65C15.006 46 10.004 46 0 46h266c-10.103 0-15.154 0-20.075-.67a72.912 72.912 0 0 1-19.586-5.534c-4.531-2-8.84-4.654-17.458-9.963-24.134-14.867-36.202-22.3-48.811-25.964a97.564 97.564 0 0 0-54.605.059Z" fill="#416FE1"/></g><g clip-path="url(#c)"><path fill-rule="evenodd" clip-rule="evenodd" d="M111.586 22.586a2 2 0 0 1 2.828 0L133 41.172l18.586-18.586a2 2 0 1 1 2.828 2.828l-20 20a2 2 0 0 1-2.828 0l-20-20a2 2 0 0 1 0-2.828Z" fill="#F8F3F2"/></g></g><defs><clipPath id="a"><path fill="#fff" d="M0 0h266v46H0z"/></clipPath><clipPath id="b"><path fill="#fff" d="M0 0h266v46H0z"/></clipPath><clipPath id="c"><path fill="#fff" transform="translate(109 -2)" d="M0 0h48v48H0z"/></clipPath></defs></svg>