<svg width="220" height="48" fill="none" xmlns="http://www.w3.org/2000/svg"><path d="M108.58 30.592c0 .223.012.568.037 1.038a50.492 50.492 0 0 1 .074 2.724c.012.506-.006.97-.056 1.39a8.447 8.447 0 0 1-.184 1.167c-.086.358-.222.636-.407.834a.822.822 0 0 1-.646.296h-8.424c-.592-.457-.887-2.162-.887-5.114 0-1.075.006-2.366.018-3.873.013-1.52.019-2.6.019-3.243v-1.297c0-.111-.013-.321-.037-.63a7.281 7.281 0 0 1 0-.741c-.493 1.791-1.096 4.355-1.81 7.69-.715 3.335-1.208 5.565-1.479 6.69-.123.345-.69.518-1.7.518H86.56c-.8 0-1.269-.21-1.404-.63l-1.773-7.745c-.16-.791-.34-1.613-.536-2.465-.185-.852-.407-1.822-.665-2.91l-.573-2.408c-.148 3.953-.222 6.967-.222 9.043v3.261c0 1.458.013 2.557.037 3.298-.074.272-.21.408-.406.408H79.28c-.726 0-1.792.006-3.196.018-1.404.013-2.47.02-3.196.02-.665 0-.997-.112-.997-.334v-27.5c0-.11.024-.203.073-.277a.503.503 0 0 1 .26-.186c.122-.049.24-.086.35-.11.111-.025.253-.038.425-.038a6.17 6.17 0 0 1 .425-.018c.11-.013.252-.013.425 0h2.512c3.51 0 5.98.05 7.408.148 1.441.099 2.544.148 3.307.148.296 1.655.764 4.114 1.404 7.375l1.404 7.375L92.84 9.542l.148.037c.099.025.172.037.222.037 1.318 0 3.263-.019 5.837-.056 2.574-.037 4.52-.055 5.838-.055h2.734c.345.037.518.383.518 1.037.271 11.971.418 18.654.443 20.05ZM146.805 30.592c0 .223.012.568.037 1.038a50.492 50.492 0 0 1 .074 2.724c.012.506-.006.97-.056 1.39a8.6 8.6 0 0 1-.184 1.167c-.087.358-.222.636-.407.834a.822.822 0 0 1-.646.296h-8.424c-.592-.457-.887-2.162-.887-5.114 0-1.075.006-2.366.018-3.873.013-1.52.019-2.6.019-3.243v-1.297c0-.111-.013-.321-.037-.63a6.89 6.89 0 0 1 0-.741c-.493 1.791-1.096 4.355-1.811 7.69-.714 3.335-1.207 5.565-1.478 6.69-.123.345-.689.518-1.699.518h-6.54c-.801 0-1.269-.21-1.404-.63l-1.774-7.745a91.95 91.95 0 0 0-.535-2.465c-.185-.852-.407-1.822-.665-2.91l-.573-2.408c-.148 3.953-.222 6.967-.222 9.043v3.261c0 1.458.013 2.557.037 3.298-.074.272-.209.408-.406.408h-1.737c-.726 0-1.792.006-3.196.018a392.32 392.32 0 0 1-3.196.02c-.665 0-.997-.112-.997-.334v-27.5c0-.11.024-.203.073-.277a.505.505 0 0 1 .259-.186c.123-.049.24-.086.351-.11.111-.025.253-.038.425-.038a6.16 6.16 0 0 1 .425-.018c.111-.013.252-.013.425 0h2.512c3.51 0 5.98.05 7.408.148 1.441.099 2.544.148 3.307.148.296 1.655.764 4.114 1.404 7.375l1.404 7.375 2.956-14.972.148.037a.998.998 0 0 0 .222.037c1.317 0 3.263-.019 5.837-.056 2.574-.037 4.52-.055 5.838-.055h2.734c.345.037.518.383.518 1.037.271 11.971.418 18.654.443 20.05ZM184.785 38.387v-8.375c-.025-3.064.074-8.907.296-17.53v-1.52c0-.271.049-.432.147-.481h12.71c.124 0 .37.47.739 1.408.382.939.838 2.15 1.367 3.632.542 1.47.924 2.483 1.146 3.039l2.586 6.782v-7.19c0-.617.013-1.748.037-3.39.037-1.656.049-2.947.037-3.874 0-.345.985-.518 2.956-.518.616 0 1.459.012 2.531.037 1.071.024 1.73.037 1.977.037h1.404c.197 0 .295.037.295.11.074 3.435.111 8.352.111 14.75v12.86c-.086.322-.48.483-1.182.483h-.481c-.64 0-1.582.012-2.826.037a154.48 154.48 0 0 1-2.827.037h-5.431c-.172-.062-.53-.84-1.071-2.335a561.17 561.17 0 0 0-2.587-7.023 3551.817 3551.817 0 0 0-1.921-5.133c0 .729-.006 1.816-.019 3.261a428.748 428.748 0 0 0-.018 3.262c0 .543.012 1.359.037 2.446.024 1.087.037 1.902.037 2.446v2.334c0 .569-.247.853-.739.853h-8.498l-.813-.445Zm28.228-27.87v.075-.074Z" fill="#F8F3F2"/><path d="M179.813 12.443c-5.554-.407-6.694-8.145-12.18-6.246l-.025.009a4.096 4.096 0 0 0-2.55 2.722l-.875 3a2.56 2.56 0 0 1-1.719 1.724c-.909.276-2.092.634-2.908.883a2.032 2.032 0 0 1-1.764-.286l-1.466-1.04-1.791-1.27c-2.391-1.695-6.772-3.42-8.62-.076-1.431 2.59-.915 6.146-.407 8.91.038.206.573 2.284.508 2.322l-.039.022c-6.539 15.48 9.522 22.311 22.452 17.763 6.477-2.394 14.823-4.118 17.494-11.302 2.371-6.284 1.214-14.853-6.11-17.135Z" fill="#EBB4C9"/><path d="M72.49 34.574c1.172-3.767 1.955-7.688 1.539-11.648-.57-3.582-1.81-7.355-4.325-10.033-4.58-3.997-10.554-7.662-16.848-6.617-7.355 1.034-16.144 4.085-18.398 12-2.994 11.292.7 18.564 12.209 21.439 3.32.882 6.91.635 10.157-.425 3.48-1.581 6.867-3.686 9.253-6.73 1.782.65 3.514 1.617 5.215 2.51a.843.843 0 0 0 1.197-.496Z" fill="#8BBF69"/><path fill-rule="evenodd" clip-rule="evenodd" d="M170.752 17.602a.8.8 0 0 1-.673.908 9.02 9.02 0 0 0-2.069.563.797.797 0 0 1-1.038-.442.8.8 0 0 1 .441-1.04c.781-.318 1.601-.54 2.434-.663a.797.797 0 0 1 .905.674Zm-5.696 1.319a.8.8 0 0 1-.573.973l-.188.049c-1.053.272-1.083.28-2.225.67a.8.8 0 0 1-.514-1.514c1.198-.41 1.253-.424 2.375-.713l.154-.04a.797.797 0 0 1 .971.575Zm1.307.816c1.256-.158 1.594.714 1.363 1.402.08.019.154.04.221.063.126.04.255.09.366.134l.033.013c.127.049.243.093.366.133.442.142 1.032.246 1.991-.104a.8.8 0 0 1 .545 1.503c-1.333.486-2.288.36-3.022.124a7.994 7.994 0 0 1-.454-.164l-.025-.01c-.123-.048-.211-.082-.293-.108a1.228 1.228 0 0 0-.087-.026l-.009.015-.04.064c-.1.164-.266.436-.518.698-.623.644-1.644 1.131-3.554 1.235a.799.799 0 0 1-.086-1.597c1.678-.091 2.251-.498 2.494-.75.123-.128.196-.245.297-.41l.056-.09.008-.012.076-.118a1.034 1.034 0 0 1-.32-.254c-.161-.203-.199-.48-.149-.73l.003-.01c.086-.436.184-.932.738-1.002Zm.922 2.947h.004-.004ZM48.397 19.528c-.531-.287-1.363-.326-2.349.508-.575.486-1.373 1.453-2.173 2.492-.327.425-.656.866-.96 1.272-.402.538-.76 1.016-1.005 1.316a.849.849 0 0 1-1.165.131.784.784 0 0 1-.136-1.127c.231-.283.547-.705.922-1.207.303-.406.645-.864 1.013-1.342.783-1.018 1.682-2.126 2.412-2.743 1.408-1.191 2.993-1.38 4.25-.701.94.508 1.575 1.44 1.774 2.524 1.215-.423 2.477-.587 3.666-.43.906.12 1.511.595 1.816 1.268.048.103.087.21.118.317.175-.216.371-.42.593-.596a2.69 2.69 0 0 1 2.384-.521c.6.145 1.052.444 1.353.849.497-.499 1.181-.92 2.07-.872.994.054 1.882.347 2.353 1.15.426.726.362 1.646.177 2.544a.829.829 0 0 1-.977.63.804.804 0 0 1-.65-.945c.177-.856.113-1.257.007-1.437-.06-.102-.234-.299-1.003-.34-.375-.02-.8.279-1.221.948a5.717 5.717 0 0 0-.584 1.262c-.002.004.474-1.131-.004.01-.478 1.14-2.077.904-1.556-.56a4.985 4.985 0 0 1 .056-.161 2.572 2.572 0 0 0 .121-.758c-.001-.23-.046-.396-.115-.505-.054-.085-.157-.193-.43-.259a.994.994 0 0 0-.929.205c-.304.241-.582.644-.837 1.148-.202.402-.36.805-.505 1.174l-.104.266c-.079.196-.17.42-.272.59-.046.078-.137.221-.285.34a.932.932 0 0 1-.954.132.907.907 0 0 1-.52-.611 1.283 1.283 0 0 1-.033-.384c.01-.187.05-.405.086-.595l.049-.243c.07-.35.144-.717.18-1.092.045-.473.012-.823-.087-1.042-.066-.146-.171-.276-.522-.322-1.067-.142-2.265.066-3.412.558l-.006.136a78.76 78.76 0 0 1-.122 2.437c-.087 1.217-.233 2.526-.545 3.364-.352.945-.999 1.6-1.789 1.9a2.733 2.733 0 0 1-2.332-.179c-.706-.405-1.21-1.122-1.334-2.036-.124-.904.125-1.95.8-3.075.89-1.482 2.214-2.71 3.707-3.546-.005-.879-.443-1.546-.991-1.842Zm.911 3.816a8.237 8.237 0 0 0-2.192 2.377c-.546.91-.654 1.6-.59 2.06.061.449.288.724.537.867.258.149.577.179.877.065.29-.11.624-.382.835-.95.222-.597.362-1.688.45-2.93.036-.505.062-1.01.083-1.49Z" fill="#000"/><path d="M35.696 24.916c-.02 1.926-.261 4.826-.91 6.382-.651 1.543-1.557 2.844-2.718 3.902-1.162 1.045-2.522 1.887-4.08 2.525-1.546.637-3.266 1.055-5.16 1.254-1.763.185-3.39.164-4.883-.064-1.491-.215-2.769-.58-3.832-1.097-1.064-.517-1.634-1.22-2.493-2.028-.86-.82-1.566-1.675-2.118-2.566a17 17 0 0 1-1.435-2.985 24.908 24.908 0 0 1-.894-3.08 33.086 33.086 0 0 1-.456-3.03l-.176-1.674c-.065-1.865.201-3.573.799-5.124.596-1.563 1.385-2.851 2.366-3.865.98-1.026 1.742-1.87 3.067-2.611 1.324-.755 2.628-1.315 3.914-1.681a21.687 21.687 0 0 1 3.872-.772c2.088-.22 3.955-.166 5.602.161 1.659.313 3.04.86 4.145 1.642a9.931 9.931 0 0 1 2.695 2.814c.691 1.081 1.189 2.324 1.494 3.728 0 0 .352 3.248.405 4.115.053.867-.975.745-3.828 1.045-.674.071-2.004.17-3.212.272-.984.082-1.572.192-2.55.295-.337.036-1.014-.179-1.221-.692-.207-.513-.55-2.485-.656-2.872-.175-.73-.345-1.599-.967-2.091-.289-.252-.666-.353-1.133-.304-.536.056-1.043.25-1.471 1.083-.174.339-.18.394-.354.983-.174.588-.113.865-.122 1.405.003.525.01.973.023 1.344.063.923.159 1.844.213 2.767.071.683.385 2.57.536 3.233.424 1.858.782 3.764 2.484 3.585 1.67-.175 1.683-4.125 1.809-5.512a.092.092 0 0 1 .084-.083l10.38-1.091c.432-.007.692.222.78.687Z" fill="#F8F3F2"/></svg>