<svg width="122" height="142" fill="none" xmlns="http://www.w3.org/2000/svg"><path d="M102.518 108.786c.746-7.041 1.443-14.088 1.916-21.154.509-7.636 2.373-15.491 2.373-23.119.881-7.735 1.105-15.314 2.13-23.052 1.246-9.384 1.781-18.824 3.122-28.206.279-1.948-1.209-3.702-3.177-3.763-3.933-.12-7.788-.24-11.767.113-5.744.513-11.503 1.042-17.274.845-9.713-.332-19.45-.805-29.157-.08-8.393.627-16.857.258-25.293.799a3.736 3.736 0 0 0-3.48 3.312c-.234 2.116-.286 4.26-.618 6.362-.473 3.016-.823 6.054-.994 9.105-.215 3.79-1.182 7.253-1.652 11.037-.43 3.484-.123 6.97-.543 10.51-.888 7.516-.694 15.172-1.72 22.655-1.025 7.483-1.937 14.978-2.581 22.502-.424 4.949-1.04 9.876-1.784 14.788-.482 3.176-1.74 6.479-1.185 9.723.734 4.263 3.435 4.153 7.003 4.217l5.27.096c6.742.122 13.486.245 20.228.359 10.615.181 20.408.061 31.02-.313 3.893-.139 7.684.832 11.518.602 3.184-.191 7.328-.099 11.049-.105a4.415 4.415 0 0 0 4.39-4.045c.334-3.902.847-9.775 1.206-13.188Z" fill="#76BE57"/><path d="M104.31 136.95h-.018l-2.284-.028c-.019 0-.037 0-.056-.003l-2.284-.108a1.534 1.534 0 0 1-1.46-1.606 1.535 1.535 0 0 1 1.605-1.462l2.256.104 2.21.025 1.732-.083 1.12-.476.685-1.073.516-1.775.184-1.997.024-2.15c0-.043.003-.089.006-.132l.215-2.197.175-2.172c0-.015.003-.03.006-.046l.252-2.261.138-2.245.151-4.605c.003-.052.006-.104.012-.157l.307-2.227.098-2.239.059-2.286.092-2.331c.003-.059.009-.114.015-.172l.335-2.191.036-2.212c0-.043.004-.085.01-.129l.221-2.18.19-2.163.006-.065.28-2.126.138-2.104.055-2.162c0-.059.006-.12.015-.179l.298-2.098.089-2.116a.95.95 0 0 1 .006-.092l.224-2.181.206-2.148.292-4.359c0-.015.003-.027.003-.043l.208-2.18c0-.013.004-.029.004-.04l.267-2.179.282-2.086-.009-2.095c0-.074.006-.147.015-.22l.295-2.118.135-2.131c.003-.056.009-.111.018-.166l.369-2.126.245-2.058.034-2.12c0-.074.009-.15.019-.224l.331-2.034-.034-2.067c0-.05 0-.099.006-.145l.172-2.187c.003-.034.006-.067.013-.101l.304-2.101.101-2.12c.003-.08.015-.16.031-.24l.414-2-.015-2.04c0-.045 0-.094.006-.14l.184-2.185c.006-.058.012-.12.024-.178l.412-2.024.046-2.058c0-.056.006-.111.012-.166l.574-4.27.046-2.11c0-.038.003-.074.006-.108l.203-2.184.006-.056.28-2.175.257-2.162.221-2.077-.006-2.12c0-.067.003-.138.013-.205l.288-2.175c.003-.019.006-.034.006-.05l.347-2.091.138-2.114c0-.012.003-.024.003-.034l.181-2.046-.138-1.59-.709-1.266-1.04-.851-3.724-.375-2.023-.046-2.085.193c-.076.006-.153.01-.227.003l-2.143-.12-2.102-.042-2.088.073-2.127.19c-.056.007-.114.007-.169.007l-2.143-.043-2.143.037c-.052 0-.107 0-.16-.006l-2.06-.179-2.053.133c-.018 0-.037.003-.052.003l-2.146.061-2.146.13c-.033.002-.07.002-.104.002l-2.174-.018h-.045l-2.079-.083-2.072.178a1.412 1.412 0 0 1-.117.006l-2.105.022-2.103.2a.961.961 0 0 1-.163.005l-2.152-.024-2.152.03h-.04L70.017 3.8l-2.118.117a1.843 1.843 0 0 1-.184 0l-2.042-.132-2.038.193c-.05.006-.108.003-.148.006l-2.109.003-2.13.083c-.083.003-.169 0-.252-.012l-1.97-.249-1.975.246c-.089.01-.175.015-.264.01l-2.13-.105-2.134-.028c-.046 0-.089-.003-.132-.006l-2.063-.206-2.066.058h-.04l-2.16.007c-.037 0-.074 0-.111-.003l-2.023-.142-2.026.23c-.102.013-.2.013-.301.004l-2.048-.172-2.047.132a1.843 1.843 0 0 1-.184 0l-2.073-.114-2.069.132c-.033.003-.064.003-.098.003l-2.164-.003-2.094-.03-2.063.218c-.018.003-.04.003-.058.006l-4.141.267-1.59.488-1.127.956-.602 1.53-.353 2.003-.58 4.383a1.194 1.194 0 0 1-.028.15l-.49 2.053-.157 2.098-.2 2.236a1.784 1.784 0 0 1-.034.218l-.485 2.058-.147 2.099-.117 2.196a1.56 1.56 0 0 1-.018.169l-.35 2.117-.117 2.122-.073 2.209c0 .03-.003.058-.006.09l-.203 2.214-.175 2.2c-.003.046-.01.092-.019.138l-.368 2.147-.212 2.11-.08 2.175c0 .034-.003.065-.006.099l-.224 2.211-.242 2.157-.037 2.156c0 .047-.003.096-.01.142l-.242 2.212c0 .012-.003.024-.003.033l-.288 2.17-.553 6.604c0 .015-.003.027-.003.043l-.243 2.208c0 .013-.003.025-.003.037l-.288 2.17-.188 2.18-.175 2.209c-.003.046-.009.089-.015.135l-.365 2.172-.58 4.298-.062 2.15c0 .04-.003.077-.006.117l-.23 2.211a1.614 1.614 0 0 1-.028.17l-.439 2.008.034 2.077c0 .098-.006.194-.021.289l-.381 2.19-.642 4.304-.037 2.15c-.003.09-.012.181-.027.267l-.42 2.163-.609 4.319-.116 2.175c-.003.055-.01.108-.019.163l-.356 2.209-.325 2.193-.016.092-.435 2.068-.086 2.138a1.482 1.482 0 0 1-.034.261l-.46 2.135-.237 2.166c-.003.03-.01.064-.012.095l-.378 2.187-.264 2.206-.292 2.254a1.046 1.046 0 0 1-.033.172l-.467 1.887-.092 1.916-.012 1.859.313 1.398.875.872 1.783.547 2.254-.018 2.492-.004c.028 0 .053 0 .08.004l2.161.11 2.168-.031 2.191-.067h.056l2.213.009c.043 0 .086.003.129.006l2.17.194 2.146.067 2.189-.006h.043l2.127.055 2.125-.19c.061-.006.122-.009.187-.006l2.186.07 2.185-.027 2.186.003 2.164-.154c.083-.006.17-.006.252.003l2.115.2 2.072-.092 2.177-.212c.07-.006.144-.009.215-.006l2.14.095 2.096-.132c.052-.003.104-.003.157-.003l4.24.153 2.065-.242c.11-.013.224-.016.338-.003l2.18.224a1.532 1.532 0 0 1 1.369 1.683 1.537 1.537 0 0 1-1.683 1.37l-2.014-.205-2.01.236a1.478 1.478 0 0 1-.23.009l-4.295-.153-2.1.132c-.055.003-.11.003-.166 0l-2.112-.095-2.109.205c-.027.004-.052.004-.08.007l-2.22.098c-.07.003-.14 0-.21-.006l-2.098-.197-2.09.148c-.037.003-.07.006-.11.003l-2.22-.003-2.198.027h-.068l-2.127-.067-2.121.19c-.059.006-.117.006-.178.006l-2.192-.055-2.195.006h-.052l-2.214-.071c-.03 0-.058-.003-.089-.006l-2.149-.19-2.121-.009-2.189.067-2.24.034c-.031 0-.068 0-.102-.003l-2.173-.111-2.444.003-2.477.022a1.499 1.499 0 0 1-.46-.068l-2.374-.725a1.488 1.488 0 0 1-.632-.381l-1.462-1.456a1.497 1.497 0 0 1-.414-.752l-.448-2.006a1.624 1.624 0 0 1-.037-.344l.012-2.065c0-.021 0-.043.003-.064l.099-2.098c.006-.102.018-.2.043-.298l.482-1.948.279-2.153.267-2.23c.003-.025.006-.053.012-.077l.375-2.181.24-2.2c.005-.052.015-.104.024-.157l.451-2.082.086-2.135c.003-.086.015-.172.03-.255l.455-2.148.322-2.165.347-2.148.114-2.159c.003-.043.006-.086.012-.129l.626-4.439c.003-.025.01-.05.013-.074l.402-2.067.037-2.114c0-.067.006-.132.015-.2l.66-4.43c.003-.011.003-.024.006-.036l.36-2.064-.034-2.108c-.004-.12.009-.236.033-.353l.458-2.101.215-2.068.061-2.171c0-.053.006-.105.012-.157l.596-4.417.006-.047.36-2.128.168-2.15.19-2.228.006-.07.292-2.188.236-2.168.553-6.63.01-.074.288-2.187.23-2.122.037-2.157c0-.049.003-.098.01-.144l.248-2.212.218-2.147.08-2.175c0-.034.003-.065.006-.099l.22-2.214c.004-.037.01-.071.016-.105l.365-2.132.172-2.147.2-2.187.074-2.181v-.034l.122-2.221c.003-.055.01-.11.019-.166l.35-2.114.113-2.138.157-2.248c.006-.083.018-.166.037-.246l.488-2.07.187-2.108.166-2.2c.006-.082.018-.162.037-.242l.5-2.098.571-4.325a.544.544 0 0 1 .012-.071l.387-2.19c.018-.102.046-.2.083-.295l.798-2.034c.092-.236.243-.445.436-.611l1.664-1.41c.16-.135.344-.237.543-.298l2.066-.633c.117-.034.233-.058.353-.065l4.276-.276 2.125-.224c.061-.006.123-.01.184-.01l2.164.031 2.094.003 2.112-.132a1.78 1.78 0 0 1 .181 0l2.072.114 2.07-.135c.076-.006.153-.003.226.003l2.011.169 2.014-.228a1.69 1.69 0 0 1 .28-.006L44.1.716 46.19.71 48.33.648c.065-.003.13 0 .197.006l2.094.21 2.093.024c.019 0 .037 0 .059.003l2.029.101L56.835.74c.126-.015.255-.015.38 0l2.036.258 2.035-.08c.022 0 .04-.003.062 0l2.087.004 2.085-.2c.08-.006.162-.01.242-.003l2.072.132 2.078-.117c.034-.003.068-.003.102-.003l2.152.025 2.152-.031h.04l2.09.025 2.085-.2c.043-.003.086-.006.132-.006L80.78.522l2.109-.181c.064-.006.129-.006.193-.003l2.149.086 2.097.018 2.115-.126c.015 0 .03-.003.046-.003l2.143-.061 2.142-.135a1.44 1.44 0 0 1 .23.003L96.102.3l2.09-.037h.06l2.087.04 2.084-.187.083-.006 2.17-.077h.086l2.171.043c.018 0 .037 0 .055.003l2.057.117 2.057-.19c.058-.007.116-.007.175-.007l2.17.05c.04 0 .08.002.123.005l4.233.424c.301.03.586.148.823.338l1.624 1.33c.15.123.273.27.368.44l1.01 1.809c.107.19.172.4.19.617l.178 2.056c.007.089.007.178 0 .267l-.19 2.162-.141 2.172a1.049 1.049 0 0 1-.019.15l-.356 2.142-.27 2.046.006 2.101c0 .055-.003.11-.009.166l-.23 2.181-.261 2.196-.279 2.163-.194 2.101-.046 2.145c0 .058-.006.116-.012.175l-.571 4.257-.046 2.114a1.555 1.555 0 0 1-.031.273l-.424 2.074-.171 2.027.015 2.135c0 .108-.009.218-.031.323l-.423 2.043-.099 2.07c-.003.05-.006.098-.015.148l-.31 2.122-.163 2.064.034 2.133c0 .089-.006.18-.018.27l-.335 2.058-.031 2.086c0 .052-.003.104-.009.16l-.258 2.177a.79.79 0 0 1-.012.083l-.362 2.086-.135 2.105a1.465 1.465 0 0 1-.013.113l-.288 2.065.009 2.092c0 .07-.003.14-.012.212L116 70.7l-.264 2.138-.206 2.14-.288 4.35c0 .016-.003.031-.003.047l-.209 2.18-.221 2.148-.092 2.147c-.003.05-.006.102-.016.15l-.297 2.084-.052 2.104a.395.395 0 0 1-.004.061l-.144 2.188-.009.098-.282 2.14-.191 2.151-.218 2.135-.037 2.252c0 .071-.006.138-.018.206l-.338 2.209-.089 2.224-.058 2.291-.101 2.338a2.049 2.049 0 0 1-.013.141l-.307 2.218-.147 4.541c0 .015 0 .03-.003.046l-.141 2.31a.648.648 0 0 1-.006.076l-.255 2.277-.175 2.175-.212 2.156-.025 2.148c0 .039-.003.082-.006.122l-.205 2.206c-.01.098-.028.194-.056.286l-.617 2.129c-.04.141-.101.276-.181.399l-1.059 1.659a1.507 1.507 0 0 1-.697.586l-1.814.768a1.528 1.528 0 0 1-.525.12l-2.048.099c-.015.006-.039.006-.061.006Z" fill="#F8F3F2"/><path d="M33.896 130.622a1.536 1.536 0 0 1-1.529-1.683l.202-2.08.234-2.027.024-2.016c0-.024 0-.049.003-.073l.13-2.086c.002-.052.008-.105.018-.154l.331-2.037.227-1.926-.07-1.984c-.003-.074 0-.144.006-.218l.221-2.08a1.53 1.53 0 0 1 1.688-1.364 1.531 1.531 0 0 1 1.363 1.69l-.208 1.972.07 1.991c.003.076 0 .156-.009.233l-.242 2.077a3.694 3.694 0 0 1-.01.067l-.325 1.994-.12 1.972-.027 2.055c0 .052-.003.105-.01.157l-.24 2.076-.199 2.056a1.54 1.54 0 0 1-1.528 1.388ZM53.242 78.648a182.209 182.209 0 0 1 5.026-1.707c.764-.246 1.402.623.939 1.28a434.844 434.844 0 0 0-5.182 7.514" fill="#000"/><path d="M39.319 109.405c7.493-4.086 11.994-7.996 15.051-16.217 3.31-8.896-2.747-21.255-13.114-20.972-3.033.083-5.814 1.622-8.396 3.22-6.726 4.159-9.139 11.694-10.533 19.058-1.338 7.071-3.714 13.876-5.839 20.735-.294.946-.923 2.319-.199 3.223.78.967 2.391-.037 3.282-.344a127.967 127.967 0 0 0 19.748-8.703ZM65.273 85.06l.75-1.966.902-1.911.482-2.065.774-1.96.911-1.904.85-1.877 2.37-1.044 1.873 1.22.19 2.629-.954 2.485-.752 1.797-.617 1.846-.986 1.693-.743 1.794" fill="#F9F2F2"/><path d="M39.857 109.062c-.602 0-1.17-.356-1.418-.943a1.538 1.538 0 0 1 .822-2.009l2.094-.875c.03-.013.058-.025.09-.034l2.047-.71 1.918-.995 2.048-1.026.098-.046 1.98-.824 1.814-1.145c.05-.031.102-.062.157-.086l1.928-.925 1.737-1.25c.062-.046.13-.086.197-.12l1.854-.952 1.556-1.389c.05-.043.102-.086.157-.123l1.79-1.225 1.486-1.343 1.48-1.438 1.353-1.49 1.225-1.658c.03-.04.061-.08.095-.117l1.342-1.49.445-.71-.98.065-2.075.384c-.046.01-.092.015-.135.018l-2.149.2-2.115.31-2.149.369c-.055.01-.107.015-.163.018l-2.127.136-2.103.325c-.04.006-.08.01-.12.013l-2.09.156-2.054.44a1.53 1.53 0 0 1-1.82-1.183 1.532 1.532 0 0 1 1.182-1.822l2.155-.46c.067-.016.135-.025.206-.031l2.133-.16 2.112-.326c.046-.006.092-.012.138-.015l2.115-.132 2.088-.36c.012-.003.024-.003.037-.006l2.173-.32.08-.008 2.121-.197 2.097-.387c.058-.013.12-.019.178-.022l2.167-.141 2.072-.218a1.537 1.537 0 0 1 1.4 2.436l-1.175 1.603-1.103 1.77a1.37 1.37 0 0 1-.162.215l-1.382 1.536-1.225 1.662c-.03.043-.064.083-.1.123l-1.44 1.582a.718.718 0 0 1-.068.067l-1.535 1.49-.04.037-1.584 1.432c-.052.046-.105.089-.163.129l-1.793 1.225-1.627 1.453c-.098.086-.205.16-.322.221l-1.928.99-1.753 1.262a1.64 1.64 0 0 1-.233.139l-1.968.943-1.848 1.17c-.073.046-.15.086-.23.12l-2.05.851-1.98.992-2.002 1.038a1.577 1.577 0 0 1-.203.089l-2.106.731-2.047.858a1.796 1.796 0 0 1-.602.113ZM54.161 84.352c-.51 0-1.01-.255-1.301-.719l-1.145-1.824-2.385-3.6a1.276 1.276 0 0 1-.074-.124l-.989-1.836-1.194-1.712a1.434 1.434 0 0 1-.123-.208L46 72.369a1.535 1.535 0 0 1 2.76-1.343l.899 1.853 1.176 1.683c.034.05.064.098.092.15l.998 1.85 2.363 3.57.019.027L55.46 82a1.537 1.537 0 0 1-1.299 2.353Z" fill="#000"/><path d="M41.213 86.947a1.54 1.54 0 0 1-1.37-2.23l1.014-2.006c.049-.098.107-.19.178-.273l1.412-1.742c.126-.154.28-.283.454-.378l1.977-1.084 3.994-2.138c.75-.4 1.68-.114 2.075.636.4.75.114 1.68-.635 2.076l-3.97 2.126-1.7.934-1.117 1.38-.94 1.858c-.27.534-.81.841-1.372.841ZM43.852 130.24a1.534 1.534 0 0 1-1.498-1.21l-.476-2.197-.577-2.172-.553-2.245c-.012-.043-.018-.089-.027-.132l-.332-2.157-.626-2.098a2.123 2.123 0 0 1-.046-.2l-.356-2.258c-.003-.018-.006-.036-.006-.055l-.268-2.206-.45-2.174a1.3 1.3 0 0 1-.029-.215l-.144-2.286a1.536 1.536 0 0 1 3.064-.197l.138 2.178.445 2.132c.01.043.016.086.022.129l.27 2.243.334 2.129.627 2.101c.021.067.037.135.046.206l.337 2.193.528 2.154.58 2.181.02.07.481 2.234a1.534 1.534 0 0 1-1.176 1.824c-.11.016-.22.028-.328.028Z" fill="#000"/><path d="M64.148 70.292a1.8 1.8 0 0 1-.181-.01l-2.195-.26-2.186-.166-.04-.003-2.222-.228a1.507 1.507 0 0 1-.326-.07l-2.121-.7-.052-.02-2.054-.758-2.103-.691a1.461 1.461 0 0 1-.448-.237l-1.774-1.348-1.756-1.3a1.836 1.836 0 0 1-.218-.193l-1.49-1.62c-.036-.04-.07-.08-.1-.122L43.568 60.8a1.516 1.516 0 0 1-.17-.29l-.899-2.008a1.292 1.292 0 0 1-.067-.181l-.642-2.102-.018-.061-.559-2.15a1.55 1.55 0 0 1-.049-.394l.01-2.22v-.04l.067-2.219c.003-.086.012-.172.03-.258l.888-4.356a1.14 1.14 0 0 1 .055-.2l.734-2.094.024-.065.83-2.055.806-2.055c.034-.086.077-.17.123-.249l1.124-1.812.9-1.939c.03-.064.064-.129.104-.19l1.212-1.865a1.33 1.33 0 0 1 .123-.163l1.4-1.625 1.215-1.763c.053-.077.111-.148.175-.212l1.566-1.576 1.682-1.64a1.33 1.33 0 0 1 .203-.166l1.922-1.321c.086-.058.178-.108.273-.148l2.146-.903 2.096-.924a1.3 1.3 0 0 1 .21-.074l2.234-.617c.046-.013.089-.022.135-.031l2.281-.415.123-.018 2.305-.228c.059-.006.12-.009.178-.006l2.318.043c.095.003.187.012.282.03l2.208.456c.033.006.064.015.098.024l2.155.593c.046.012.089.028.135.043l2.109.796c.123.046.236.107.344.18l1.854 1.306c.11.077.212.17.298.274l1.427 1.717c.006.01.016.018.022.028l1.378 1.741c.061.077.114.16.16.25l1.019 1.971c.015.028.028.056.04.083l.896 2.028c.019.04.034.08.05.123l.727 2.11c.027.08.049.16.061.243l.378 2.202c.012.065.018.13.021.197l.172 4.47c.003.089 0 .18-.015.27l-.31 2.212c-.003.012-.003.027-.006.04l-.366 2.193a.99.99 0 0 1-.027.13l-.54 2.1-.39 2.15c-.016.09-.04.179-.074.265l-.783 2.095c-.012.034-.028.067-.04.101L82.07 56.7c-.04.086-.085.165-.14.242l-1.296 1.828-1.308 1.816-.018.024-1.336 1.776a1.536 1.536 0 0 1-2.453-1.846l1.327-1.764 1.292-1.79 1.207-1.703 1.78-3.88.715-1.913.378-2.07c.006-.038.015-.071.025-.108l.537-2.09.353-2.11.288-2.058-.162-4.218-.338-1.981-.666-1.93L81.4 31l-.93-1.8-1.274-1.613-1.283-1.548-1.526-1.076-1.86-.7-2.038-.562-2.02-.415-2.088-.037-2.155.212-2.149.39-2.06.569-2.016.887-2.023.854-1.686 1.159-1.572 1.533-1.452 1.462-1.184 1.717c-.031.046-.065.089-.102.129l-1.384 1.61-1.096 1.686-.894 1.923c-.024.056-.055.11-.085.163l-1.1 1.773-.76 1.938-.82 2.036-.688 1.963-.838 4.117-.062 2.07-.009 2.003.5 1.926.602 1.979.792 1.766 1.164 1.567 1.335 1.453 1.652 1.222 1.584 1.205 1.885.62c.018.006.036.012.052.019l2.057.761 1.937.64 2.035.208 2.198.17c.021.002.043.002.064.005l2.091.25 2.094-.127a1.535 1.535 0 0 1 .184 3.066l-2.232.135c-.03-.015-.061-.015-.092-.015Z" fill="#F9F2F2"/><path d="M96.065 133.113c.67 5.004-1.148 8.78-6.582 8.85-7.174.096-14.351.007-21.52-.267-6.176-.236-6.268-7.87-2.136-11.169 1.112-.888 2.92-.885 4.338-.94 6.02-.24 12.04-.483 18.063-.722 2.459-.099 2.453.715 4.912.872.414.028.835.055 1.218.215 1.16.479 1.541 1.914 1.707 3.161Z" fill="#F6B1CA"/></svg>