<svg width="170" height="194" fill="none" xmlns="http://www.w3.org/2000/svg"><path d="M153.131 70.829a2395.596 2395.596 0 0 0-139.075.72 2.379 2.379 0 0 0-2.294 2.248c-.36 6.523-.2 12.886 1.051 19.288a2.366 2.366 0 0 0 2.311 1.909c45.404.2 91.535 1.235 137.065.515 3.248-.05 5.852-2.709 5.852-5.958V75.865a5.035 5.035 0 0 0-4.91-5.036Z" fill="#416FE0"/><path d="M134.863 127.046c0-.284.004-.573.004-.858a4.44 4.44 0 0 0-4.409-4.459c-16.608-.121-33.275-.657-49.87-.942-21.042-.36-41-1.385-63.13-.988a2.79 2.79 0 0 0-2.738 2.722c-.113 4.978-.51 9.8-.88 15.904a2.79 2.79 0 0 0 2.848 2.956c34.15-.716 89.228.143 113.666.465a4.432 4.432 0 0 0 4.488-4.434c.004-3.449.008-6.908.021-10.366Z" fill="#F27426"/><path d="M168.766 67.467c-.113.678-.284 1.315-.536 1.876-1.009 2.256-3.701 1.553-5.832 1.536-6.819-.046-13.639-.1-20.459-.125-13.632-.055-27.268-.005-40.895.385-3.002.084-6 .188-8.997.31-4.844.196-51.692-.587-51.708-.783a261.083 261.083 0 0 1-.963-17.446c-.034-1.507 1.197-2.734 2.704-2.721 41.075.36 82.128-.842 123.17-.348.983.013 3.081 1.051 3.512 1.976.302.654.293 1.399.281 2.115l-.113 6.146c-.034 2.026.221 4.798-.164 7.08ZM155.633 164.713a3.349 3.349 0 0 1-3.278 3.345c-28.686.632-57.247.482-85.9 1.055-6.665.134-29.633-.029-39.55-.364-1.81-.063-3.25-1.549-3.233-3.358.054-6.891.59-14.247.8-21.142.054-1.825 1.553-3.282 3.378-3.253 16.537.247 33.032-.812 49.51-.004 24.991 1.227 49.758.473 74.756-.356a3.355 3.355 0 0 1 3.459 3.19c.339 6.573.067 14.302.058 20.887Z" fill="#76BE57"/><path d="M163.629 98.159a3.254 3.254 0 0 0-3.219-2.94c-38.287-.288-73.5-1.925-111.941-1.272-11.174.189-22.352.08-33.522-.335-2.14-.08-6.682-.25-10.249-.322a4.606 4.606 0 0 0-4.697 4.68c.096 5.539.213 11.082.347 16.621a5.669 5.669 0 0 0 5.648 5.531c32.89.13 128.834 1.825 155.192 1.582a3.271 3.271 0 0 0 3.245-3.282c-.017-6.343-.197-14.004-.804-20.263Z" fill="#392B25"/><path d="M92.52 22.327c-.632-4.015-2.814-7.284-6.351-9.332-3.078-1.779-7.151-2.377-10.668-2.055-3.043.276-4.752 2.097-7.494 3.127-.146-4.408-.289-8.812-.28-13.254.004-1.85-3.978 0-4.815.276.025 4.43.318 8.884.599 13.326-3.157-.528-6.376-2.194-9.638-2.173-3.148.02-7.025.553-9.218 2.864-7.088 7.468-7.277 20.275-.666 28.347 2.508 3.06 5.568 5.966 9.181 7.674 4.304 2.035 6.84.624 11.2.343 3.34-.213 6.693.034 10.026.226 1.214.072 2.466.134 3.609-.268 2.466-.866 4.639-2.281 6.51-4.077 6.447-6.21 9.282-16.918 8.005-25.024Z" fill="#76BE57"/><path d="M145.916 187.785c-.226-5.911-.837-11.106-1.306-16.449a4.417 4.417 0 0 0-4.718-4.019c-8.821.612-17.734.716-26.589.942-5.79.147-11.936-.523-17.663.222-8.01 1.038-16.04-.975-23.901-.109-7.44.821-14.352.582-21.884-.071-11.61-1.005-23.436-.703-35.15-.205a4.404 4.404 0 0 0-4.22 4.446c.046 5.104.163 10.266.213 15.373a4.405 4.405 0 0 0 4.33 4.363c14.007.259 28.011.749 42.016 1.118 8.867.23 17.738.029 26.605.054 8.49.025 17.048-.159 25.459-.737 7.783-.532 24.349-.444 32.366-.364 2.504.021 4.539-2.056 4.442-4.564Z" fill="#416FE0"/><path d="M118.171 85.03c-5.271-10.161-14.967-16.58-26.58-14.482-14.298 2.584-20.213 15.315-24.111 27.879-4.295 13.845-15.24 25.664-26.953 34.631-2.696 2.064-1.566 6.36 1.8 6.812 21.289 2.838 44.269 2.294 63.05-8.344 14.431-8.172 20.573-31.496 12.794-46.496Z" fill="#F9F2F2"/><path d="M91.012 94.822h-.059l-2.68-.075-2.746-.121a2.143 2.143 0 0 1-.72-.164L82.2 93.365a2.12 2.12 0 0 1-.812-.607l-1.809-2.219c-.05-.062-.1-.13-.146-.2l-1.579-2.492a2.052 2.052 0 0 1-.226-.485l-.896-2.818a1.978 1.978 0 0 1-.092-.494l-.192-2.947-.222-2.889c-.004-.08-.009-.159-.004-.239l.108-2.922.168-2.98c.012-.202.05-.402.121-.59l.992-2.756.917-2.742c.034-.1.076-.197.122-.289l1.507-2.947a2.04 2.04 0 0 1 .41-.553l2.424-2.34c.168-.16.36-.293.57-.39l3.09-1.444c.175-.084.363-.142.56-.171l3.35-.528c.18-.03.36-.033.54-.017l3.374.348c.322.033.632.138.904.314l2.86 1.804c.243.15.448.352.611.586l1.767 2.58c.063.091.117.188.167.292l1.327 2.826c.063.13.109.268.143.406l.72 3.04c.021.092.037.188.046.285l.293 3.056.423 3.081c.025.184.025.368.004.548l-.398 3.124c-.017.13-.046.255-.084.38l-.95 2.944-.816 2.972c-.051.193-.13.373-.235.54l-1.64 2.667a1.827 1.827 0 0 1-.202.272l-2.039 2.357a2.124 2.124 0 0 1-.297.285l-2.14 1.662a2.052 2.052 0 0 1-.753.373l-2.63.69a1.79 1.79 0 0 1-.543.084Zm-4.928-4.362 2.34.105 2.345.067 1.926-.507 1.637-1.273 1.792-2.072 1.394-2.27.749-2.729.025-.088.904-2.8.34-2.655-.394-2.851a.622.622 0 0 1-.008-.088l-.285-2.96-.636-2.688-1.164-2.478-1.428-2.085-2.076-1.315-2.613-.268-2.784.44-2.508 1.172-1.917 1.855-1.277 2.495-.875 2.617a.203.203 0 0 1-.017.046l-.896 2.487-.146 2.637-.1 2.76.213 2.792.18 2.717.737 2.32 1.364 2.16 1.399 1.716 1.78.74Z" fill="#000"/><path d="M113.712 94.923a2.19 2.19 0 0 1-.372-.034l-2.68-.49a2.073 2.073 0 0 1-.502-.159l-2.47-1.138a2.137 2.137 0 0 1-.339-.197l-2.194-1.57a2.02 2.02 0 0 1-.205-.167l-1.989-1.847a2.117 2.117 0 0 1-.607-1.025l-.837-3.354a2.002 2.002 0 0 1-.059-.385l-.192-3.329-.431-2.637a2.83 2.83 0 0 1-.03-.335l-.008-2.788c0-.042 0-.08.004-.122l.155-2.767.113-2.771a2.23 2.23 0 0 1 .08-.499l.782-2.696c.047-.159.109-.31.189-.448l1.398-2.466c.076-.134.163-.255.268-.368l1.884-2.085c.08-.088.168-.172.26-.243l2.206-1.733c.13-.1.268-.189.419-.256l2.579-1.184c.28-.13.573-.193.9-.193l2.83.034c.213.004.423.037.624.104l2.633.854c.151.05.297.117.431.197l2.617 1.574c.23.138.431.318.59.532l1.851 2.45c.041.053.083.112.117.175l1.62 2.671c.13.214.218.444.264.687l1.189 6.124c.037.185.046.377.033.566l-.234 2.993.113 3.002c.008.184-.009.368-.05.548l-.7 3.036c-.008.041-.02.08-.033.121l-.808 2.742a1.957 1.957 0 0 1-.092.252l-1.151 2.616a2.077 2.077 0 0 1-.298.486l-1.804 2.202c-.113.138-.243.26-.39.368l-2.264 1.65a2.032 2.032 0 0 1-.788.352l-4.174.904c-.15.03-.297.046-.448.046Zm-2.043-4.593 2.01.364 3.337-.724 1.691-1.23 1.449-1.772.984-2.231.753-2.554.624-2.705-.109-2.842c-.004-.084 0-.163.004-.243l.222-2.83-1.067-5.485-1.374-2.26-1.54-2.043-2.064-1.244-2.102-.682-2.039-.021-1.926.887-1.867 1.47-1.608 1.783-1.163 2.052-.641 2.219-.105 2.545-.15 2.738.004 2.554.423 2.583c.012.071.021.142.025.218l.188 3.244.641 2.563 1.432 1.33 1.925 1.378 2.043.938Z" fill="#000"/><path d="M98.998 83.996c-.285 0-.578-.059-.854-.184l-2.901-1.302-3.249.113a2.095 2.095 0 0 1-.142-4.187l3.734-.13c.314-.008.636.05.93.18l3.345 1.499a2.095 2.095 0 0 1 1.055 2.767 2.107 2.107 0 0 1-1.918 1.244ZM104.633 84.314a2.095 2.095 0 0 1-.887-3.99l3.14-1.47c.301-.142.632-.209.967-.196l3.55.134a2.096 2.096 0 0 1 2.014 2.173 2.1 2.1 0 0 1-2.173 2.013l-3.044-.117-2.679 1.256a2.106 2.106 0 0 1-.888.197Z" fill="#000"/><path d="m95.75 91.883 2.102 2.232 2.478 1.8 2.236 2.118 2.554-.188.904-2.32-.909-2.532-.64-2.613-.75-2.578-.741-2.58-.021-2.47-2.327 2.755-2.01 2.818M55.252 131.191h-.02l-2.99-.033h-.054l-2.985-.109a2.092 2.092 0 1 1 .155-4.182l2.955.108 2.81.03 2.809-.385a.524.524 0 0 1 .088-.009l2.926-.276 2.86-.398 2.796-.536 2.62-.724 2.358-1.206 2.206-1.553 1.96-1.855 1.662-2.076 1.243-2.353.88-2.445.2-2.462-.481-2.57-.75-2.483-1.431-2.181-1.554-1.905-1.871-1.532-2.248-1.353a2.696 2.696 0 0 1-.18-.121l-2.22-1.67a2.087 2.087 0 0 1-.41-2.931 2.087 2.087 0 0 1 2.931-.41l2.131 1.603 2.286 1.373c.088.05.168.11.247.176l2.152 1.758c.109.088.21.189.297.298l1.758 2.152c.047.058.088.117.13.176l1.658 2.528c.109.168.197.352.256.544l.87 2.881c.021.071.038.146.055.218l.552 2.959c.034.185.046.369.03.557l-.243 3.023a2.152 2.152 0 0 1-.117.54l-1.026 2.847a1.948 1.948 0 0 1-.117.268l-1.407 2.658a2.13 2.13 0 0 1-.218.331l-1.875 2.345a1.921 1.921 0 0 1-.197.213l-2.177 2.056c-.075.071-.15.134-.234.192l-2.45 1.725a2.39 2.39 0 0 1-.25.151l-2.68 1.373c-.126.067-.26.117-.398.155l-2.91.8a1.203 1.203 0 0 1-.163.037l-2.93.561c-.034.009-.072.013-.105.017l-2.956.41-.092.013-2.926.276-2.919.398c-.108 0-.2.008-.297.008ZM97.308 168.31a2.092 2.092 0 0 1-2.093-2.148l.088-3.291c0-.054.004-.113.012-.167l.327-3.048-.15-2.977-.403-3.11c-.004-.051-.012-.097-.012-.147l-.172-2.905-.975-2.567-1.344-2.378-1.863-1.754-2.512-1.109-2.68-.808-2.935-.017a2.095 2.095 0 0 1 .013-4.187h.012l3.237.017c.2 0 .402.029.59.088l3.094.934c.084.025.163.054.243.087l2.956 1.307c.217.096.414.226.59.389l2.353 2.219c.155.142.284.31.385.494l1.578 2.792c.05.092.096.189.134.285l1.147 3.014c.076.201.122.411.134.62l.184 3.153.402 3.123c.009.054.013.109.017.163l.163 3.224c.005.108 0 .217-.008.326l-.335 3.128-.017.594.52-.1c.037-.009.079-.013.117-.021l3.048-.419.117-.013 3.069-.247a2.092 2.092 0 1 1 .334 4.17l-3.01.243-2.93.402-3.023.594a1.623 1.623 0 0 1-.402.047Z" fill="#000"/><path d="M112.157 164.868c-.498 0-.996-.176-1.39-.527l-2.102-1.868a2.086 2.086 0 0 1-.531-.732l-1.051-2.437-1.373-2.189-1.579-2.257-.033-.046-1.545-2.345a2.208 2.208 0 0 1-.138-.238l-1.21-2.495-1.277-2.391-1.545-2.143-1.662-1.847-2.198-1.306-2.349-1.26-2.566-.863a2.092 2.092 0 1 1 1.331-3.968l2.734.916c.113.038.218.084.323.139l2.545 1.364c.025.013.055.03.08.046l2.512 1.491c.18.109.347.243.485.398l1.955 2.168c.051.055.101.117.143.176l1.691 2.349c.054.075.105.155.147.238l1.36 2.55.038.075 1.168 2.412 1.457 2.206 1.591 2.278.058.083 1.487 2.37c.058.092.104.184.15.285l.934 2.156.461.41.686-.523c.046-.038.096-.071.147-.101l2.059-1.314 1.822-1.625a2.089 2.089 0 0 1 2.955.172 2.09 2.09 0 0 1-.171 2.956l-1.947 1.737a1.802 1.802 0 0 1-.268.201l-2.127 1.357-1.984 1.519a2.129 2.129 0 0 1-1.273.423ZM71.596 87.734a2.085 2.085 0 0 1-1.83-1.076 2.09 2.09 0 0 1 .808-2.846 26.453 26.453 0 0 0 5.384-3.97c.838-.799 2.16-.766 2.96.072.8.837.766 2.16-.07 2.96a30.896 30.896 0 0 1-6.235 4.597 2.13 2.13 0 0 1-1.017.263Z" fill="#000"/></svg>