<svg width="187" height="146" fill="none" xmlns="http://www.w3.org/2000/svg"><path d="M125.355 1.797c-8.737 4.789-13.737 14.813-18.559 23.074-2.137 3.66-3.708 7.574-7.272 9.875-2.762-.183-2.296-.274-5.067-.308-6.45-.076-12.886-.052-19.337-.13-3.343-.042-6.484-15.36-7.91-18.068-2.685-5.082-7.171-11.95-13.405-12.843-4.587-.658-8.324.374-11.7 3.55-1.73 1.627-2.652 3.918-3.521 6.128-2.037 5.177-4.078 10.379-5.27 15.816-2.29 10.47-12.4 14.275-19.033 21.974C5.88 60.61.65 72.77.045 85.672c-.447 9.64 2.516 19.889 6.11 28.765 3.51 8.684 10.748 15.125 18.563 19.908 7.684 4.702 14.394 6.273 23.29 8.175 8.035 1.715 16.243 2.027 24.418 2.526 8.054.49 16.123 1.023 24.197.947 7.382-.072 14.923-1.787 22.214-1.033 14.846 1.532 29.375-3.554 42.069-11.297 8.819-5.379 20.528-16.81 23.857-26.911 4.428-13.443.638-31.368-3.929-44.274-3.708-10.47-8.492-10.82-16.244-17.68-3.876-3.429-10.115-5.1-12.555-9.553-2.68-4.894-3.343-11.47-5.062-16.767-3.117-9.63-9.289-23.443-21.618-16.68Z" fill="#F6B1CA"/><path d="M77.486 76.344a2.406 2.406 0 0 1-2.353-1.93 2.405 2.405 0 0 1 1.883-2.83l4.711-.946c.135-.028.27-.043.404-.047l4.813-.14a2.403 2.403 0 0 1 .134 4.803l-4.61.13-4.516.908a1.875 1.875 0 0 1-.466.052ZM100.401 74.97a2.4 2.4 0 0 1-.298-4.784l5.072-.633c.101-.014.211-.024.303-.02l5.105.015a2.402 2.402 0 0 1-.005 4.803h-.004l-4.957-.014-4.923.615c-.091.014-.192.019-.293.019ZM95.979 83.52c-4.683 3.809-9.395-5.85-2.041-6.546 1.796-.173 2.463 1.402 3.064 2.761.34.778.432 1.705.082 2.479-.24.523-.659.941-1.105 1.306Z" fill="#000"/><path d="M83.322 91.426c-.178 0-.35-.02-.524-.058l-2.853-.639a2.398 2.398 0 0 1-1.815-2.867 2.403 2.403 0 0 1 2.867-1.816l2.426.543 2.09-.298 4.72-2.286 2.128-1.513a2.405 2.405 0 0 1 2.767-.014l1.945 1.354 1.998 1 2.253.547 2.3.394 2.238-.067 2.445-.457a2.403 2.403 0 0 1 2.8 1.921 2.397 2.397 0 0 1-1.921 2.8l-2.627.49c-.12.024-.245.039-.37.039l-2.666.082a2.261 2.261 0 0 1-.475-.034l-2.623-.447c-.052-.01-.11-.019-.163-.033l-2.598-.63a2.4 2.4 0 0 1-.51-.187l-2.396-1.2a2.7 2.7 0 0 1-.298-.178l-.701-.486-.913.649c-.11.077-.22.144-.34.202l-5.246 2.545c-.225.11-.466.183-.71.216l-2.897.409c-.11.014-.22.019-.331.019Z" fill="#000"/><path d="m71.568 91.416-5.519 2.594-3.924-4.212 1.595-4.981 3.251-4.246 5.038-3.41 1.95 1.225-.192 6.69-2.2 6.34Z" fill="#416FE0"/></svg>