<svg width="317" height="105" fill="none" xmlns="http://www.w3.org/2000/svg"><path d="m6.206 104.26 43.227.233c3.786.019 6.874-2.67 6.746-5.936-.045-1.19-.03-2.377.155-3.556.523-3.345 1.235-6.667.881-10.027-.73-6.92 1.748-14.012-.004-20.807-1.48-5.74.05-11.474.098-17.23.053-5.98-.218-12.723.366-18.821.098-1.032-.305-2.053-1.187-2.969-3.981-4.154-15.884-16.392-24.065-22.845-.803-.633-2.177-.998-3.643-.975-1.597.026-3.055.49-3.838 1.22-4.128 3.83-8.419 7.613-12.596 11.428-3.126 2.86-7.854 7.922-10.257 10.536C1.091 25.596.59 26.782.62 27.98c.147 5.601.207 12.148.008 17.519-.181 4.825.798 9.458.056 14.26C-.773 69.196.481 78.828.94 88.275c.181 3.76.102 7.526-.007 11.293-.072 2.565 2.305 4.674 5.273 4.693Z" fill="#76BE57"/><path d="M41.773 10.416c-3.243-3.45-6.52-6.769-9.353-9.304-.802-.716-2.18-1.134-3.642-1.111-1.597.026-3.051.554-3.839 1.378a688.284 688.284 0 0 1-7.33 7.557c7.835-1.718 17.12-1.292 24.164 1.48Z" fill="#101010"/><path d="M12.826 32.474c-.041 0-.086 0-.128-.004l-2.76-.188a1.676 1.676 0 0 1-.193-.023l-2.727-.47a1.918 1.918 0 0 1-.21-.05l-2.656-.78a2.034 2.034 0 0 1-.253-.094l-2.508-1.148a1.886 1.886 0 0 1 1.566-3.428l2.385 1.092 2.422.712 2.527.437 2.547.173 2.64-.15 2.592-.196 5.032-1.055 2.154-1.141 2.276-1.447a1.881 1.881 0 0 1 2.018 0l2.091 1.33 2.35.753 2.441.81 2.52.418 2.475.385 5.138-.189 2.407-.305 2.38-.814c.053-.018.106-.034.159-.045l2.376-.584 2.125-1.209a1.883 1.883 0 1 1 1.864 3.274l-2.35 1.34c-.15.087-.313.151-.482.193l-2.55.629-2.483.847c-.12.042-.245.072-.369.087l-2.682.343a2.452 2.452 0 0 1-.173.015l-5.394.2a1.944 1.944 0 0 1-.361-.023l-2.675-.415-2.682-.444a1.731 1.731 0 0 1-.282-.072l-2.562-.847-2.561-.825a1.823 1.823 0 0 1-.433-.203l-1.285-.818-1.337.836a2.282 2.282 0 0 1-.128.076l-2.456 1.3c-.154.082-.32.142-.49.176l-5.427 1.138c-.08.015-.159.026-.241.034l-2.75.207-2.791.158c-.034.004-.072.004-.106.004Z" fill="#000"/><path d="M28.348 102.523a1.883 1.883 0 0 1-1.883-1.883v-2.772l.056-2.803.015-2.69-.131-2.715a1.952 1.952 0 0 1 0-.21l.162-2.577-.362-2.57a1.881 1.881 0 0 1-.004-.481l.305-2.566-.256-2.557a2.313 2.313 0 0 1-.007-.162l-.034-2.769v-.094l.101-2.768c.004-.068.008-.136.02-.2l.384-2.663.135-2.6-.075-2.338v-.053l-.008-2.358-.218-2.309-.305-2.395a2.005 2.005 0 0 1 0-.475l.324-2.554.082-2.565.034-2.535-.184-2.46a1.812 1.812 0 0 1 .004-.32l.23-2.366-.245-2.35c-.004-.049-.008-.098-.008-.147l-.064-2.5-.18-2.498a1.785 1.785 0 0 1 .007-.347l.275-2.448.022-2.445c0-.03 0-.06.004-.09l.147-2.539a1.891 1.891 0 0 1 1.989-1.774c1.04.06 1.83.95 1.77 1.989l-.143 2.493-.023 2.498c0 .064-.003.128-.011.192l-.264 2.373.174 2.37c.003.03.003.06.003.09l.064 2.47.257 2.464c.01.124.015.252 0 .377l-.234 2.391.177 2.381c.004.056.008.11.004.166l-.038 2.651-.087 2.69a2.71 2.71 0 0 1-.015.177l-.305 2.403.28 2.189c.003.018.003.037.007.06l.23 2.422c.003.056.007.113.007.173l.011 2.418.076 2.392v.158l-.144 2.765c-.003.057-.007.113-.015.174l-.384 2.647-.098 2.622.034 2.64.267 2.682c.016.136.012.276-.003.411l-.302 2.528.354 2.516c.02.124.023.252.016.38l-.17 2.663.128 2.66c0 .033.004.067.004.101l-.015 2.765-.057 2.791v2.735a1.888 1.888 0 0 1-1.887 1.879Z" fill="#000"/><path d="M143.12 55.752c-4.291-9.974-10.611-17.022-19.271-20.536a19.084 19.084 0 0 0 5.752-2.799c6.561-4.7 5.179-14.471 1.894-20.74a9.939 9.939 0 0 0-1.939-2.598c-3.711-3.548-9.745-3.605-15.015-2.29-3.149.787-5.318 3.582-7.232 6.204-1.412 1.932-1.665 3.246-1.894 5.63-.441 4.555.342 9.5 3.446 12.86.4.433.821.829 1.255 1.194-.675-.003-1.356 0-2.05.027a46.994 46.994 0 0 0-10.204 1.525c2.528-2.629 4.144-6.15 4.08-9.665-.117-6.803-7.914-14.683-14.871-15.007a8.984 8.984 0 0 0-1.496.053c-7.767.938-13.368 8.057-12.999 15.643.373 7.654 7.225 11.926 14.043 13.123.248.046.497.08.746.106-6.84 3.913-12.363 9.797-14.702 17.643-3.198 10.72-2.154 28.202 6.4 36.383 12.558 12.012 31.761 14.453 46.824 6.535 7.703-4.049 15.255-9.974 18.167-18.49 2.539-7.44 2.154-17.621-.934-24.8Z" fill="#AEAEAE"/><path d="M126.243 80.526h-.076l-2.674-.105a.81.81 0 0 1-.135-.012l-2.667-.301a1.783 1.783 0 0 1-.403-.09l-5.074-1.745a1.558 1.558 0 0 1-.305-.135l-2.358-1.303a1.883 1.883 0 0 1 1.819-3.296l2.211 1.224 4.739 1.627 2.392.271 2.512.102 2.365-.132 3.157-.941 1.202-1.07.259-1.563-.527-1.594-1.337-1.096-2.173-.527-2.302-.136a1.74 1.74 0 0 1-.241-.03l-4.851-.927a1.946 1.946 0 0 1-.498-.169l-2.181-1.107a1.879 1.879 0 0 1-.278-.174l-1.955-1.469a1.893 1.893 0 0 1-.351-.343l-1.416-1.807a1.886 1.886 0 0 1 .32-2.645 1.887 1.887 0 0 1 2.645.32l1.261 1.613 1.628 1.22 1.8.915 4.46.852 2.35.139c.113.008.226.023.336.049l2.753.67c.275.068.531.196.75.373l2.09 1.714c.275.226.482.528.595.867l.844 2.553c.094.29.121.6.072.897l-.445 2.678a1.874 1.874 0 0 1-.606 1.1l-2.012 1.793c-.207.184-.448.32-.715.4l-3.767 1.122c-.14.041-.286.067-.433.075l-2.675.15c-.034-.007-.071-.007-.105-.007ZM105.828 58.197l-1.499-1.703-2.132-.248-1.845 1.883.482 2.618 2.218.99 2.268-1.04.508-2.5ZM117.523 54.916l-2.238-.904-2.629 1.815 1.017 3.492 1.921.667 1.752-1.028.595-.332.267-1.578-.241-1.62-.444-.512Z" fill="#000"/><path d="m128.157 78.289.214.617 2.306-.504 2.139-1.108 1.364-1.936.538-2.32-1.374-3.194-3.545-.938-.991-.015-.708.309-.35.455.422 2.867-.121 2.889.106 2.878ZM82.835 31.197a1.87 1.87 0 0 1-1.537-.795l-1.262-1.778a1.89 1.89 0 0 1-.26-.523l-.651-2.072a1.823 1.823 0 0 1-.087-.55l-.022-2.55c0-.192.026-.38.079-.561l.738-2.43c.045-.147.106-.286.185-.414l1.292-2.181a1.885 1.885 0 0 1 2.58-.66 1.885 1.885 0 0 1 .659 2.58l-1.175 1.982-.588 1.936.015 1.982.479 1.518 1.092 1.536a1.883 1.883 0 0 1-.445 2.626 1.834 1.834 0 0 1-1.092.354ZM115.521 26.925a1.886 1.886 0 0 1-1.756-1.197l-1.043-2.667a1.87 1.87 0 0 1-.128-.716l.045-2.821c0-.113.015-.226.034-.335l.542-2.739c.038-.188.106-.373.196-.542l1.371-2.49a1.883 1.883 0 0 1 3.3 1.816l-1.228 2.233-.452 2.287-.038 2.282.908 2.32a1.883 1.883 0 0 1-1.751 2.57Z" fill="#000"/><path d="M172.27 102.068c5.85 2.037 13.786 1.126 20.062 1.405 8.704.388 17.775-.75 26.506-.983 10.773-.287 21.628-.686 32.518-.818 6.072-.075 12.084-1.032 14.638-7.168.708-1.699.93-3.544 1.073-5.368.814-10.271.075-20.731-.124-31.026-.087-4.328-.226-8.663-.347-12.98-.166-5.854.2-10.366-4.87-14.6-3.759-3.141-8.905-4.335-13.73-5.044-7.047-1.032-14.182-.094-21.263-.139-10.532-.064-21.09.712-31.607.599-7.303-.075-14.712-.026-21.986.66-6.494.613-7.725 4.674-7.729 10.531-.008 6.965 1.559 13.726 1.732 20.529.091 3.495-.09 7.01-.369 10.524-.399 5.077-1.009 10.159-1.314 15.195-.358 6.008-.418 16.163 6.81 18.683Z" fill="#F6B1CA"/><path d="M194.747 88.824c-.041 0-.083 0-.124-.004l-2.592-.173-2.569.098h-.15l-2.667-.11c-.038 0-.079-.003-.117-.007l-2.652-.275c-.026-.004-.049-.007-.075-.007l-2.644-.38a2.035 2.035 0 0 1-.426-.114l-2.426-.96-2.501-.803a1.939 1.939 0 0 1-.689-.395l-1.759-1.59-1.929-1.34a1.701 1.701 0 0 1-.252-.212l-1.752-1.744a2.218 2.218 0 0 1-.12-.131l-1.578-1.903a2.221 2.221 0 0 1-.136-.184l-1.337-2.08a1.882 1.882 0 1 1 3.168-2.038l1.277 1.986 1.446 1.744 1.571 1.567 1.891 1.314c.064.046.128.094.188.151l1.544 1.398 2.174.696c.041.012.079.027.12.042l2.275.9 2.388.343 2.558.263 2.531.102 2.596-.102c.064-.003.131 0 .199.004l2.584.174 2.584-.129c.049-.003.102-.003.151 0l2.621.08 2.618-.121c.053-.004.11-.004.162 0l2.592.102 2.588-.185c.037-.004.071-.004.109-.004l2.667-.034 2.666-.109h.049l2.615-.034 2.602-.256c.091-.007.185-.011.275-.007l2.581.124 2.561-.215c.03-.004.06-.004.09-.004l2.671-.09 2.622-.15 2.636-.283c.06-.008.125-.011.185-.011l2.58-.02 2.561-.338.117-.011 2.686-.185c.056-.004.109-.004.166-.004l2.606.053 2.569-.207 2.584-.272 2.478-.46c.057-.01.117-.018.174-.022l2.422-.218 2.226-.599 2.249-.938 2.098-.927 1.661-1.404 1.337-1.519.512-1.943.241-2.41a1.885 1.885 0 0 1 2.061-1.688 1.882 1.882 0 0 1 1.687 2.06l-.256 2.561a1.89 1.89 0 0 1-.053.294l-.663 2.52a1.899 1.899 0 0 1-.406.765l-1.726 1.955c-.06.067-.124.132-.195.192l-1.974 1.669c-.14.116-.29.21-.456.286l-2.365 1.043c-.012.004-.023.011-.038.015l-2.384.995a1.27 1.27 0 0 1-.238.079l-2.501.674c-.105.03-.211.049-.32.056l-2.494.227-2.463.455-.147.023-2.678.279-.045.003-2.686.219c-.064.004-.124.007-.188.007l-2.622-.052-2.546.173-2.618.346a1.591 1.591 0 0 1-.234.016l-2.606.018-2.588.275c-.03.004-.06.008-.09.008l-2.69.154h-.041l-2.648.09-2.641.22a1.773 1.773 0 0 1-.245.003l-2.565-.12-2.546.252c-.053.003-.105.007-.158.007l-2.667.038-2.667.11h-.053l-2.64.033-2.633.188a1.907 1.907 0 0 1-.207.004l-2.614-.102-2.611.121a.898.898 0 0 1-.143 0l-2.618-.08-2.617.129h-.091Z" fill="#000"/><path d="M279.064 75.584c-.075 0-.147-.004-.219-.011l-2.501-.294-2.508.045c-.061.004-.121 0-.181-.004l-2.55-.203-2.558.007h-.007a1.884 1.884 0 0 1-.008-3.767l2.633-.007c.053.004.102 0 .154.008l2.535.2 2.543-.046c.087 0 .169.004.252.011l2.411.283 2.418-.271c.136-.015.272-.015.407 0l2.516.263 2.381-.049 2.478-.41c.038-.008.076-.011.117-.015l2.614-.272.151-.01 2.851-.065 2.867-.026h.068l2.742.075 2.731-.21 2.625-.155 2.268-.739 2.041-1.201 1.341-1.778.584-2.4.166-2.576-.471-2.053-1.383-1.59-2-1.205-2.618-.82-2.783-.502-2.901.068-2.727.18c-.049.005-.094.005-.143.005l-2.768-.03h-.061l-2.715-.117-2.716.03c-.042 0-.083 0-.128-.004l-2.611-.143-2.61.29a1.971 1.971 0 0 1-.422 0l-2.618-.297-2.618.12c-.022 0-.045 0-.071.004l-2.769.026h-.079l-2.708-.087-2.708.08h-.057a1.885 1.885 0 0 1-.056-3.767l2.768-.083h.117l2.727.087 2.693-.027 2.731-.128c.102-.003.2 0 .302.012l2.557.293 2.558-.282c.105-.011.207-.015.312-.008l2.705.151 2.704-.03h.102l2.738.117 2.664.026 2.697-.177c.026 0 .052-.004.079-.004l3.13-.075c.128-.004.252.007.376.03l3.089.554c.079.015.155.034.23.056l2.945.923c.144.045.279.105.407.185l2.449 1.476c.169.102.32.23.448.377l1.887 2.17c.203.233.347.512.414.813l.637 2.78c.041.177.056.361.045.542L316 64.947c-.007.109-.022.218-.049.324l-.712 2.934a1.88 1.88 0 0 1-.327.69l-1.801 2.387c-.15.2-.335.366-.55.49l-2.538 1.495a2.127 2.127 0 0 1-.373.17l-2.694.877c-.154.05-.312.08-.47.09l-2.833.167-2.795.218c-.064.004-.132.008-.196.004l-2.806-.076-2.806.027-2.75.06-2.478.256-2.554.426a2.218 2.218 0 0 1-.271.026l-2.637.057c-.079 0-.158 0-.237-.011l-2.43-.257-2.433.272a1.581 1.581 0 0 1-.196.01ZM153.089 46.203l4.079 3.767 5.206.098 1.924-3.62-.738-4.162-3.631-2.622-4.479-.071-3.45 2.516 1.089 4.094ZM156.36 82.948l-3.756-2.347-.245-4.283 3.684-2.618 4.483.275 4.335 2.912.953 3.593-2.252 3.021-3.65.475-3.552-1.028ZM228.608 97.326a1.882 1.882 0 0 1-.185-3.756l2.663-.264c.091-.007.185-.01.275-.007l2.513.12 2.493-.335.102-.011 2.667-.211a1.67 1.67 0 0 1 .196-.004l2.512.064 2.479-.391c.079-.012.158-.02.241-.023l2.602-.075 2.584-.283c.015 0 .031-.004.046-.004l2.388-.203 2.35-.524c.023-.004.049-.011.075-.015l4.709-.874 2.008-.983 1.966-1.077 1.68-1.556a1.89 1.89 0 0 1 2.663.102 1.886 1.886 0 0 1-.102 2.663l-1.853 1.714a1.902 1.902 0 0 1-.377.271l-2.207 1.21-.075.04-2.276 1.116c-.15.075-.312.128-.478.158l-2.49.47-2.459.449-2.437.542c-.083.02-.166.03-.253.038l-2.493.21-2.637.287-.151.011-2.557.072-2.532.4a2.055 2.055 0 0 1-.339.022l-2.584-.064-2.516.2-2.61.35c-.113.015-.226.019-.339.015l-2.546-.12-2.528.252c-.064 0-.128.004-.188.004ZM196.072 43.763c-.057 0-.11-.004-.166-.008l-2.712-.241a1.883 1.883 0 0 1 .331-3.752l2.524.222 2.52-.282a1.73 1.73 0 0 1 .369-.004l2.55.215 2.547-.226c.071-.008.143-.008.214-.008l2.712.072h.049l2.562.132 2.557-.271.14-.012 2.708-.09h.086l2.713.038 2.651.064 2.629-.155c.038-.004.068-.007.117-.004l2.709.008c.06 0 .12.004.18.011l2.505.253 2.501-.302c.094-.011.189-.015.283-.011l2.655.083 2.652-.075h.147l2.663.131h2.558l2.602-.293c.132-.016.268-.016.4-.004l2.712.271a1.886 1.886 0 0 1 1.687 2.06 1.881 1.881 0 0 1-2.06 1.688l-2.513-.253-2.508.287a2.047 2.047 0 0 1-.211.011h-2.708c-.031 0-.061 0-.091-.004l-2.636-.128-2.637.076h-.113l-2.569-.08-2.565.31a1.904 1.904 0 0 1-.415.003l-2.621-.264-2.562-.007-2.651.154c-.053.004-.106.004-.159.004l-2.708-.068-2.648-.034-2.595.087-2.637.279a1.563 1.563 0 0 1-.297.007l-2.686-.14-2.58-.067-2.599.23c-.11.011-.215.011-.324 0l-2.528-.211-2.523.282c-.072.012-.14.016-.211.016ZM201.235 57.202c-.057 0-.109-.003-.166-.007l-2.802-.245c-.053-.004-.102-.011-.155-.019l-2.765-.478c-.022-.004-.049-.008-.071-.015l-2.75-.584a1.886 1.886 0 0 1-1.454-2.234 1.887 1.887 0 0 1 2.234-1.454l2.716.577 2.655.455 2.641.234 2.708-.008 2.735-.071 2.666-.234 2.709-.463c.079-.015.158-.023.233-.026l2.81-.121a1.32 1.32 0 0 1 .211.004l2.671.184 2.459-.2a1.78 1.78 0 0 1 .4.012l2.395.316 2.403-.184c.057-.004.117-.008.174-.004l2.595.041 5.175.023c.076 0 .151.004.226.015l2.475.313 2.479.003c.034 0 .071 0 .105.004l2.471.143 2.479-.18c.113-.008.226-.008.335.003l2.591.275a1.878 1.878 0 0 1 1.673 2.072 1.875 1.875 0 0 1-2.072 1.672l-2.422-.256-2.433.177a1.783 1.783 0 0 1-.245.004l-2.543-.147-2.542-.004a1.6 1.6 0 0 1-.234-.015l-2.478-.312-5.074-.02-2.535-.04-2.512.195a1.703 1.703 0 0 1-.392-.01l-2.392-.317-2.403.192a1.76 1.76 0 0 1-.283 0l-2.704-.189-2.588.113-2.667.456a2.021 2.021 0 0 1-.15.019l-2.803.245a1.142 1.142 0 0 1-.117.007l-2.813.072h-.045l-2.814.008c.004.003 0 .003 0 .003ZM202.629 70.032h-.023l-2.784-.03c-.022 0-.045 0-.067-.004l-2.784-.132c-.026 0-.049-.004-.075-.004l-2.776-.24a1.884 1.884 0 1 1 .327-3.756l2.742.237 2.712.128 2.686.03 2.716-.158c.053-.004.109-.004.162-.004l2.708.076 2.678-.151 2.754-.23c.052-.004.101-.004.165-.007l2.754.01 2.697-.082 2.723-.237c.042-.004.087-.008.128-.008l2.784-.049h.041l2.765.011 2.765-.049 2.761-.03 5.529-.263a1.89 1.89 0 0 1 .253.004l2.644.23 2.648-.159c.072-.004.147-.004.219 0l2.252.128c1.04.06 1.834.95 1.774 1.985a1.89 1.89 0 0 1-1.985 1.774l-2.143-.12-2.678.158a2.211 2.211 0 0 1-.275-.004l-2.656-.23-5.439.257c-.023 0-.045 0-.072.003l-2.783.03-2.769.05h-.041l-2.765-.012-2.697.05-2.712.233c-.034.003-.071.003-.105.007l-2.784.087h-.064l-2.704-.012-2.697.227c-.019 0-.034.003-.053.003l-2.78.155c-.053.004-.105.004-.154.004l-2.705-.076-2.701.158a.715.715 0 0 1-.116.012Z" fill="#000"/></svg>