<svg width="1440" height="326" fill="none" xmlns="http://www.w3.org/2000/svg"><path d="m163.085 311.574 3.868-.219 3.877-.091 3.869.121h3.868l3.877-.083 3.869.098 3.868-.211 3.877.234 3.869-.045 3.868.037 3.869-.354 3.877.377 3.868-.257 3.877.355 3.869-.536 3.876.159 3.869-.121 3.869.045 3.876.332 3.869-.007 3.869.151 3.868-.129 3.869-.271 3.869.241 3.869-.392 3.869.173 3.868-.188 3.869.551 3.869-.317 3.869-.151 3.869.513 3.876-.355 3.869.083 3.869-.286 3.869.671 3.876.008 3.869-.589 3.869.483 3.868.06 3.877-.422 3.869.09 3.876-.03 3.869-.113 3.869.551 3.876.06 3.869-.483 3.869.483 3.876-.611 3.869.355 3.876-.023 3.869-.06 3.876.234 3.869-.476 3.876.31 3.869.045 3.877-.227 3.868.483 3.877-.498 3.869.446 3.876-.498 3.869.558 3.876-.181 3.869-.491 3.876.295 3.869.113 3.877.007 3.868.234 3.877-.415 3.869-.007 3.876.46 3.869-.309 3.876.407 3.869-.453 3.876.136 3.869.287 3.876-.03 3.869-.536 3.877.355 3.868.196h3.877l3.869-.596 3.861.475 3.869-.241 3.869-.151 3.868.634 3.869-.114 3.869.098 3.869-.445 3.869-.181 3.868.445 3.869-.241 3.869.06 3.869.098 3.869.272 3.876-.37 3.869.061 3.869-.008 3.869.174 3.868.015 3.869.053 3.877-.317 3.868.286 3.869.106 3.869.113 3.876-.287 3.869-.422 3.869.453 3.876-.204 3.869-.136 3.869.128 3.876.37 3.869-.445 3.877.43 3.868-.551 3.869.113 3.877.581 3.868-.535 3.869.422 3.877-.317 3.868.415 3.869-.045 3.869-.136 3.869.242 3.876.037 3.869-.324 3.869.038 3.876.226 3.869-.038 3.876-.46 3.869.49 3.877-.565 3.868.55 3.877-.022 3.869-.438 3.876.242 3.876-.083 3.869.143 3.876-.294 3.877.49 3.876-.219 3.877-.166 3.876-.007 3.869.219 3.876.264 3.876-.28 3.877.234 3.876-.483 3.877.483 3.876.008 3.876.075 3.877-.173 3.876.241 3.876-.052 3.877-.046 3.876-.407 3.877.362 3.876-.377 3.884.301 3.876-.377 3.876.362 3.877-.173 3.876-.219 3.877.634 3.883-.4 3.877-.196 3.876.271 3.876.212 3.884-.363 3.877.151 3.876-.234 3.869.204 3.876-.241 3.877.717 3.876-.348 3.869.182 3.876-.091 3.877.068 3.868.211 3.877-.03h3.876l3.869-.075 3.876.09 3.877-.226 3.869.038 3.876.083 3.876.007 3.869-.249 3.876-.226 3.877.015 3.869.068 3.876.385 3.876-.536 3.869.113h3.877l3.876.211 3.869.279 3.876.106 3.869-.06 3.876-.129 3.869-.037 3.876.226 3.869-.151 3.877-.105 3.876-.363 3.869.551 3.876-.302 3.869.408 3.876-.634 3.877.234 3.876-.136 3.869.189 3.876.392 3.877-.355 3.868.31 3.877-.015 3.876.143 3.866-.4 3.88.159 3.88.105 3.86.144 3.88-.159 3.88-.015 3.87-.506 3.87.083 3.88.144 3.88.173 3.86-.256 3.88.543 3.88.015 3.87-.053 3.87-.445 3.88.136 3.87-.128 3.87.128 3.88.317 3.87-.536 3.87.076 3.87.03 3.88.038 3.87.369 3.88-.581 3.86.536 3.88.106 3.88.022 3.87.038 3.87-.083 3.88-.113 3.87.234 3.88-.272 3.88-.121 3.87-.226 3.87.4 3.88.136 3.88-.015 3.86-.287 3.88-.151 3.87.128 3.87.181 3.87-.226 3.87-.106 3.88.672 3.87-.468 3.87.038 3.87.272 3.87-.219 3.87.128 3.87-.317 3.87.106 3.88-.204 3.86.656 3.87-.611 3.87.227 3.87.354 3.87-.113 3.89-.083 3.87-.634 3.89-.045 3.86-.566 3.89-.143 3.89-.219 3.87-.43 3.9-.098 3.86-.559 3.9-.075 3.88-.347 3.79-1.087 3.92-.023 3.79-1.011 3.85-.581 3.84-.604 3.93-.082 3.75-1.178 3.94-.113 3.73-1.215 3.88-.475 3.77-1.019 3.87-.521 3.66-1.448 3.88-.559 3.62-1.516 3.71-1.185 3.77-.981 3.71-1.162 3.71-1.185 3.73-1.162 3.7-1.222 3.46-1.834 3.53-1.645 3.72-1.215 3.41-1.902 3.64-1.463 3.23-2.219 3.37-1.932 3.44-1.871 3.02-2.483 3.55-1.728 2.76-2.822 3.4-1.969 2.63-2.921 3.32-2.128 2.33-3.192 3.01-2.512 2.44-3.049 2.28-3.154 2.64-2.883 2.29-3.169 1.98-3.365 1.77-3.479 2.02-3.35 1.05-3.796 1.69-3.516 1.53-3.585.73-3.848 1.29-3.683 1.14-3.742.46-3.879.83-3.841.46-3.901.14-3.932-.36-3.923-.05-3.902.11-3.931-.56-3.886-.35-3.909-1.02-3.796-.66-3.863-.76-3.864-1.52-3.629-1.66-3.562-1.46-3.614-1.59-3.57-1.45-3.667-2.12-3.305-2.04-3.358-2.72-2.86-2.63-2.882-2.44-3.064-2.83-2.702-2.81-2.739-3.04-2.467-2.97-2.558-3.32-2.113-3.05-2.475-3.41-1.947-3.36-1.985-3.12-2.414-3.65-1.479-3.33-2.121-3.81-1.041-3.52-1.758-3.8-.996-3.88-.596-3.77-1.042-3.83-.868-3.9-.354-3.93.015-3.9.136-3.91-.098-3.89.279-3.96-.204-3.79 1.2-3.92.287-3.88.656-3.79 1.026-3.74 1.185-3.8.989-3.67 1.388-3.81 1.019-3.51 1.781-3.8 1.086-3.39 2.053-3.85.973-3.38 2.06-3.67 1.404-3.46 1.863-3.84 1.042-3.37 2.06-3.49 1.796-3.7 1.343-3.64 1.449-3.62 1.26-3.66 1.132-3.68 1.034-3.57 1.426-3.68 1.079-3.75.875-3.81.468-3.79.634-3.84.234-3.84.151-3.84-.008-3.8-.717-3.87.204-3.72-1.071-3.85-.272-3.7-1.064-3.55-1.434-3.6-1.29-3.59-1.298-3.61-1.298-3.35-1.849-3.28-1.984-3.33-1.864-3.51-1.615-2.79-2.701-3.34-1.925-2.95-2.46-3-2.392-2.74-2.98-3.13-2.521-3.45-2.097-3.26-2.347-3-2.724-3.58-1.88-3.46-2.037-3.43-2.082-3.34-2.241-3.19-2.506-3.59-1.826-3.37-1.947-3.32-2.03-3.54-1.644-3.38-1.932-3.57-1.562-3.47-1.758-3.4-1.91-3.52-1.66-3.48-1.743-3.6-1.501-3.78-1.042-3.59-1.494-3.49-1.773-3.66-1.328-3.71-1.185-3.69-1.23-3.69-1.253-3.86-.694-3.76-.98-3.75-1.02-3.7-1.237-3.77-.966-3.91-.332-3.8-.807-3.76-1.05-3.82-.761-3.87-.506-3.88-.362-3.91-.09-3.85-.521-3.899.045-3.862-.838-3.898.068-3.892.03-3.884.483-3.899-.392-3.899.038-3.846.845-3.884.196-3.876.28-3.824.792-3.929.007-3.816.808-3.748 1.079-3.846.498-3.718 1.116-3.816.642-3.779.815-3.838.588-3.658 1.329-3.786.807-3.673 1.29-3.883.408-3.726 1.056-3.703 1.14-3.778.83-3.756.913-3.718 1.124-3.854.468-3.838.55-3.681 1.336-3.808.665-3.884.264-3.831.52-3.793.778-3.847.49-3.884-.045-3.868.06-3.847.302-3.861-.03-3.869.528-3.853-.49-3.839-.46-3.907.195-3.823-.664-3.831-.573-3.711-1.177-3.846-.536-3.635-1.373-3.65-1.26-3.824-.793-3.393-1.94-3.643-1.2-3.379-1.787-3.393-1.766-3.115-2.234-3.213-2.067-3.19-2.098-3.22-2.06-3.288-1.977-3.115-2.219-2.813-2.648-3.243-2.03-3.039-2.347-3.446-1.705-3.236-2.038-3.25-2.037-3.628-1.29-3.401-1.796-3.801-.959-3.612-1.486-3.786-.959-3.612-1.532-3.741-1.116-3.756-1.064-3.929-.34-3.725-1.2-3.892-.43-3.778-1.049-3.869-.483-3.914-.158-3.876-.362-3.877-.423-3.876-.317-3.869-.573-3.891-.28-3.899-.218-3.899-.113-3.899.445-3.907-.453-3.891.468-3.899-.098-3.877.626-3.899.113-3.899.076-3.861.619-3.929-.099-3.839.747-3.831.695-3.891.196-3.824.717-3.861.4-3.771 1.026-3.884.317-3.869.415-3.823.656-3.726 1.208-3.854.513-3.778.898-3.71 1.2-3.756.943-3.831.687-3.68 1.237-3.854.626-3.741 1.042-3.786.913-3.597 1.494-3.778.928-3.65 1.336-3.59 1.486-3.68 1.245-3.62 1.404-3.552 1.562-3.477 1.735-3.567 1.517-3.703 1.215-3.537 1.6-3.492 1.705-3.597 1.48-3.296 2.09-3.326 2.006-3.499 1.676-3.439 1.81-3.499 1.706-3.439 1.819-3.175 2.248-3.235 2.075-3.183 2.151-3.311 1.947-3.107 2.256-3.409 1.804-2.933 2.527-3.409 1.804-3.326 1.932-2.851 2.648-3.22 2.083-3.069 2.317-3.356 1.886-2.987 2.437-3.348 1.91-3.062 2.324-3.137 2.218-3.447 1.743-2.888 2.596-3.417 1.796-3.22 2.083-3.228 2.082-3.31 1.947-3.364 1.849-3.25 2.037-3.288 1.977-3.191 2.159-3.476 1.629-3.417 1.744-3.167 2.233-3.462 1.675-3.378 1.827-3.507 1.569-3.726 1.072-3.416 1.78-3.552 1.457-3.627 1.26-3.537 1.524-3.711.996-3.778.974-3.718 1.147-3.733 1.147-3.824.762-3.801.852-3.823.748-3.899.324-3.786 1.041-3.892.287-3.853.649-3.907.098-3.899.008-3.861.656-3.907-.196-3.884.355-3.891.037-3.891.498-3.899-.641-3.892-.053-3.906.4-3.899-.083-3.862-.77-3.921.272-3.862-.611-3.853-.566-3.945.196-3.846-.664-3.861-.536-3.839-.664-3.861-.551-3.854-.55-3.816-.815-3.823-.74-3.899-.4-3.673-1.426-3.824-.762-3.718-1.14-3.785-.92-3.756-1.125-3.778-1.018-3.726-1.253-3.808-.943-3.809-.913-3.808-.921-3.869-.694-3.846-.724-3.877-.597-3.861-.686-3.861-.672-3.907-.332-3.861-.664-3.839-.913-3.921-.166-3.937.023-3.892-.37-3.914-.121-3.914-.203-3.906-.159-3.922-.264-3.914.37-3.929-.113-3.869.86-3.944-.166-3.839.875-3.869.596-3.906.355-3.854.709-3.801.958-3.725 1.246-3.922.498-3.665 1.403-3.869.8-3.635 1.494-3.65 1.441-3.371 2.068-3.59 1.373-3.28 1.985-3.523 1.562-3.205 2.113-3.273 2.014-3.054 2.325-2.994 2.399-3.077 2.294-2.873 2.551-2.836 2.603-2.353 3.064-2.541 2.867-2.859 2.611-2.18 3.177-1.953 3.32-2.624 2.868-1.636 3.501-2.172 3.184-1.516 3.539-1.569 3.502-1.704 3.441-1.644 3.478-.928 3.751-1.47 3.561-.83 3.758-.905 3.728-.792 3.758-.89 3.75.023 3.871-.875 3.781-.12 3.848-.167 3.69-.241 3.69.535 3.69-.015 3.697.664 3.637.226 3.698 1.154 3.516 1.418 3.388 1.493 3.547 1.93 3.343 2.165 3.177 2.187 3.169 2.33 3.071 2.195 3.23 2.881 2.603 2.956 2.505 2.708 2.785 3.054 2.384 3.092 2.34 3.462 1.788 3.182 2.196 3.236 2.128 3.56 1.539 3.37 1.909 3.552 1.532 3.703 1.14 3.447 1.818 3.755.958 3.59 1.502 3.824.679 3.77.883 3.726.732 3.824.053 3.755.475 3.756.529 3.794.12 3.778.242 3.763.626 3.801-.309 3.786.09 3.793.023 3.786.015 3.794.332 3.785-.257 3.794-.052 3.763-.702 3.816.407 3.771-.392 3.808.166 3.764-.506" fill="#305DCE"/><path d="M967.364 111.607c6.554 2.971 18.297 9.1 24.287 13.145 28.999 19.58 27.819 77.346-3.249 94.981-14.672 8.326-27.893 8.542-44.426 8.493-18.2-.049-36.4.251-54.6.244h-32.829c-2.106 0-4.456-.209-6.799-.314-3.821-.174-6.813-3.347-6.82-7.168-.125-46.441-1.311-93.112-.774-139.672.251-21.874.705-43.75.774-65.624.014-3.41 2.622-6.248 6.018-6.52 16.478-1.31 33.074.468 49.558.92 8.131.224 16.268.036 24.399.008 12.015-.042 24.197 1.694 35.556 5.676 8.451 2.963 16.715 10.404 23.235 16.463 6.108 5.677 8.681 14.17 9.964 22.161 2.266 14.128 3.347 31.811-6.966 43.436-4.916 5.536-11.234 9.636-17.119 14.036" fill="#303694"/><path d="M875.902 105.29h-.111l-6.834-.279a3.002 3.002 0 0 1-.781-.146l-6.499-2.197a2.896 2.896 0 0 1-.418-.181l-6.032-3.222a3.092 3.092 0 0 1-.37-.237l-5.432-4.114a2.805 2.805 0 0 1-.599-.62l-5.077-7.21a2.803 2.803 0 0 1-.125-3.02 2.79 2.79 0 0 1 2.698-1.36l5.823.62 5.327-.341 5.412-1.304 5.411-1.395 4.999-1.84 3.18-2.072a2.783 2.783 0 0 1 3.856.816 2.783 2.783 0 0 1-.816 3.856l-3.444 2.239c-.175.111-.363.209-.558.279l-5.432 1.994a1.701 1.701 0 0 1-.265.084l-5.593 1.436-5.69 1.367a2.688 2.688 0 0 1-.474.07l-5.802.376a2.714 2.714 0 0 1-.411-.007l1.283 1.827 4.909 3.717 5.634 3.012 5.9 1.995 6.324.257 6.318-.23 6.164-1.938a2.797 2.797 0 0 1 3.501 1.82 2.797 2.797 0 0 1-1.82 3.5l-6.52 2.05a2.634 2.634 0 0 1-.732.126l-6.799.251c-.035.021-.07.021-.105.021Z" fill="#111"/><path d="M799.762 179.149c-2.566-1.171-5.118-2.392-7.726-3.465-4.638-1.918-9.449-3.675-13.863-6.074-2.245-1.22-4.602-1.973-6.924-3.054-2.58-1.207-5.767-2.601-8.5-3.766a4.063 4.063 0 0 1-1.514-1.115c-.99-1.165-2.901-3.438-3.926-4.84-1.366-1.869-2.705-3.758-4.086-5.62a1.233 1.233 0 0 1-.146-1.227c.16-.37.495-.642.892-.705 4.073-.662 11.381-1.018 13.863-1.122a3.25 3.25 0 0 1 1.576.341c2.887 1.458 6.192 2.838 9.086 4.142 2.782 1.249 5.39 2.866 8.347 3.731 3.5 1.025 6.652 3.166 10.09 4.477 1.666.634 3.2 1.527 4.762 2.378 1.465.802 3.103 1.311 4.637 2.015" fill="#F8F3F2"/><path d="M655.319 156.975c-5.592.007-11.185.007-16.777.014-3.34 0-6.813.181-10.111.613-3.41.446-6.227 2.28-9.302 3.856-1.967 1.011-2.79 2.462-4.324 3.884a12.428 12.428 0 0 0-3.256 4.958c-1.778 5.021-4.393 9.344-5.69 14.504a535.151 535.151 0 0 1-4.951 18.347c-2.873 1.994-6.499 2.44-9.358 4.344-5.153 3.431-6.799 9.616-7.078 15.473-.272 5.83-.216 13.493 3.501 18.333 2.768 3.598 7.712 4.755 11.973 5.411 5.348.829 10.954.523 16.407.816 8.766.481 27.956.585 36.735.753" fill="#E37B3D"/><path d="M645.813 240.094c-.376 13.179-.76 26.352-1.136 39.531-.189 6.589-.37 13.179-.565 19.776-.119 3.765-2.211 8.054-4.037 11.268-1.604 2.831-3.18 5.844.167 8.57.795.642 1.729 1.081 2.719 1.353 3.445.941 7.245 1.269 10.641.049 4.986-1.792 6.269-5.92 7.085-10.662 1.283-7.447 1.862-14.999 3.319-22.419 1.939-9.832 4.575-19.448 7.183-29.119.313-1.172 1.987-1.151 2.273.027 2.315 9.533 4.49 19.107 6.032 28.799.92 5.788 1.624 11.604 2.552 17.384.718 4.484.948 10.941 4.881 14.1 2.643 2.113 6.108 2.441 9.365 2.434 3.138-.014 8.103 1.046 10.473-1.702 2.378-2.761.851-7.329-1.736-9.274-6.032-4.547-4.916-12.084-5.202-18.827-.335-7.838-.467-15.683-.307-23.528.168-8.333-.697-16.756-.076-25.145" fill="#EBB4C9"/><path d="M706.57 186.185c-3.375-10.725-11.854-21.191-19.741-29.001l-4.763.572c-3.974 2.754-7.949 5.515-11.924 8.27-.209.146-.425.293-.676.314-.349.034-.67-.189-.955-.398l-13.222-9.686-12.642 4.052c-9.267 6.785-15.717 18.681-17.795 29.824-2.127 11.394 2.113 23.667 13.012 28.708-2.071 4.247-3.034 8.814-3.096 13.542-.035 2.692 1.631 5.446 2.852 7.845.732 1.443 1.624 2.921 3.061 3.654 3.5 1.785 7.761 1.101 11.519 1.408 12.922 1.053 25.78 1.004 38.841.656 3.04-.084 6.08-.161 9.121-.244 3.556-.091 6.052-4.777 7.377-7.524 2.12-4.393 1.43-9.114-.195-13.668 1.164.767 3.312-2.008 4.337-2.956 4.707-4.365 6.562-14.923 8.347-20.683" fill="#111"/><path d="M638.484 159.562c9.72 6.436 17.391 17.593 20.18 30.145l-10.564.725c-1.667-5.523-5.363-10.007-7.936-15.034-2.217-4.324-6.052-9.254-10.641-11.185M697.834 155.964c3.94 4.825 8.835 9.476 12.015 14.922 3.047 5.237 6.324 11.994 7.391 18.123l-10.46.697c-4.609-10.571-11.952-22.864-20.061-30.514" fill="#E37B3D"/><path d="M665.743 169.701c-7.517-.077-14.672-.879-21.945-2.35-5.369-1.081-11.952-.76-14.448-6.82-2.001-4.86.879-8.047 5.383-9.574 3.633-1.234 9.065-.272 12.921-.286 12.141-.049 24.225-.349 36.358-.098 4.63.098 9.184-.864 13.772-.209 1.025.147 2.05.349 2.971.823 3.702 1.897 3.981 5.432 2.001 8.758-2.483 4.17-6.625 5.453-11.066 6.729-4.589 1.318-9.079 2.797-13.793 3.438" fill="#111"/><path d="M1226 130.317c-6.03-6.768-13.69-11.704-21.3-16.513-9.57-6.034-20.83-8.984-32.01-10.075-12.47-1.219-25.14-.895-37.55.862-11.9 1.691-21.43 6.708-31.93 12.298a78.178 78.178 0 0 0-25.25 21.348c-11.32 14.722-20.17 31.619-24.8 49.654-4.66 18.19-1.03 38.306 3.73 56.307 4.13 15.658 13.33 31.902 24.45 43.58 5.16 5.428 11.13 9.96 17.16 14.371 11.97 8.782 26.97 14.513 41.48 16.668 15.66 2.324 31.19 3.556 46.77-.283 10.05-2.478 20.04-5.892 28.68-11.718 18.34-12.364 32.09-40.05 35.34-62.678.39-2.728-1.83-5.132-4.57-4.97-8.79.525-18.21-.263-26.49.182-9.31.505-18.04-.189-27.21-.97-2.76-.236-5.36 1.434-6.18 4.074-7.43 24.002-41.5 21.658-57.75 6.613-1.72-1.596-3.45-3.246-4.62-5.286-2.34-4.081-2.31-12.062-2.93-16.803-.66-5.111-.81-10.29-.68-15.442.04-2.007 1.75-3.556 3.75-3.462 21.02 1.024 42.11.721 63.14-.222 12.7-.572 25.41.35 38.1.869 4.79.195 9.57.337 14.36.316 2.37-.006 4.73-.053 7.09-.155 1.52-.06 2.18-.067 3.3-1.097 2.37-2.169 1.82-6.29 1.89-9.132.12-5.132-.09-10.27-.7-15.368-1.12-9.24-3.64-18.285-7.55-26.737-3.85-8.29-8.97-15.927-14.83-22.931-.95-1.097-1.91-2.209-2.89-3.3Z" fill="#EBB4C9"/><path d="M1006.66 306.681c20.23 1.764 40.95 1.066 61.24.871-6.4-10.313-5.75-22.927.78-33.178-24.6-1.471-49.74-3.424-74.141.439M985.68 261.746l78.04.007-.15.474c-3.81-7.887-3.79-17.844.06-25.71l-.17-.788-66.986 1.722" fill="#F8F3F2"/><path d="M1218.35 74.418a2.831 2.831 0 0 0-.73-4.238c-1.72-1.043-3.33-2.28-4.93-3.511-15.61-12.033-32.56-22.001-48.17-34.007-5.75-4.426-11.38-6.942-17.69-1.796a2758.425 2758.425 0 0 1-54.57 43.383 3.261 3.261 0 0 0-.76 4.298c1.35 2.16 2.72 3.888 4.74 6.04 2.14 2.274 4.29 4.547 6.43 6.82 1.87 1.992 3.66 4.231 6.08 5.577 1.04.585 2.56 1.25 3.77.934.65-.168 1.34-.72 1.9-1.076 3.65-2.313 6.95-5.233 10.2-8.058 3.49-3.033 6.77-6.342 10.37-9.241 6.52-5.253 11.73-12.1 18.48-16.943.92-.66 22.28 15.82 24.52 17.467 6.86 5.025 12.86 10.413 19.93 14.892 1.3.827 3.02.525 3.98-.693 3.54-4.5 12.28-14.804 16.45-19.849Z" fill="#EBB4C9"/><path d="M623.543 237.138c-.335 9.476-.698 18.953-1.088 28.422a2.197 2.197 0 0 0 2.169 2.287c1.938.035 3.96.035 5.885-.09 1.171-.077 2.092-1.025 2.168-2.197.461-7.224.991-13.967.795-21.303M633.681 234.432c10.85-4.804 21.533-19.427 24.977-30.779l-11.157-2.789c-4.469 10.564-14.999 22.376-25.04 27.913" fill="#E37B3D"/><path d="M407.527 321.38c13.696.662 27.426-.154 41.086.474 9.693.446 19.72-1.234 29.454-1.332 11.597 0 23.193-.23 34.789-.349 10.843-.111 21.059 1.618 31.728 1.59 13.193-.035 26.554.621 39.67-.111 3.194-.175 6.534-.328 9.755-.307.949.007 2.413.07 2.957-.872.907-1.541-1.436-3.514-2.301-4.616-1.088-1.388-2.183-2.768-3.354-4.079a36.244 36.244 0 0 0-8.528-7.057c-5.223-3.103-9.505-7.405-15.104-9.965-11.018-5.048-20.787-10.403-33.018-12.732-9.441-1.8-19.504-4.191-29.078-4.868-12.907-.913-25.94-1.255-38.903-1.387-21.351-.223-44.607 7.921-64.125 16.087-12.119 5.069-22.948 12.502-33.45 20.319-3.235 2.406-1.645 7.545 2.385 7.713l36.037 1.492Z" fill="#76BE57"/><path fill-rule="evenodd" clip-rule="evenodd" d="M417.051 306.097c2.049 5.832 4.063 11.566 6.177 16.52-6.843.54-14.91.606-22.644.669-4.356.036-8.606.071-12.473.189-3.199.093-6.427.137-9.666.182-5.939.081-11.915.162-17.822.55-1.47.096-3.261.345-5.22.617-8.157 1.135-19.22 2.673-22.121-4.766-3.955-10.131-7.059-20.813-10.1-31.28l-.723-2.484c-3.68-.143-7.404-.092-11.128-.042-4.82.066-9.641.131-14.365-.223a33.627 33.627 0 0 1-.929-.088c-2.531-.257-8.184-.832-8.757.772a344.318 344.318 0 0 0-1.73 4.989c-1.489 4.367-2.906 8.523-4.964 12.939-1.797 3.857-3.269 8.018-4.741 12.181-.471 1.33-.942 2.661-1.423 3.982a6.95 6.95 0 0 1-6.548 4.575c-3.775-.006-7.551-.046-11.327-.086-6.107-.064-12.214-.129-18.316-.047-4.184.057-8.365-.137-12.549-.331-6.066-.282-12.136-.563-18.223-.08-3.394.272-6.905.061-10.357-.147-1.145-.069-2.283-.138-3.408-.188-.64-.029-1.322 0-2.014.03-2.286.1-4.687.204-6.089-1.787-1.87-2.652-.553-5.797.645-8.661.406-.969.799-1.907 1.05-2.782.775-2.698 1.651-5.321 2.535-7.966.411-1.232.825-2.469 1.23-3.721 3.012-9.302 6.136-18.576 9.295-27.837 1.312-3.854 2.63-7.706 3.948-11.557 4.937-14.43 9.874-28.861 14.503-43.391 1.617-5.073 3.308-10.115 4.998-15.153 4.288-12.78 8.567-25.535 11.598-38.714 2.176-9.456 5.544-18.584 9.184-27.558.777-1.926 1.378-3.939 1.979-5.955.962-3.225 1.925-6.456 3.62-9.344 3.57-6.074 8.898-6.813 15.432-6.834l22.021-.062c7.203-.022 14.405-.215 21.608-.408a1532.8 1532.8 0 0 1 13.034-.311c5.892-.104 11.792-.146 17.684-.028.801.017 1.63.001 2.471-.015 3.081-.058 6.328-.119 9.007 1.382 2.454 1.375 3.153 3.312 4.047 5.792l.039.107c2.015 5.579 3.905 11.199 5.613 16.875 2.455 8.131 5.07 16.31 7.685 24.448 3.582 11.135 7.013 22.316 10.445 33.498 3.975 12.955 7.951 25.91 12.162 38.792 1.237 3.793 2.401 7.602 3.563 11.405 2.006 6.565 4.007 13.112 6.373 19.528.888 2.41 1.642 4.816 2.39 7.206 1.302 4.16 2.588 8.27 4.542 12.256 3.196 6.53 6.009 14.534 8.759 22.362Zm-89.074-81.766a80.902 80.902 0 0 0 4.414-3.772c7.287-6.729 15.648-16.045 13.702-26.812-1.708-9.386-11.714-17.858-21.233-17.475-6.882.279-15.661 6.611-20.975 12.127-1.074 1.115-2.922.878-3.654-.488-3.877-7.204-10.097-13.584-18.388-14.839-5.299-.802-11.213 2.371-15.41 5.264-7.88 5.439-8.494 12.503-7.329 21.227.795 5.941 3.131 11.624 7.001 16.233 4.358 5.188 8.151 9.365 13.876 13.13 2.657 1.747 5.077 3.816 7.492 5.881a368.59 368.59 0 0 0 1.81 1.539c.367.309.747.638 1.137.977 2.525 2.193 5.525 4.798 8.786 5.034 1.786.133 3.739-1.214 5.42-2.372.518-.357 1.01-.696 1.463-.969a360.65 360.65 0 0 0 7.489-4.609c4.944-3.131 9.818-6.415 14.399-10.076Z" fill="#E37B3D"/><path d="M320.76 112.601c2.266-1.43 2.824-4.965 1.102-7.022-1.346-1.618-10.251-4.56-9.295-6.917a934.77 934.77 0 0 1 5.048-12.224c2.469-5.865.377-17.705-8.214-15.313-1.165.328-5.802 1.492-6.081 2.956.398-2.07-.167-3.103.007-5.209.684-8.542-1.513-17.307-5.509-24.838-3.124-5.885-10.829-12.035-17.635-8.521-2.621 1.353-4.316 2.197-5.432 4.93-.92 2.26-3.263 5.223-5.697 5.056-2.064-.14-3.598-4.526-5.076-5.865-6.736-6.108-14.86-3.849-20.55 2.392-6.854 7.51-9.414 21.024-9.037 30.772-.621-1.262-1.611-2.015-2.859-2.663-1.388-.726-2.998-1.095-4.54-.816-1.882.341-3.5 1.624-4.595 3.2-1.095 1.576-1.715 3.417-2.21 5.272-.823 3.075.53 4.407 1.352 7.482.635 2.364 1.939 4.003 2.943 6.144 1.067 2.266 1.987 4.65 2.768 7.035.774 2.35.858 2.078-1.025 3.013-3.117 1.541-10.836 7.329-6.185 11.485.886.788 2.176.871 3.354.892 8.549.174 17.133-.258 25.689-.488 11.366-.314 22.747-.112 34.113-.307 12.091-.209 24.183.014 36.246-.293" fill="#76BE57"/><path d="M251.328 58.74a2.788 2.788 0 0 1-.027-5.578l9.092-.084a2.798 2.798 0 0 1 2.818 2.762 2.79 2.79 0 0 1-2.762 2.817l-9.093.084h-.028ZM275.473 59.013a2.791 2.791 0 0 1-.3-5.565l9.016-.983a2.789 2.789 0 0 1 .607 5.543l-9.017.984c-.104.014-.209.02-.306.02ZM265.555 70.358a3.04 3.04 0 0 1-.355-.021l-5.809-.753a2.784 2.784 0 0 1-2.406-3.124 2.784 2.784 0 0 1 3.124-2.406l5.6.725 5.313-.111 5.418-1.277a2.79 2.79 0 1 1 1.276 5.432l-5.704 1.34c-.188.041-.383.07-.578.076l-5.823.119h-.056ZM255.856 116.338c-.126 0-.251-.007-.37-.028l-4.721-.634a2.791 2.791 0 0 1-2.824-.9l-3.298-3.905a2.779 2.779 0 0 1-.453-2.845l.92-2.273c.216-.53.593-.99 1.074-1.297l5.3-3.41.146-7.266c.028-1.54 1.325-2.761 2.845-2.733a2.79 2.79 0 0 1 2.734 2.845l-.175 8.751a2.787 2.787 0 0 1-1.276 2.287l-5.718 3.682 1.276 1.513 4.707.635 5.418-.112 5.621-.313a2.77 2.77 0 0 1 .341 0l5.53.362 5.523-.23 5.467-.342 4.693-.774-1.025-2.726-4.645-1.988a2.797 2.797 0 0 1-1.673-2.245l-.879-7.587a2.79 2.79 0 0 1 2.448-3.089 2.78 2.78 0 0 1 3.089 2.448l.69 5.983 4.254 1.82a2.79 2.79 0 0 1 1.513 1.583l2.636 7.022a2.792 2.792 0 0 1-.195 2.377 2.767 2.767 0 0 1-1.96 1.353l-8.179 1.353a3.865 3.865 0 0 1-.279.035l-5.669.355-5.732.238c-.098.007-.202 0-.3-.007l-5.516-.363-5.502.307c-.035 0-.062 0-.097.007l-5.683.111h-.056Z" fill="#111"/><path d="M105.643 196.198c9.832-7.83 20.305-14.748 29.838-22.962 9.622-8.298 18.018-17.272 26.714-26.672 15.898-17.196 18.339-38.548 11.324-59.962-2.371-7.231-5.544-14.183-9.665-20.585-8.974-13.925-23.973-23.96-38.749-30.856-16.785-7.83-35.535-11.408-54.014-11.247-11.813.104-23.625-1.116-35.242 1.736-5.46 1.339-10.46.558-15.648 1.506-8.947 1.639-18.918 6.75-26.275 11.743-7.789 5.285-15.522 10.745-22.216 17.356-15.215 15.027-21.129 38.268-19.427 59.132.976 12.001 4.707 25.968 14.7 33.938 5.25 4.191 12.356 6.897 18.171 10.272 12.503 7.252 26.916 9.734 41.142 10.892 8.897.725 17.879.209 26.741 1.359 11.464 1.493 17.72 9.602 18.64 20.759.453 5.509-.133 11.074-1.005 16.513-.537 3.368-2.182 6.624-2.112 10.09.132 6.429 5.243 2.071 8.074-.049 9.888-7.378 19.365-15.278 29.009-22.963Z" fill="#EBB4C9"/><path d="M1334.19 58.011c.05-.083.11-.167.16-.242 4.75-7.397 2.67-19.37-2.73-25.773-7.14-8.475-21.71-12.524-32.24-13.735-8.1-.926-16.34.802-24.28 2.213-8.04 1.436-15.78 4.558-22.54 9.159-6.9 4.7-11.71 13.893-10.32 22.325.89 5.427 3.96 12.775 8.7 15.647 5.02 3.047 10.73 4.717 16.39 6.12 6.93 1.72 16.27.901 13.78 11.296-.9 3.765-1.99 7.489-3.26 11.146-.29-.05.26 1.611.51 1.761.25.15.57.034.83-.075a163.648 163.648 0 0 0 36.57-21.599c6.38-5 13.94-11.38 18.43-18.243Z" fill="#76BE57"/><path d="M918.85 48.466c15.145 3.445 22.558 16.568 27.801 29.998 2.699 6.904 4.972 13.975 8.034 20.724 1.513 3.341 3.13 6.583 5.397 9.449 1.938 2.559 4.149 4.665 6.499 6.673 1.513 1.297.822 3.759-1.144 4.059-6.241.955-12.566 2.119-18.772 2.259a89.629 89.629 0 0 1-11.61-.495c-2.936-.321-7.391-.154-9.999-.955-8.891-2.748-19.581-5.384-27.23-10.872-13.765-9.873-22.544-25.068-17.552-42.194 3.334-11.429 12.357-20.473 24.894-19.573 4.428.327 9.414-.042 13.682.927Z" fill="#F8F3F2"/><path d="M891.124 71.456a2.93 2.93 0 0 1-.432-.035l-6.478-1.018a2.756 2.756 0 0 1-1.464-.71l-4.519-4.206a2.768 2.768 0 0 1-.718-1.087l-2.106-5.795a2.93 2.93 0 0 1-.167-.92l-.091-7.657c-.007-.377.07-.746.209-1.088l2.852-6.952c.167-.398.419-.753.746-1.039l4.414-3.863a2.774 2.774 0 0 1 1.367-.649l5.746-.983a2.793 2.793 0 0 1 2.057.453l4.853 3.362c.467.32.823.78 1.018 1.31l2.071 5.502c.084.216.14.447.161.677l.641 5.822a2.66 2.66 0 0 1-.021.746l-.934 5.802a3.633 3.633 0 0 1-.084.376l-1.715 5.6a2.81 2.81 0 0 1-.774 1.234l-4.742 4.386a2.791 2.791 0 0 1-1.89.732Zm-5.195-6.429 4.296.677 3.193-2.957 1.437-4.693.844-5.237-.565-5.097-1.639-4.358-3.2-2.218-3.843.663-3.326 2.914-2.385 5.816.077 6.617 1.715 4.721 3.396 3.152Z" fill="#111"/><path d="M909.562 71.847c-.426 0-.851-.098-1.234-.286l-4.7-2.322a2.798 2.798 0 0 1-1.249-1.227l-2.405-4.68a2.71 2.71 0 0 1-.293-1.017l-.495-5.293c-.007-.09-.014-.174-.014-.265l.007-5.885c0-.112.007-.223.021-.335l.718-5.864a2.772 2.772 0 0 1 .6-1.409l4.072-5.056c.3-.37.683-.655 1.123-.836l5.976-2.427a2.775 2.775 0 0 1 2.426.16l5.3 3.013c.495.279.885.704 1.136 1.213l2.615 5.418a2.9 2.9 0 0 1 .21.6l1.324 5.864c.07.321.091.656.042.984l-.795 5.976a3.049 3.049 0 0 1-.202.739l-2.28 5.271-.363 1.304a2.774 2.774 0 0 1-.92 1.409l-3.926 3.215a2.765 2.765 0 0 1-1.158.564l-4.923 1.102c-.209.049-.411.07-.613.07Zm-2.643-7.203 2.991 1.478 3.313-.746 2.726-2.239.181-.641c.035-.126.077-.244.126-.356l2.203-5.097.677-5.097-1.144-5.07-2.099-4.351-3.368-1.91-4.051 1.645-3.117 3.87-.6 4.91-.007 5.584.433 4.63 1.736 3.39ZM890.64 62.057a2.794 2.794 0 0 1-2.782-2.601 2.792 2.792 0 0 1 2.594-2.97l3.759-.252a2.791 2.791 0 0 1 2.97 2.594 2.792 2.792 0 0 1-2.594 2.97l-3.758.252c-.063 0-.126.007-.189.007Z" fill="#111"/><path d="M910.593 61.847h-.118l-5.544-.237a2.791 2.791 0 0 1-2.671-2.907 2.782 2.782 0 0 1 2.908-2.671l5.544.237a2.79 2.79 0 0 1-.119 5.578ZM899.387 62.65a134.8 134.8 0 0 1-6.339 13.757c-.593 1.109.6 2.315 1.715 1.737 4.505-2.323 8.759-4.498 12.838-7.845" fill="#111"/><path d="M1070.46 259.71c-2.26-.084-4.12-.063-6.38-.112-9.77-.209-19.44.655-29.18-.328-3.7-.376-7.61-3.814-7.92-7.628-.32-3.905 1.01-8.312 3.07-11.59 1.8-2.886 4.75-2.336 7.9-2.433 8.78-.286 17.58-.237 26.35-.788.86-.056 1.71-.119 2.56-.098l.95-1.074c.18-1.492.12-3.138 0-4.734a2.525 2.525 0 0 0-2.35-2.309c-13.55-.815-27.17-.062-40.75-.125-14.56-.07-29.138-.188-43.705-.181-5.523.007-10.913-.307-16.352-.67-5.656-.376-11.415 1.22-17.14.921-13.27-.705-26.568-.3-39.845-.056-9.176.167-18.332-.83-27.515-.711-8.068.104-10.432 3.444-13.249 10.431-1.465 3.626-2.546 7.629-2.462 11.569.105 5.069 2.211 10.585 5.753 14.246 3.605 3.724 7.496 3.849 12.321 3.87a601.85 601.85 0 0 0 27.237-.488c7.057-.293 14.128 1.074 21.136.774 14.281-.614 28.29-.098 42.473-.495 14.574-.412 38.418-.419 52.998-.042 13.81.356 27.83.237 41.75.335 1.85.014 3.33-1.534 3.22-3.375-.07-1.214-.11-2.434-.08-3.403" fill="#372D26"/><path d="M932.209 267.373c-15.703-.049-58.994-.544-74.711-.132-24.498 0-35.001 53.759 4.169 51.404 11.539.422 26.537-.778 45.683-.801 8.8-.007 17.6.035 26.4.175 5.906.09 11.806.202 17.712.139 11.52-.125 23.109.035 34.524-.111 10.599-.133 21.314-.161 31.884-.495 4.56-.147 9.12-.949 13.75-.523 13.07 1.199 26.5.599 39.81.404 1.22-.014 2.23-.955 2.3-2.162.1-1.75.42-3.451.15-5.195-.2-1.345-1.18-1.743-2.46-1.792-1.23-.042-2.45-.069-3.67-.076-2.46-.021-4.92.027-7.37.09-4.92.133-9.84.342-14.75.314-9.08-.056-22.16.411-28.3-7.594-4.13-5.369-2.5-14.037 1.92-18.702 4.93-5.202 11.18-5.564 17.76-5.32 4.15.153 8.51-.711 12.7-.823 6.34-.167 12.68-.565 19.03-.593.87-.007 1.73-.007 2.59.007.47.007 1.16.14 1.52-.258.45-.502.22-1.624.2-2.231-.08-1.897-.28-3.786-.36-5.683a1.948 1.948 0 0 0-2.11-1.855c-3.99.307-7.97.112-11.95.439-9.46.767-19 .021-28.46 1.102-6.58.753-13.61-.146-20.34.112-8.08.313-15.964-.265-24.095-.224-17.844.091-35.682.44-53.526.384Z" fill="#E37B3D"/><path d="M1023.34 218.575c-.85-1.06-2.05-1.931-3.53-2.447-4.05-1.402-9.12-1.13-13.34-.879-8.817.523-17.791-.404-26.661-.091-1.855.07-14.079 1.527-14.985-.739-3.508-8.765-4.338-17.907-7.329-26.853-1.904-5.69-3.103-11.562-4.414-17.412a4.596 4.596 0 0 0-4.595-3.598c-7.322.195-15.007.809-22.105-.084-14.651-1.848-29.252-1.157-43.966-.802-.481.014-2.468-.07-4.323-.153-1.799-.084-3.194 1.541-2.831 3.298.851 4.121 2.273 10.927 3.138 14.79 2.928 13.026 5.913 26.1 8.305 39.21a5.209 5.209 0 0 0 5.188 4.274c7.447-.076 14.894-.055 22.335-.021 4.497.021 8.995.049 13.493.07 19.392.063 38.805.53 58.225 1.053 11.345.307 22.805 1.234 34.135-.258.7-.091 1.38-.321 1.96-.718 3.32-2.294 3.39-6.032 1.3-8.64Z" fill="#F8F3F2"/><path d="M922.909 201.059c2.518-3.305-.39-8.814-2.21-11.868-.774-1.297-1.709-2.553-2.992-3.354-9.588-5.983-7.984 10.236-4.232 14.538 2.168 2.49 6.303 3.912 9.037 1.144.146-.146.279-.3.397-.46Z" fill="#AEAEAE"/><path d="M1463.86 248.229c-.16.685-6.93 30.825-28.41 45.74-21.47 14.914-53.14 11.391-53.89 11.136-6.84-2.35-17.75-5.398-22.41-11.136-1.52-1.876-8.95-18.577-8.11-19.093-11.28 6.945-22.59 9.616-35.66 6.457-20.38-4.916-28.05-35.221-16.21-50.841 2.04-2.677 7.88-8.165 11.1-9.155-7.12-2.615-12.29-8.389-15-15.341-1.58-4.052-4.7-10.223-4.81-14.539-.27-10.16 4.11-20.355 11.66-27.161 7.55-6.805 20.57-10.822 30.65-9.511-18.33-15.09-13.85-40.639 4.3-53.302 7.22-5.042 18.94-9.47 27.94-7.957 8.48 1.423 16.33 10.425 20.7 17.447 1.97-5.279 5.08-13.75 9.47-17.293 8.07-6.506 15.82-17.68 51.32-10.18M1285.99 300.809c-6.3 4.463-15.9 4.916-21.35-2.977-4.11-5.941-2.81-15.174 3.17-19.225 2.72-1.841 1.72-.656 4.76-1.904 5.44-2.245 15.22 1.799 18.03 7.057 3.63 6.792.66 13.319-4.61 17.049Z" fill="#F8F3F2"/><path d="M172.705 239.09c-2.001-1.046-6.004-.523-8.242-.516-2.413.014-5.042.223-7.315.286-7.106.195-14.218.384-21.324.551-14.218.342-28.436.613-42.654.788-11.66.146-24.127-1.862-35.689-.523-10.146 1.171-20.368.369-30.542.816-3.298.146-6.896-.474-7.657 3.424-.132.69-.09 6.938.488 7.063-9.03-1.987-21.484.781-24.391 10.578-3.48 11.708-1.5 20.362 8.758 26.15 10.48 5.913 23.84 8.674 35.877 10.32 15.766 14.748 39.32 22.174 59.452 20.424 15.425-1.339 30.954-5.732 44.426-13.981 10.355-6.345 16.233-15.557 22.216-26.282.447-.795.691-1.722.984-2.587 3.186-9.511 5.627-19.741 6.847-29.691.244-1.981 1.053-5.279-.948-6.666-.098-.049-.188-.105-.286-.154ZM8.3 267.024c1.527-5.139 8.64-6.157 12.865-4.553.202 1.353.37 2.336.453 2.706 1.507 6.659 3.94 13.102 7.301 18.946-5.564-.781-11.687-2.085-16.505-4.805-4.819-2.726-5.746-6.792-4.114-12.294Z" fill="#AEAEAE"/><path d="M1153.26 151.468c-1.56-2.205-5.29-3.212-8.26-1.849-2.36 1.086-2.03 2.916-1.92 5.219.04.751.14 1.514.52 2.192 2.12 3.844 8.94 1.415 10.12-1.777.53-1.448.28-2.751-.46-3.785ZM1166.46 158.31c-1.13.628-2.59.883-4.31.53-.96-.196-1.94-.491-2.64-1.144-4.06-3.741.8-10.358 5.92-8.312 4.77 1.903 4.4 7.056 1.03 8.926ZM1153.41 180c-.36 0-.71-.069-1.05-.206l-6.71-2.728a2.741 2.741 0 0 1-1.49-1.453l-2.93-6.751c-.61-1.391.04-3.002 1.44-3.605 1.4-.597 3.03.041 3.64 1.432l2.49 5.723 5.01 2.029 4.81-.562 4.22-2.46 1.77-2.591c-.34-.788-.3-1.727.18-2.516a2.784 2.784 0 0 1 3.8-.911l1.09.658a2.76 2.76 0 0 1 1.26 1.761c.16.734.01 1.494-.42 2.118l-3.45 5.065c-.23.336-.54.624-.9.83l-5.26 3.07c-.33.192-.7.316-1.08.357l-6.09.713c-.12.02-.23.027-.33.027Z" fill="#111"/><path d="M818.865 228.533c-5.244 2.901-9.4 6.464-15.341 7.747-5.523 1.185-11.268 1.269-16.84.376-11.178-1.785-21.826-7.489-29.085-16.24-2.015-2.427-2.399-5.265-3.577-8.075-1.318-3.152-1.973-6.582-2.141-9.985-.767-15.397 4.812-32.467 20.417-38.45 5.844-2.238 12.134-3.236 18.354-3.577 10.139-.565 22.376 2.977 29.496 10.201 4.825 4.895 8.542 10.899 10.718 17.426 1.094 3.298 1.185 7.322 1.68 10.774 1.604 11.157-3.668 24.259-13.681 29.803Z" fill="#AEAEAE"/><path d="M800.33 160.273c-.788.237-1.625.251-2.448.209-4.219-.216-10.418-2.531-13.319-5.76-4.909-5.467-3.403-15.208.795-20.598 1.758-2.26 4.909-2.838 7.768-2.999a50.449 50.449 0 0 1 7.538.133c5.774.537 10.397 9.978 10.732 15.034.397 6.004-5.516 12.328-11.066 13.981ZM841.869 175.579a16.964 16.964 0 0 0 2.329-1.736c6.562-5.774 3.836-19.009-2.88-23.569-5.09-3.459-13.841-3.585-18.792.474-8.64 7.07-4.951 21.77 4.679 25.696 4.811 1.959 10.181 1.917 14.664-.865ZM783.494 231.231c-12.733 7.218-8.019 22.384-6.778 34.245a383.128 383.128 0 0 0 2.399 18.472c.662 4.268.99 8.368 1.757 12.649.767 4.331.983 8.849-1.52 12.691-1.562 2.399-5.948 2.832-6.806 5.718-1.764 5.928 4.575 5.474 8.019 5.509 5.258.049 9.923.328 12.991-4.525 4.17-6.597 2.804-14.749 4.589-21.987l2.684-.069c1.276 5.62 2.525 11.247 3.829 16.854.871 3.744 2.384 8.597 6.687 9.609 4.337 1.018 10.02.53 14.211-.928 1.973-.69 3.131-3.019 2.713-5.062-.823-3.968-5.286-3.138-6.653-6.339-5.244-12.259-4.504-26.323-7.363-39.203-2.385-10.731-.586-22.913-8.312-31.679-1.597-1.813-4.066-2.608-6.095-3.842" fill="#AEAEAE"/><path d="M784.406 184.693c-.67-.705-1.681-1.004-2.65-1.018-1.757-.021-2.726.404-3.584 1.896-.377.649-.565 1.437-.384 2.162.168.683.628 1.241 1.081 1.785.223.265.447.537.746.711.461.272 1.018.279 1.548.286.405 0 .809.007 1.214.007.202 0 .404 0 .592-.069.168-.063.314-.182.447-.307.662-.6 1.192-1.367 1.394-2.239.203-.871.216-2.566-.404-3.214ZM798.841 194.246c.872-1.374.977-3.549-.048-4.679-1.137-1.248-3.327-1.297-4.519-.105-.907.907-1.346 2.288-1.137 3.55.244 1.534 1.562 1.834 2.894 2.315 1.227.439 2.204-.126 2.81-1.081ZM775.164 213.652c-.146 0-.292-.014-.439-.035l-5.292-.85a2.787 2.787 0 0 1-1.402-.663l-3.828-3.361a2.79 2.79 0 0 1-.949-2.043l-.097-5.097a2.793 2.793 0 0 1 1.548-2.552l5.327-2.643 6.813-3.584a2.783 2.783 0 0 1 3.766 1.171 2.784 2.784 0 0 1-1.172 3.766l-6.875 3.619-3.808 1.882.042 2.099 2.294 2.022 4.052.649 4.421-.732 4.4-2.218 4.156-3.347a2.781 2.781 0 0 1 3.918.419 2.781 2.781 0 0 1-.418 3.918l-4.386 3.536c-.153.125-.321.23-.495.321l-5.042 2.545a2.953 2.953 0 0 1-.802.265l-5.292.878a2.875 2.875 0 0 1-.44.035Z" fill="#111"/><path d="M772.94 208.074c-.042-2.643-.09-5.279-.132-7.922-1.611-.648-3.571-.906-4.958.133-1.388 1.039-2.183 2.824-2.015 4.553.09.941.474 1.883 1.199 2.49.697.585 1.625.794 2.517.99.956.209 2.406-.154 3.389-.244Z" fill="#111"/><path d="M792.954 289.436c-.468.495-1.228.718-2.002.739-1.562.042-3.124.14-4.679.237-3.019.182-6.038.405-9.058.405-6.08 0-10.529.537-16.519.585-1.325.007-9.804-.341-13.828-.516a2.871 2.871 0 0 1-2.656-2.133c-2.099-7.88-9.791-36.623-14.247-52.02-.774-2.677 1.214-5.348 3.996-5.362 2.998-.014 6.185-.147 6.82-.154 4.358-.069 9.044.063 13.353-.648 6.855-1.137 13.912-.237 20.864-.153 1.945.02 3.64 1.338 4.079 3.235.105.46.209.914.321 1.374 2.203 9.351 4.79 18.604 7.363 27.857 1.29 4.645 2.581 9.289 3.829 13.954a488.128 488.128 0 0 1 1.792 6.896c.376 1.499 1.011 2.894 1.032 4.463.007.523-.168.934-.46 1.241Z" fill="#372D26"/><path d="M761.778 233.874a1.72 1.72 0 0 0 1.514-1.813c-.112-1.827-.23-3.647-.363-5.474-.07-.969-.139-1.938-.216-2.907-.077-.97.223-2.741-.997-3.145-.516-.175-1.102-.063-1.625.014-1.339.195-2.685.376-4.024.557a389.433 389.433 0 0 1-12.76 1.479 1.712 1.712 0 0 0-1.451 2.273 721.34 721.34 0 0 1 3.034 8.926 1.702 1.702 0 0 0 1.827 1.164c4.853-.627 10.194-.467 15.061-1.074Z" fill="#F8F3F2"/><path d="M731.794 260.379c.983 2.155 2.922 2.378 5.118 1.639.921-.307 1.674-.97 2.399-1.611 2.559-2.266 3.034-5.084 1.074-8.033-.6-.907-1.395-1.736-2.413-2.113-.753-.279-1.583-.293-2.384-.258-2.169.105-4.631.83-5.488 2.831-.572 1.339.146 1.973.334 3.417.189 1.436.754 2.803 1.36 4.128Z" fill="#AEAEAE"/><path d="M558.125 107.221c-.718-4.281-2.253-8.402-4.212-12.258-2.197-4.317-3.814-8.005-6.687-11.938-2.831-3.87-5.948-7.524-9.365-10.885-7.482-7.35-16.68-11.75-24.532-18.605l-.125.07c-.251-1.332-1.82-3.507-2.043-4.84-1.827-11.03-3.424-25.395-13.549-32.243-5.195-3.514-12.44-4.428-18.381-2.468-1.771.585-3.375 1.47-4.832 2.559-2.113 1.171-4.24 2.12-6.534 1.234-1.583-.614-2.58-2.155-3.808-3.326-1.652-1.576-3.919-2.56-6.199-2.42-2.28.14-4.504 1.485-5.467 3.556-1.164 2.51-.286 5.67 1.702 7.594 1.987 1.925 4.867 2.727 7.635 2.65-2.677.704-5.418 1.443-7.698 3.02-2.28 1.575-4.044 4.197-3.828 6.959.167 2.154 1.625 4.183 3.64 4.957 2.022.774 4.497.21 5.927-1.415.948-1.081 1.436-2.524 2.043-3.842-.216.516-.432 1.032-.641 1.54-1.569 3.822-3.871 11.311-4.819 15.328l-.244-.133a49.738 49.738 0 0 0-14.232 5.467c-4.261 2.44-8.605 3.745-13.263 5.342-3.968 1.366-7.691 4.49-12.084 4.28-3.25-.153-4.568-2.321-5.439-5.201-1.081-3.584 1.457-5.334 2.405-8.723a7.915 7.915 0 0 0 .189-3.431c-.098-.593-.272-1.193-.656-1.646-.725-.864-2.057-1.004-3.124-.634-1.827.627-2.21 1.931-3.619 3.103-1.52 1.269-1.339-5.502-1.311-6.38.049-1.688.028-3.46-.746-4.959-.774-1.499-2.538-2.629-4.149-2.126-1.192.37-1.994 1.499-2.496 2.642a10.812 10.812 0 0 0-.921 4.54c-.892-1.492-3.256-7.175-5.92-5.725-1.29.704-1.694 2.385-1.59 3.85.105 1.464.593 2.9.523 4.371-.774-.48-1.548-.955-2.329-1.436-.704-.432-1.422-.872-2.224-1.067-.802-.195-1.723-.09-2.336.46-.935.837-.837 2.308-.607 3.535.467 2.441 1.688 4.826 2.008 7.239.328 2.461-.516 4.937-.46 7.398.077 3.675.628 7.517 1.032 11.185.683 6.108 3.773 13.444 8.235 17.781 4.54 4.414 8.473 6.5 14.595 7.866 5.056 1.13 10.216.488 15.306 0 4.163-.397 8.34-.523 12.517-.725 2.05-.098 4.902-1.004 6.792.167 2.496 1.555 1.297 5.9 1.283 8.396-.035 8.228.076 16.456.341 24.678.251 7.921.635 15.111-.481 22.941-1.067 7.496-.265 14.205-.488 21.561-.516 16.952-.425 33.917-.767 50.876-.132 6.471 1.499 16.812-1.325 22.753-2.371 4.986-9.065 6.66-11.861 11.485-3.054 5.265-1.248 13.388 4.742 15.857 3.521 1.45 8.249.098 11.959-.321 4.825-.551 9.643-1.22 14.434-2.015 6.575-1.095 6.659-10.271 7.768-15.215 2.531-11.29 2.329-23.451 5.425-34.524 1.416-5.056 1.248-9.763 2.238-14.804.809-4.149 1.646-8.298 2.406-12.461.342-1.876.934-7.991 3.577-7.998 1.311-.007 1.918 1.269 2.378 2.287 1.102 2.433 1.011 5.383 1.241 7.991 1.214 13.911 2.455 27.816 3.696 41.72.725 8.11 1.367 16.227 2.183 24.322.892 8.835 8.856 9.7 16.442 9.637 5.432-.042 12.615 1.918 17.684-.286 2.713-1.178 4.951-3.793 4.979-6.75.021-2.05-.969-3.967-2.057-5.704-2.517-4.037-7.273-7.984-8.166-12.719-1.806-9.553 1.569-18.06 1.514-27.355-.077-12.684 1.701-24.88 1.22-37.488l2.643-6.673c.181-1.799.878-11.059 4.337-9.044.481.279.858.69 1.269 1.067 1.625 1.478 3.745 2.343 5.927 2.622 2.183.279 4.4-.035 6.492-.698 1.234-.39 2.448-.92 3.452-1.729 2.106-1.701 3.082-4.484 3.291-7.182.216-2.762-.46-5.474-.418-8.201.042-2.461.404-4.895 1.394-7.168 1.946-4.456 3.898-8.8 5.265-13.493 2.692-9.309 3.515-19.064 1.904-28.632Z" fill="#303694"/><path d="M537.499 176.193c-.474 0-.942-.119-1.36-.356l-7.475-4.177a2.795 2.795 0 0 1-1.116-1.144l-3.34-6.408-1.813-3.64-2.085.098c-.46.021-.914-.07-1.332-.265l-1.185-.558a2.798 2.798 0 0 1-1.597-2.587l.174-7.405c.014-.537.181-1.06.481-1.507l4.735-6.959 1.764-4.086 1.674-4.01.802-6.471.049-6.652-1.012-7.036-1.896-7.057a2.79 2.79 0 0 1 1.966-3.417 2.792 2.792 0 0 1 3.417 1.967l1.945 7.224c.028.105.049.216.07.328l1.067 7.412c.021.14.028.279.028.419l-.056 7.022c0 .104-.007.216-.021.32l-.871 7.008a2.7 2.7 0 0 1-.196.732l-1.834 4.401-1.882 4.365c-.07.16-.154.313-.251.46l-4.421 6.499-.098 4.205 2.162-.077c1.095-.021 2.106.565 2.594 1.548l2.587 5.202 2.929 5.627 5.885 3.292 4.456-.768 4.065-5.578.767-3.605-.307-5.851a2.79 2.79 0 0 1 2.636-2.935 2.796 2.796 0 0 1 2.936 2.636l.327 6.22c.014.244-.007.488-.055.725l-.963 4.546a2.871 2.871 0 0 1-.474 1.067l-5.083 6.973a2.751 2.751 0 0 1-1.778 1.102l-6.548 1.13c-.154.007-.314.021-.467.021ZM488.387 27.428c-.369-.558-.92-.97-1.61-1.074a2.263 2.263 0 0 0-1.841.579c-.67.628-.942 1.36-.928 2.273.007.446.049.9.251 1.297.481.935 1.709 1.227 2.755 1.095.3-.035.599-.105.85-.265 1.27-.837 1.311-2.706.523-3.905ZM496.255 29.855c-.977 3.716-6.611.592-4.61-2.538.733-1.151 2.783-1.444 3.871-.565.829.67 1.039 1.98.739 3.103Z" fill="#111"/><path d="m452.894 53.068 3.396 5.307 3.584 5.18 3.417 5.286 3.661 5.126 3.863 4.978 3.229 5.44 4.17 4.755 3.472 5.258 3.724 5.083 3.438 5.272 3.5 5.23 3.549 4.756 3.452 4.825 2.908 5.181 3.27 4.944 3.619 4.7 3.829 4.525 3.765 4.589 4.17 4.225.384.021-2.148 3.166-2.19 2.594.656 3.445 3.305.837.739-.788 2.183-.349 1.269 1.527 1.374 3.675 3.898 7.684 1.806.921 7.705 1.185 3.389.07 3.849-3.682 2.085-5.39.112-8.396.258.976 3.256 6.011 2.915 6.199 2.531 6.367 2.183 5.794-.537 6.137-3.612 4.818-6.527 2.657-6.813 1.778-7.064.195-5.502-1.903-5.222-2.601-3.947-4.386-2.524-5.405-2.092-5.606-2.525-5.411-2.866-5.244-2.384-5.474-2.915-5.209-2.81-5.257-2.838-5.244-3.187-5.042-3.089-5.92-3.759-5.509-3.451-5.697-3.647-5.578-3.619-5.593-3.968-5.355-3.647-5.585-3.814-5.356-3.215-5.746-3.452-5.606-3.04-5.85-3.793-5.405-4.003-5.23-3.703-4.497-3.131-4.91M268.134 113.396a2.794 2.794 0 0 1-2.783-2.594l-.383-5.516c-.007-.063-.007-.132-.007-.195l.007-5.523c0-.084.007-.167.014-.251l.502-5.509a2.788 2.788 0 0 1 3.026-2.524 2.79 2.79 0 0 1 2.525 3.026l-.489 5.384-.007 5.299.377 5.418a2.793 2.793 0 0 1-2.587 2.978c-.063.007-.126.007-.195.007ZM497.774 38.202c-.886 1.778-3.096 2.928-5.551 1.373-4.532-2.873-.411-8.298 3.877-6.178 2.183 1.08 2.469 3.194 1.674 4.805ZM461.315 39.052c-.181 0-.355-.014-.536-.056a2.797 2.797 0 0 1-2.204-3.277l1.45-7.392c.077-.39.238-.767.475-1.094l3.34-4.637-.042-2.406a2.811 2.811 0 0 1 .969-2.169l2.364-2.029a2.786 2.786 0 0 1 3.933.3 2.785 2.785 0 0 1-.3 3.933l-1.367 1.178.035 2.016a2.79 2.79 0 0 1-.523 1.68l-3.521 4.895-1.332 6.792a2.812 2.812 0 0 1-2.741 2.266Z" fill="#111"/><path d="M487.704 44.54c-1.06 0-2.127-.146-3.152-.446a2.799 2.799 0 0 1-1.903-3.459 2.795 2.795 0 0 1 3.458-1.904c2.511.733 5.502-.362 6.952-2.538a2.795 2.795 0 0 1 3.871-.774 2.795 2.795 0 0 1 .774 3.87c-2.197 3.299-6.088 5.251-10 5.251ZM447.063 275.706a2.788 2.788 0 0 1-2.524-3.975l3.243-6.896a2.786 2.786 0 0 1 3.709-1.339 2.787 2.787 0 0 1 1.339 3.71l-3.242 6.896a2.79 2.79 0 0 1-2.525 1.604ZM436.648 276.578c-.328 0-.662-.056-.983-.182a2.79 2.79 0 0 1-1.625-3.598l2.908-7.698a2.791 2.791 0 1 1 5.223 1.973l-2.908 7.699a2.801 2.801 0 0 1-2.615 1.806ZM506.108 274.779a2.788 2.788 0 0 1-2.587-1.744l-2.504-6.171a2.793 2.793 0 0 1 1.534-3.633 2.789 2.789 0 0 1 3.633 1.541l2.504 6.171a2.791 2.791 0 0 1-1.534 3.633 2.898 2.898 0 0 1-1.046.203ZM514.285 274.465a2.783 2.783 0 0 1-2.712-2.162l-1.493-6.471a2.795 2.795 0 0 1 2.092-3.347 2.795 2.795 0 0 1 3.347 2.092l1.493 6.471a2.795 2.795 0 0 1-2.092 3.347c-.216.042-.426.07-.635.07ZM524.018 274.06c-.956 0-1.89-.495-2.413-1.38l-4.128-7.05a2.787 2.787 0 1 1 4.811-2.817l4.128 7.049a2.787 2.787 0 0 1-2.398 4.198Z" fill="#111"/><path d="M724.264 41.995c-10.467-6.185-8.765-28.067-16.478-37.76-2.866-3.605-5.027-2.803-9.19-3.96-3.173-.879-6.632.446-9.114 2.608-2.482 2.161-3.054 3.926-4.735 6.757-4.205 7.084-7.698 13.59-11.903 20.682-10.843.376-21.784-.704-32.62.3-1.165-2.218-1.855-3.194-3.236-5.286-2.649-4.023-2.873-8.653-5.934-12.475-2.343-2.922-4.902-5.53-8.5-6.854-7.287-2.685-14.065 1.422-17.649 7.816-5.355 9.554-6.562 20.815-8.849 31.345-2.698 2.496-5.662 6.213-8.361 8.71-13.632 12.6-15.006 33.289-12.391 50.547 1.925 12.663 6.82 25.076 15.25 34.831 2.064 2.392 4.386 5 7.001 6.806 2.392 1.652 5.474 2.705 8.006 4.149 6.666 3.8 15.48 5.564 22.941 6.875 21.094 3.703 42.934 3.222 64.285 2.42 5.481-.209 11.429.927 16.694-.935 11.045-3.904 21.819-9.141 30.465-17.195 7.573-7.057 12.385-16.373 13.131-26.575.481-6.52 2.42-12.363 2.51-18.946.209-15.947-5.167-37.801-19.964-46.545-2.671-1.576-8.695-5.74-11.359-7.315Z" fill="#EBB4C9"/><path d="M667.506 93.073c-5.969 4.86-11.979-7.454-2.608-8.347 2.288-.216 3.138 1.785 3.905 3.522.44.997.551 2.168.105 3.158-.307.67-.837 1.2-1.402 1.667Z" fill="#111"/><path d="M651.378 102.766c-.216 0-.439-.028-.648-.077l-3.605-.865a2.794 2.794 0 0 1-2.064-3.36 2.797 2.797 0 0 1 3.361-2.065l3.179.767 2.901-.216 2.685-.976 2.434-2.148c.118-.104.244-.195.376-.279l3.194-1.98a2.799 2.799 0 0 1 3.152.14l2.914 2.203 3.431 1.109.126.041 3.277 1.235 3.27-.21 3.808-.83a2.79 2.79 0 1 1 1.185 5.454l-4.016.878c-.14.028-.279.049-.419.056l-4.086.258a2.727 2.727 0 0 1-1.157-.174l-3.773-1.423-3.814-1.234a2.886 2.886 0 0 1-.823-.425l-1.764-1.332-1.367.85-2.65 2.343c-.258.23-.565.412-.892.53l-3.536 1.29c-.237.084-.488.14-.746.161l-3.723.279h-.21ZM643.629 84.364a2.786 2.786 0 0 1-2.769-2.49 2.79 2.79 0 0 1 2.469-3.075l6.701-.725c.049-.007.098-.007.147-.014l6.722-.377c1.555-.097 2.852 1.088 2.942 2.63a2.791 2.791 0 0 1-2.629 2.942l-6.652.37-6.631.718c-.098.02-.196.02-.3.02ZM685.152 83.924h-.084l-6.338-.188a2.19 2.19 0 0 1-.307-.028l-6.29-.892a2.79 2.79 0 0 1-2.371-3.152 2.792 2.792 0 0 1 3.152-2.371l6.137.871 6.185.189a2.794 2.794 0 0 1 2.705 2.873 2.793 2.793 0 0 1-2.789 2.698Z" fill="#111"/><path d="M721.609 189.107c-1.708-2.029-5.425-4.358-8.249-3.766-1.025.216-2.134 1.032-3.242 1.346-1.109.307-2.329.446-3.124 1.381-1.569 1.848-1.36 6.589-.872 8.772.586 2.664 2.496 5.202 5.167 5.767 3.696.774 8.326 1.171 10.753-2.211 2.371-3.305 2.127-8.242-.433-11.289ZM662.749 203.004c-2.977 3.633-8.102 5.404-12.53 3.333-2.288-1.067-3.703-3.493-4.198-5.962-.502-2.475-.851-4.832.014-7.203.899-2.468 3.354-4.1 5.906-4.728 5.334-1.304 13.605 1.311 13.298 8.194-.112 2.405-1.046 4.609-2.49 6.366Z" fill="#EBB4C9"/><path d="M619.836 247.96c-.07 0-.14 0-.216-.007a2.798 2.798 0 0 1-2.573-2.992l.446-5.885-.091-5.892c0-.126.007-.251.021-.377l.711-5.948a2.777 2.777 0 0 1 1.144-1.931l4.435-3.187 4.114-3.264 7.161-8.165a2.79 2.79 0 0 1 3.933-.265 2.79 2.79 0 0 1 .265 3.933l-7.336 8.361c-.111.125-.23.237-.362.341l-4.358 3.466-.105.084-3.493 2.51-.544 4.546.09 5.837c0 .084 0 .167-.007.251l-.453 6.011a2.796 2.796 0 0 1-2.782 2.573Z" fill="#111"/><path d="M659.289 158.293a120.867 120.867 0 0 0 7.922 7.328c1.303 1.102 3.221 1.123 4.532.021 3.989-3.347 7.922-7.015 11.171-10.982" fill="#EBB4C9"/><path d="M753.983 149.29a1.185 1.185 0 0 0-.892.704c-.175.405-.112.872.146 1.228 1.381 1.862 2.719 3.751 4.086 5.62.244.335.544.725.865 1.13 1.018-3.389 2.134-6.464 3.842-9.484-2.789.182-5.878.447-8.047.802Z" fill="#111"/><path d="M793.871 252.339c-4.735 3.842-13.556-.593-16.29 6.032-.829 2.008-.097 4.435 1.409 6.004 3.835 4.009 15.836 4.63 19.699.341" fill="#AEAEAE"/><path d="M788.688 270.699c-.112 0-.216-.007-.321-.021l-6.834-.795a2.824 2.824 0 0 1-1.562-.711l-4.574-4.191a2.685 2.685 0 0 1-.244-.258l-1.485-1.757a2.79 2.79 0 0 1-.426-2.922l2.859-6.499a2.783 2.783 0 0 1 2.378-1.659l7.475-.467 5.007-.921 3.842-3.368 3.703-4.595 3.835-4.84a2.793 2.793 0 0 1 3.919-.453 2.793 2.793 0 0 1 .453 3.919l-3.849 4.853-3.863 4.798a2.297 2.297 0 0 1-.335.349l-4.602 4.037a2.803 2.803 0 0 1-1.332.648l-5.927 1.095a2.738 2.738 0 0 1-.335.042l-5.948.37-1.478 3.354.251.293 3.779 3.465 5.432.635 6.025-1.478 5.816-2.141 4.63-4.107 4.491-4.979a2.788 2.788 0 1 1 4.142 3.737l-4.596 5.091a3.255 3.255 0 0 1-.223.216l-5.139 4.56a2.79 2.79 0 0 1-.886.53l-6.457 2.378a3.633 3.633 0 0 1-.3.091l-6.666 1.638a3.996 3.996 0 0 1-.655.063ZM954.537 106.19c-.126 0-.258-.007-.391-.028l-6.255-.872c-.027-.007-.055-.007-.083-.014l-6.269-1.074a2.772 2.772 0 0 1-1.102-.446l-5.794-3.954a2.529 2.529 0 0 1-.572-.523l-4.407-5.32a2.9 2.9 0 0 1-.488-.858l-2.302-6.583a2.704 2.704 0 0 1-.153-1.025l.265-7.063c.014-.286.07-.572.167-.844l2.399-6.618c.091-.258.223-.495.384-.718l4.191-5.62a2.798 2.798 0 0 1 3.904-.572 2.792 2.792 0 0 1 .572 3.905l-3.947 5.293-2.112 5.815-.23 6.102 1.959 5.606 3.835 4.63 4.965 3.396 5.627.962 6.213.865a2.794 2.794 0 0 1 2.378 3.145 2.78 2.78 0 0 1-2.754 2.413ZM924.137 167.462c-.049 0-.098 0-.147-.007a2.789 2.789 0 0 1-2.642-2.928l.32-6.172c0-.035.007-.069.007-.104l.53-5.948-.439-5.962a3.908 3.908 0 0 1 0-.405l.425-5.941-.655-5.913c-.007-.049-.007-.098-.014-.147l-.349-6.129-.53-6.115a2.79 2.79 0 0 1 5.558-.482l.537 6.158c0 .028.007.056.007.083l.348 6.095.67 6.094c.021.168.021.335.007.509l-.432 5.99.446 5.983c.014.154.007.3 0 .454l-.544 6.122-.321 6.122a2.786 2.786 0 0 1-2.782 2.643ZM934.867 168.787h-.048a2.789 2.789 0 0 1-2.741-2.838l.098-5.697-.544-5.683a2.432 2.432 0 0 1-.007-.391l.251-5.634-.635-5.606c-.014-.133-.021-.265-.014-.398l.175-5.711-.579-7.349a1.958 1.958 0 0 1 0-.405l.502-7.517a2.797 2.797 0 0 1 2.971-2.594 2.789 2.789 0 0 1 2.594 2.971l-.489 7.308.572 7.3c.007.098.014.203.007.307l-.174 5.662.641 5.628c.014.146.021.293.014.439l-.251 5.662.537 5.648c.007.105.014.21.014.314l-.104 5.851a2.791 2.791 0 0 1-2.79 2.733Z" fill="#111"/></svg>