<svg width="2268" height="462" fill="none" xmlns="http://www.w3.org/2000/svg"><path d="m413.006 441.554 5.13-.29 5.14-.12 5.13.16h5.13l5.14-.11 5.13.13 5.13-.28 5.14.31 5.13-.06 5.13.05 5.13-.47 5.14.5 5.13-.34 5.14.47 5.13-.71 5.14.21 5.13-.16 5.13.06 5.14.44 5.13-.01 5.13.2 5.13-.17 5.13-.36 5.13.32 5.13-.52 5.13.23 5.13-.25 5.13.73 5.13-.42 5.13-.2 5.13.68 5.14-.47 5.13.11 5.13-.38 5.13.89 5.14.01 5.13-.78 5.13.64 5.13.08 5.14-.56 5.13.12 5.14-.04 5.13-.15 5.13.73 5.14.08 5.13-.64 5.13.64 5.14-.81 5.13.47 5.14-.03 5.13-.08 5.14.31 5.13-.63 5.14.41 5.13.06 5.14-.3 5.13.64 5.14-.66 5.13.59 5.14-.66 5.13.74 5.14-.24 5.13-.65 5.14.39 5.13.15 5.14.01 5.13.31 5.14-.55 5.13-.01 5.14.61 5.13-.41 5.14.54 5.13-.6 5.14.18 5.13.38 5.14-.04 5.13-.71 5.14.47 5.13.26h5.14l5.13-.79 5.12.63 5.13-.32 5.13-.2 5.13.84 5.13-.15 5.13.13 5.13-.59 5.13-.24 5.13.59 5.13-.32 5.13.08 5.13.13 5.13.36 5.14-.49 5.13.08 5.13-.01 5.13.23 5.13.02 5.13.07 5.14-.42 5.13.38 5.13.14 5.13.15 5.14-.38 5.13-.56 5.13.6 5.14-.27 5.13-.18 5.13.17 5.14.49 5.13-.59 5.14.57 5.13-.73 5.134.15 5.14.77 5.13-.71 5.13.56 5.14-.42 5.13.55 5.13-.06 5.13-.18 5.13.32 5.14.05 5.13-.43 5.13.05 5.14.3 5.13-.05 5.14-.61 5.13.65 5.14-.75 5.13.73 5.14-.03 5.13-.58 5.14.32 5.14-.11 5.13.19 5.14-.39 5.14.65 5.14-.29 5.14-.22 5.14-.01 5.13.29 5.14.35 5.14-.37 5.14.31 5.14-.64 5.14.64 5.14.01 5.14.1 5.14-.23 5.14.32 5.14-.07 5.14-.06 5.14-.54 5.14.48 5.14-.5 5.15.4 5.14-.5 5.14.48 5.14-.23 5.14-.29 5.14.84 5.15-.53 5.14-.26 5.14.36 5.14.28 5.15-.48 5.14.2 5.14-.31 5.13.27 5.14-.32 5.14.95 5.14-.46 5.13.24 5.14-.12 5.14.09 5.13.28 5.14-.04h5.14l5.13-.1 5.14.12 5.14-.3 5.13.05 5.14.11 5.14.01 5.13-.33 5.14-.3 5.14.02 5.13.09 5.14.51 5.14-.71 5.13.15h5.14l5.14.28 5.13.37 5.14.14 5.13-.08 5.14-.17 5.13-.05 5.14.3 5.13-.2 5.14-.14 5.14-.48 5.13.73 5.14-.4 5.13.54 5.14-.84 5.14.31 5.14-.18 5.13.25 5.14.52 5.14-.47 5.13.41 5.14-.02 5.14.19 5.13-.53 5.14.21 5.14.14 5.13.19 5.14-.21 5.14-.02 5.14-.67 5.13.11 5.14.19 5.14.23 5.13-.34 5.14.72 5.14.02 5.13-.07 5.14-.59 5.14.18 5.13-.17 5.14.17 5.14.42 5.13-.71 5.14.1 5.13.04 5.14.05 5.13.49 5.14-.77 5.13.71 5.14.14 5.14.03 5.13.05 5.14-.11 5.14-.15 5.14.31 5.14-.36 5.14-.16 5.14-.3 5.13.53 5.14.18 5.14-.02 5.13-.38 5.14-.2 5.13.17 5.13.24 5.14-.3 5.13-.14 5.14.89 5.13-.62 5.13.05 5.14.36 5.13-.29 5.13.17 5.13-.42 5.13.14 5.14-.27 5.13.87 5.13-.81 5.13.3 5.13.47 5.13-.15 5.16-.11 5.13-.84 5.16-.06 5.12-.75 5.16-.19 5.15-.29 5.13-.57 5.17-.13 5.12-.74 5.17-.1 5.15-.46 5.03-1.44 5.2-.03 5.02-1.34 5.1-.77 5.1-.8 5.21-.11 4.97-1.56 5.22-.15 4.95-1.61 5.14-.63 5-1.35 5.14-.69 4.85-1.92 5.14-.74 4.8-2.01 4.92-1.57 5-1.3 4.92-1.54 4.92-1.57 4.94-1.54 4.91-1.62 4.59-2.43 4.68-2.18 4.94-1.61 4.52-2.52 4.82-1.94 4.28-2.94 4.48-2.56 4.55-2.48 4.01-3.29 4.7-2.29 3.66-3.74 4.51-2.61 3.49-3.87 4.41-2.82 3.09-4.23 3.98-3.33 3.24-4.04 3.02-4.18 3.51-3.82 3.03-4.2 2.62-4.46 2.35-4.61 2.68-4.44 1.4-5.03 2.23-4.66 2.04-4.75.96-5.1 1.71-4.88 1.52-4.96.6-5.14 1.11-5.09.6-5.17.19-5.21-.48-5.2-.06-5.17.14-5.21-.74-5.15-.46-5.18-1.36-5.03-.87-5.12-1.01-5.12-2.02-4.81-2.19-4.72-1.94-4.79-2.11-4.73-1.92-4.86-2.81-4.38-2.71-4.45-3.61-3.79-3.48-3.82-3.24-4.06-3.75-3.58-3.73-3.63-4.03-3.27-3.94-3.39-4.4-2.8-4.04-3.28-4.52-2.58-4.46-2.63-4.14-3.2-4.84-1.96-4.41-2.81-5.05-1.38-4.67-2.33-5.04-1.32-5.15-.79-4.99-1.38-5.08-1.15-5.18-.47-5.2.02-5.18.18-5.18-.13-5.16.37-5.25-.27-5.03 1.59-5.2.38-5.14.87-5.02 1.36-4.97 1.57-5.03 1.31-4.87 1.84-5.05 1.35-4.66 2.36-5.03 1.44-4.5 2.72-5.11 1.29-4.48 2.73-4.86 1.86-4.59 2.47-5.09 1.38-4.47 2.73-4.63 2.38-4.9 1.78-4.83 1.92-4.8 1.67-4.85 1.5-4.88 1.37-4.74 1.89-4.88 1.43-4.97 1.16-5.05.62-5.03.84-5.09.31-5.09.2-5.09-.01-5.04-.95-5.13.27-4.94-1.42-5.1-.36-4.9-1.41-4.72-1.9-4.77-1.71-4.76-1.72-4.78-1.72-4.45-2.45-4.34-2.63-4.42-2.47-4.66-2.14-3.69-3.58-4.44-2.55-3.9-3.26-3.98-3.17-3.63-3.95-4.16-3.34-4.57-2.78-4.33-3.11-3.97-3.61-4.75-2.49-4.59-2.7-4.55-2.76-4.43-2.97-4.22-3.32-4.76-2.42-4.47-2.58-4.41-2.69-4.69-2.18-4.48-2.56-4.73-2.07-4.6-2.33-4.51-2.53-4.67-2.2-4.62-2.31-4.77-1.99-5.01-1.38-4.76-1.98-4.63-2.35-4.85-1.76-4.92-1.57-4.9-1.63-4.89-1.66-5.11-.92-4.99-1.3-4.97-1.35-4.91-1.64-5-1.28-5.18-.44-5.04-1.07-4.99-1.39-5.07-1.01-5.13-.67-5.14-.48-5.18-.12-5.11-.69-5.17.06-5.12-1.11-5.17.09-5.16.04-5.15.64-5.17-.52-5.17.05-5.1 1.12-5.15.26-5.14.37-5.07 1.05-5.21.01-5.06 1.07-4.97 1.43-5.1.66-4.93 1.48-5.06.85-5.01 1.08-5.09.78-4.85 1.76-5.02 1.07-4.87 1.71-5.15.54-4.94 1.4-4.91 1.51-5.01 1.1-4.98 1.21-4.93 1.49-5.11.62-5.09.73-4.88 1.77-5.05.88-5.15.35-5.08.69-5.03 1.03-5.1.65-5.15-.06-5.13.08-5.1.4-5.12-.04-5.13.7-5.11-.65-5.09-.61-5.18.26-5.07-.88-5.08-.76-4.92-1.56-5.1-.71-4.82-1.82-4.84-1.67-5.07-1.05-4.5-2.57-4.83-1.59-4.48-2.37-4.5-2.34-4.13-2.96-4.26-2.74-4.23-2.78-4.27-2.73-4.36-2.62-4.13-2.94-3.73-3.51-4.3-2.69-4.03-3.11-4.57-2.26-4.29-2.7-4.31-2.7-4.81-1.71-4.51-2.38-5.04-1.27-4.79-1.97-5.02-1.27-4.79-2.03-4.96-1.48-4.98-1.41-5.21-.45-4.94-1.59-5.16-.57-5.01-1.39-5.13-.64-5.19-.21-5.14-.48-5.14-.56-5.14-.42-5.13-.76-5.16-.37-5.17-.29-5.17-.15-5.17.59-5.18-.6-5.16.62-5.17-.13-5.14.83-5.17.15-5.17.1-5.12.82-5.21-.13-5.09.99-5.08.92-5.16.26-5.07.95-5.12.53-5 1.36-5.15.42-5.13.55-5.074.87-4.94 1.6-5.11.68-5.01 1.19-4.92 1.59-4.98 1.25-5.08.91-4.88 1.64-5.11.83-4.96 1.38-5.02 1.21-4.77 1.98-5.01 1.23-4.84 1.77-4.76 1.97-4.88 1.65-4.8 1.86-4.71 2.07-4.61 2.3-4.73 2.01-4.91 1.61-4.69 2.12-4.63 2.26-4.77 1.96-4.37 2.77-4.41 2.66-4.64 2.22-4.56 2.4-4.64 2.26-4.56 2.41-4.21 2.98-4.29 2.75-4.22 2.85-4.39 2.58-4.12 2.99-4.52 2.39-3.89 3.35-4.52 2.39-4.41 2.56-3.78 3.51-4.27 2.76-4.07 3.07-4.45 2.5-3.96 3.23-4.44 2.53-4.06 3.08-4.16 2.94-4.57 2.31-3.83 3.44-4.53 2.38-4.27 2.76-4.28 2.76-4.39 2.58-4.46 2.45-4.31 2.7-4.36 2.62-4.23 2.86-4.61 2.16-4.53 2.31-4.2 2.96-4.59 2.22-4.48 2.42-4.65 2.08-4.94 1.42-4.53 2.36-4.71 1.93-4.81 1.67-4.69 2.02-4.92 1.32-5.01 1.29-4.93 1.52-4.95 1.52-5.07 1.01-5.04 1.13-5.07.99-5.17.43-5.02 1.38-5.16.38-5.11.86-5.18.13-5.17.01-5.12.87-5.18-.26-5.15.47-5.16.05-5.16.66-5.17-.85-5.16-.07-5.18.53-5.17-.11-5.12-1.02-5.2.36-5.12-.81-5.11-.75-5.23.26-5.1-.88-5.12-.71-5.09-.88-5.12-.73-5.11-.73-5.06-1.08-5.07-.98-5.17-.53-4.87-1.89-5.07-1.01-4.93-1.51-5.02-1.22-4.98-1.49-5.01-1.35-4.94-1.66-5.05-1.25-5.05-1.21-5.05-1.22-5.13-.92-5.1-.96-5.14-.79-5.12-.91-5.12-.89-5.18-.44-5.12-.88-5.09-1.21-5.2-.22-5.22.03-5.16-.49-5.19-.16-5.19-.27-5.18-.21-5.2-.35-5.19.49-5.21-.15-5.13 1.14-5.23-.22-5.09 1.16-5.13.79-5.18.47-5.11.94-5.04 1.27-4.94 1.65-5.2.66-4.86 1.86-5.13 1.06-4.82 1.98-4.84 1.91-4.47 2.74-4.76 1.82-4.35 2.63-4.67 2.07-4.25 2.8-4.34 2.67-4.05 3.08-3.97 3.18-4.08 3.04-3.81 3.38-3.76 3.45-3.12 4.06-3.37 3.8-3.79 3.46-2.89 4.21-2.59 4.4-3.48 3.8-2.17 4.64-2.88 4.22-2.01 4.69-2.08 4.64-2.26 4.56-2.18 4.61-1.23 4.97-1.95 4.72-1.1 4.98-1.2 4.94-1.05 4.98-1.18 4.97.03 5.13-1.16 5.01-.16 5.1-.22 4.89-.32 4.89.71 4.89-.02 4.9.88 4.82.3 4.9 1.53 4.66 1.88 4.49 1.98 4.7 2.56 4.43 2.87 4.21 2.9 4.2 3.09 4.07 2.91 4.28 3.82 3.45 3.92 3.32 3.59 3.69 4.05 3.16 4.1 3.1 4.59 2.37 4.22 2.91 4.29 2.82 4.72 2.04 4.47 2.53 4.71 2.03 4.91 1.51 4.57 2.41 4.98 1.27 4.76 1.99 5.07.9 5 1.17 4.94.97 5.07.07 4.98.63 4.98.7 5.03.16 5.01.32 4.99.83 5.04-.41 5.02.12 5.03.03 5.02.02 5.03.44 5.02-.34 5.03-.07 4.99-.93 5.06.54 5-.52 5.05.22 4.99-.67" fill="#305DCE"/><path d="M1439.01 160.054c9.4 4.26 26.24 13.05 34.83 18.85 41.58 28.08 39.9 110.92-4.66 136.21-21.04 11.94-40 12.25-63.71 12.18-26.1-.07-52.2.36-78.3.35h-47.08c-3.02 0-6.39-.3-9.75-.45-5.48-.25-9.77-4.8-9.78-10.28-.18-66.6-1.88-133.53-1.11-200.3.36-31.37 1.01-62.74 1.11-94.11.02-4.89 3.76-8.96 8.63-9.35 23.63-1.88 47.43.67 71.07 1.32 11.66.32 23.33.05 34.99.01 17.23-.06 34.7 2.43 50.99 8.14 12.12 4.25 23.97 14.92 33.32 23.61 8.76 8.14 12.45 20.32 14.29 31.78 3.25 20.26 4.8 45.62-9.99 62.29-7.05 7.94-16.11 13.82-24.55 20.13" fill="#303694"/><path d="M1303.55 150.994h-.16l-9.8-.4c-.38-.02-.76-.09-1.12-.21l-9.32-3.15c-.21-.07-.41-.16-.6-.26l-8.65-4.62c-.18-.1-.36-.21-.53-.34l-7.79-5.9c-.33-.25-.62-.55-.86-.89l-7.28-10.34c-.9-1.28-.97-2.98-.18-4.33a3.993 3.993 0 0 1 3.87-1.95l8.35.89 7.64-.49 7.76-1.87 7.76-2 7.17-2.64 4.56-2.97a3.991 3.991 0 0 1 5.53 1.17 4 4 0 0 1-1.17 5.53l-4.94 3.21c-.25.16-.52.3-.8.4l-7.79 2.86c-.12.05-.25.09-.38.12l-8.02 2.06-8.16 1.96c-.22.05-.45.09-.68.1l-8.32.54c-.2.01-.39.01-.59-.01l1.84 2.62 7.04 5.33 8.08 4.32 8.46 2.86 9.07.37 9.06-.33 8.84-2.78c2.11-.66 4.35.51 5.02 2.61.66 2.11-.51 4.35-2.61 5.02l-9.35 2.94c-.34.11-.7.17-1.05.18l-9.75.36c-.05.03-.1.03-.15.03Z" fill="#000"/><path d="M1194.36 256.914c-3.68-1.68-7.34-3.43-11.08-4.97-6.65-2.75-13.55-5.27-19.88-8.71-3.22-1.75-6.6-2.83-9.93-4.38-3.7-1.73-8.27-3.73-12.19-5.4a5.82 5.82 0 0 1-2.17-1.6c-1.42-1.67-4.16-4.93-5.63-6.94-1.96-2.68-3.88-5.39-5.86-8.06-.38-.51-.46-1.18-.21-1.76.23-.53.71-.92 1.28-1.01 5.84-.95 16.32-1.46 19.88-1.61.78-.03 1.56.14 2.26.49 4.14 2.09 8.88 4.07 13.03 5.94 3.99 1.79 7.73 4.11 11.97 5.35 5.02 1.47 9.54 4.54 14.47 6.42 2.39.91 4.59 2.19 6.83 3.41 2.1 1.15 4.45 1.88 6.65 2.89" fill="#F8F3F2"/><path d="M987.206 225.114c-8.02.01-16.04.01-24.06.02-4.79 0-9.77.26-14.5.88-4.89.64-8.931 3.27-13.341 5.53-2.82 1.45-4 3.53-6.2 5.57a17.823 17.823 0 0 0-4.669 7.11c-2.55 7.2-6.3 13.4-8.16 20.8a767.071 767.071 0 0 1-7.101 26.31c-4.12 2.86-9.319 3.5-13.419 6.23-7.39 4.92-9.751 13.79-10.151 22.19-.39 8.36-.309 19.35 5.021 26.29 3.97 5.16 11.059 6.82 17.169 7.76 7.67 1.19 15.711.75 23.531 1.17 12.57.69 40.09.84 52.68 1.08" fill="#E37B3D"/><path d="M973.576 344.314c-.54 18.9-1.09 37.79-1.63 56.69-.27 9.45-.53 18.9-.81 28.36-.17 5.4-3.17 11.55-5.79 16.16-2.3 4.06-4.56 8.38.24 12.29 1.14.92 2.48 1.55 3.9 1.94 4.94 1.35 10.39 1.82 15.26.07 7.15-2.57 8.99-8.49 10.16-15.29 1.84-10.68 2.67-21.51 4.76-32.15 2.784-14.1 6.564-27.89 10.304-41.76.45-1.68 2.85-1.65 3.26.04 3.32 13.67 6.44 27.4 8.65 41.3 1.32 8.3 2.33 16.64 3.66 24.93 1.03 6.43 1.36 15.69 7 20.22 3.79 3.03 8.76 3.5 13.43 3.49 4.5-.02 11.62 1.5 15.02-2.44 3.41-3.96 1.22-10.51-2.49-13.3-8.65-6.52-7.05-17.33-7.46-27-.48-11.24-.67-22.49-.44-33.74.24-11.95-1-24.03-.11-36.06" fill="#EBB4C9"/><path d="M1060.71 267.004c-4.84-15.38-17-30.39-28.31-41.59l-6.83.82c-5.7 3.95-11.4 7.91-17.1 11.86-.3.21-.61.42-.97.45-.5.05-.96-.27-1.37-.57-6.324-4.63-12.644-9.26-18.964-13.89l-18.13 5.81c-13.29 9.73-22.54 26.79-25.52 42.77-3.05 16.34 3.03 33.94 18.66 41.17-2.97 6.09-4.35 12.64-4.44 19.42-.05 3.86 2.34 7.81 4.09 11.25 1.05 2.07 2.33 4.19 4.39 5.24 5.02 2.56 11.13 1.58 16.52 2.02 18.534 1.51 36.974 1.44 55.704.94 4.36-.12 8.72-.23 13.08-.35 5.1-.13 8.68-6.85 10.58-10.79 3.04-6.3 2.05-13.07-.28-19.6 1.67 1.1 4.75-2.88 6.22-4.24 6.75-6.26 9.41-21.4 11.97-29.66" fill="#000"/><path d="M963.066 228.824c13.94 9.23 24.94 25.23 28.94 43.23l-15.15 1.04c-2.39-7.92-7.69-14.35-11.38-21.56-3.18-6.2-8.68-13.27-15.26-16.04M1048.19 223.664c5.65 6.92 12.67 13.59 17.23 21.4 4.37 7.51 9.07 17.2 10.6 25.99l-15 1c-6.61-15.16-17.14-32.79-28.77-43.76" fill="#E37B3D"/><path d="M1002.16 243.364c-10.784-.11-21.044-1.26-31.474-3.37-7.7-1.55-17.14-1.09-20.72-9.78-2.87-6.97 1.26-11.54 7.72-13.73 5.21-1.77 13-.39 18.53-.41 17.41-.07 34.744-.5 52.144-.14 6.64.14 13.17-1.24 19.75-.3 1.47.21 2.94.5 4.26 1.18 5.31 2.72 5.71 7.79 2.87 12.56-3.56 5.98-9.5 7.82-15.87 9.65-6.58 1.89-13.02 4.01-19.78 4.93" fill="#000"/><path d="M1780.37 176.144c-8.96-10.05-20.34-17.38-31.64-24.52-14.21-8.96-30.93-13.34-47.53-14.96-18.52-1.81-37.35-1.33-55.77 1.28-17.67 2.51-31.83 9.96-47.43 18.26a116.032 116.032 0 0 0-37.49 31.7c-16.81 21.86-29.96 46.95-36.83 73.73-6.92 27.01-1.53 56.88 5.53 83.61 6.14 23.25 19.8 47.37 36.31 64.71 7.67 8.06 16.54 14.79 25.49 21.34 17.78 13.04 40.05 21.55 61.61 24.75 23.25 3.45 46.31 5.28 69.46-.42 14.92-3.68 29.76-8.75 42.59-17.4 27.23-18.36 47.66-59.47 52.48-93.07.58-4.05-2.71-7.62-6.79-7.38-13.05.78-27.04-.39-39.34.27-13.82.75-26.79-.28-40.41-1.44-4.09-.35-7.96 2.13-9.18 6.05-11.03 35.64-61.63 32.16-85.76 9.82-2.56-2.37-5.13-4.82-6.86-7.85-3.47-6.06-3.43-17.91-4.35-24.95-.99-7.59-1.2-15.28-1.02-22.93.07-2.98 2.6-5.28 5.57-5.14 31.23 1.52 62.54 1.07 93.77-.33 18.87-.85 37.74.52 56.59 1.29 7.11.29 14.22.5 21.33.47 3.51-.01 7.02-.08 10.53-.23 2.25-.09 3.23-.1 4.9-1.63 3.52-3.22 2.7-9.34 2.8-13.56.18-7.62-.13-15.25-1.04-22.82-1.66-13.72-5.4-27.15-11.21-39.7-5.71-12.31-13.32-23.65-22.02-34.05-1.42-1.63-2.84-3.28-4.29-4.9Z" fill="#EBB4C9"/><path d="M1491.07 441.324c29.01 2.61 58.73 1.58 87.82 1.29-9.17-15.24-8.24-33.9 1.12-49.05-35.28-2.18-71.33-5.06-106.32.65M1460.98 375.364l111.91.01-.21.68c-5.46-11.31-5.43-25.59.08-36.87l-.23-1.13-96.07 2.47" fill="#F8F3F2"/><path d="M1769.97 93.984c1.65-1.99 1.13-4.97-1.09-6.3-2.57-1.55-4.98-3.39-7.37-5.22-23.33-17.89-48.67-32.71-71.99-50.56-8.6-6.58-17.02-10.32-26.45-2.67-26.91 21.84-54.1 43.35-81.55 64.5-1.97 1.52-2.48 4.29-1.15 6.39 2.03 3.21 4.07 5.78 7.09 8.98 3.2 3.38 6.41 6.76 9.61 10.14 2.8 2.96 5.47 6.29 9.09 8.29 1.56.87 3.83 1.86 5.63 1.39.97-.25 2.01-1.07 2.85-1.6 5.45-3.44 10.38-7.78 15.24-11.98 5.21-4.51 10.12-9.43 15.5-13.74 9.74-7.81 17.53-17.99 27.62-25.19 1.37-.98 33.3 23.52 36.65 25.97 10.25 7.47 19.22 15.48 29.78 22.14a4.52 4.52 0 0 0 5.95-1.03c5.29-6.69 18.36-22.01 24.59-29.51Z" fill="#EBB4C9"/><path d="M941.646 340.074c-.48 13.59-1 27.18-1.56 40.76a3.152 3.152 0 0 0 3.11 3.28c2.78.05 5.68.05 8.44-.13 1.68-.11 3-1.47 3.11-3.15.66-10.36 1.42-20.03 1.14-30.55M956.186 336.194c15.56-6.89 30.88-27.86 35.82-44.14l-16-4c-6.41 15.15-21.51 32.09-35.91 40.03M652.936 454.054c-7.1-16.64-13.42-39.42-21.42-55.76-4.41-9-6.45-18.44-9.94-27.91-5.36-14.53-9.41-29.53-14.25-44.36-11.25-34.42-21.33-69.2-32.42-103.67-3.75-11.67-7.5-23.4-11.02-35.06-2.45-8.14-5.16-16.2-8.05-24.2-1.31-3.63-2.29-6.46-5.86-8.46-4.89-2.74-11.1-1.85-16.46-1.96-8.45-.17-16.91-.11-25.36.04-16.56.3-33.12.98-49.68 1.03l-31.58.09c-9.37.03-17.01 1.09-22.13 9.8-3.95 6.73-5.13 14.76-8.03 21.94-5.22 12.87-10.05 25.96-13.17 39.52-6.06 26.35-15.6 51.52-23.8 77.25-8.41 26.4-17.53 52.57-26.46 78.8-4.53 13.28-9.01 26.58-13.33 39.92-1.83 5.65-3.77 11.09-5.4 16.76-1.42 4.96-6.02 11.32-2.43 16.41 2.62 3.72 7.67 2.34 11.62 2.52 6.48.29 13.26 1 19.74.48 14.75-1.17 29.43.79 44.13.59 14.16-.19 28.34.17 42.51.19 4.2.01 7.95-2.61 9.39-6.56 2.85-7.82 5.44-15.88 8.84-23.18 4.05-8.69 6.37-16.68 9.6-25.71.95-2.66 11.65-1.14 13.89-.98 12.01.9 24.45-.09 36.56.38 4.7 16.14 9.4 32.74 15.52 48.42 5.16 13.23 28.32 6.66 39.21 5.95 13.09-.86 26.42-.67 39.42-1.05 15.39-.47 35.02-.02 50.36-1.23Z" fill="#E37B3D"/><path d="M631.866 460.884c19.64.95 39.33-.22 58.92.68 13.9.64 28.28-1.77 42.24-1.91 16.63 0 33.26-.33 49.89-.5 15.55-.16 30.2 2.32 45.5 2.28 18.92-.05 38.08.89 56.89-.16 4.58-.25 9.37-.47 13.99-.44 1.36.01 3.46.1 4.24-1.25 1.3-2.21-2.06-5.04-3.3-6.62-1.56-1.99-3.13-3.97-4.81-5.85-3.56-3.99-7.64-7.39-12.23-10.12-7.49-4.45-13.63-10.62-21.66-14.29-15.8-7.24-29.81-14.92-47.35-18.26-13.54-2.58-27.97-6.01-41.7-6.98-18.51-1.31-37.2-1.8-55.79-1.99-30.62-.32-63.97 11.36-91.96 23.07-17.38 7.27-32.91 17.93-47.97 29.14-4.64 3.45-2.36 10.82 3.42 11.06l51.68 2.14Z" fill="#76BE57"/><path d="M522.666 307.694c-2.04 1.88-4.16 3.68-6.33 5.41-6.57 5.25-13.56 9.96-20.65 14.45-3.55 2.25-7.14 4.45-10.74 6.61-2.76 1.66-6.52 5.04-9.87 4.79-5.4-.39-10.3-5.31-14.23-8.62-4.35-3.66-8.58-7.51-13.34-10.64-8.21-5.4-13.65-11.39-19.9-18.83-5.55-6.61-8.9-14.76-10.04-23.28-1.67-12.51-.79-22.64 10.51-30.44 6.02-4.15 14.5-8.7 22.1-7.55 11.89 1.8 20.81 10.95 26.37 21.28 1.05 1.96 3.7 2.3 5.24.7 7.62-7.91 20.21-16.99 30.08-17.39 13.65-.55 28 11.6 30.45 25.06 2.79 15.44-9.2 28.8-19.65 38.45Z" fill="#416FDE"/><path d="M507.426 152.874c3.25-2.05 4.05-7.12 1.58-10.07-1.93-2.32-14.7-6.54-13.33-9.92 2.37-5.87 4.789-11.7 7.239-17.53 3.54-8.41.541-25.39-11.779-21.96-1.67.47-8.32 2.14-8.72 4.24.57-2.97-.24-4.45.01-7.47.98-12.25-2.17-24.82-7.9-35.62-4.48-8.44-15.53-17.26-25.29-12.22-3.76 1.94-6.19 3.15-7.79 7.07-1.32 3.24-4.68 7.49-8.17 7.25-2.96-.2-5.16-6.49-7.28-8.41-9.66-8.76-21.31-5.52-29.47 3.43-9.83 10.77-13.5 30.15-12.96 44.13-.89-1.81-2.31-2.89-4.1-3.82-1.99-1.04-4.3-1.57-6.51-1.17-2.7.49-5.02 2.33-6.59 4.59-1.57 2.26-2.46 4.9-3.17 7.56-1.18 4.41.76 6.32 1.94 10.73.91 3.39 2.78 5.74 4.22 8.81 1.53 3.25 2.85 6.67 3.97 10.09 1.11 3.37 1.23 2.98-1.47 4.32-4.47 2.21-15.54 10.51-8.87 16.47 1.27 1.13 3.12 1.25 4.81 1.28 12.26.25 24.57-.37 36.84-.7 16.3-.45 32.62-.16 48.92-.44 17.34-.3 34.68.02 51.98-.42" fill="#76BE57"/><path d="M407.856 75.634a4 4 0 0 1-.04-8l13.04-.12a3.986 3.986 0 0 1 4.04 3.96 3.999 3.999 0 0 1-3.96 4.04l-13.04.12h-.04ZM442.486 76.024a4.002 4.002 0 0 1-.43-7.98l12.93-1.41a4 4 0 0 1 .87 7.95l-12.93 1.41c-.15.02-.3.03-.44.03ZM428.256 92.294c-.17 0-.34-.01-.51-.03l-8.33-1.08a3.992 3.992 0 0 1-3.45-4.48 3.992 3.992 0 0 1 4.48-3.45l8.03 1.04 7.62-.16 7.77-1.83c2.15-.51 4.3.83 4.81 2.98.51 2.15-.83 4.3-2.98 4.81l-8.18 1.92c-.27.06-.55.1-.83.11l-8.35.17h-.08ZM414.356 158.234c-.18 0-.36-.01-.53-.04l-6.77-.91c-.27.07-.56.11-.84.12-1.24.05-2.41-.47-3.21-1.41l-4.73-5.6a3.986 3.986 0 0 1-.65-4.08l1.32-3.26c.31-.76.85-1.42 1.54-1.86l7.6-4.89.21-10.42c.04-2.21 1.9-3.96 4.08-3.92a4 4 0 0 1 3.92 4.08l-.25 12.55a3.999 3.999 0 0 1-1.83 3.28l-8.2 5.28 1.83 2.17 6.75.91 7.77-.16 8.06-.45c.16-.01.32-.01.49 0l7.93.52 7.92-.33 7.84-.49 6.73-1.11-1.47-3.91-6.66-2.85a4.013 4.013 0 0 1-2.4-3.22l-1.26-10.88c-.25-2.19 1.32-4.18 3.51-4.43 2.2-.26 4.18 1.32 4.43 3.51l.99 8.58 6.1 2.61c1 .43 1.79 1.25 2.17 2.27l3.78 10.07c.42 1.12.32 2.37-.28 3.41a3.97 3.97 0 0 1-2.81 1.94l-11.73 1.94c-.13.02-.27.04-.4.05l-8.13.51-8.22.34c-.14.01-.28 0-.43-.01l-7.91-.52-7.89.44c-.05 0-.09 0-.14.01l-8.15.16h-.08Z" fill="#000"/><path d="M220.336 281.364c14.1-11.23 29.12-21.15 42.79-32.93 13.8-11.9 25.84-24.77 38.31-38.25 22.8-24.66 26.3-55.28 16.24-85.99-3.4-10.37-7.95-20.34-13.86-29.52-12.87-19.97-34.38-34.36-55.57-44.25-24.07-11.23-50.96-16.36-77.46-16.13-16.94.15-33.88-1.6-50.54 2.49-7.83 1.92-15 .8-22.44 2.16-12.83 2.35-27.13 9.68-37.68 16.84-11.17 7.58-22.26 15.41-31.86 24.89-21.82 21.55-30.3 54.88-27.86 84.8 1.4 17.21 6.75 37.24 21.08 48.67 7.53 6.01 17.72 9.89 26.06 14.73 17.93 10.4 38.6 13.96 59 15.62 12.76 1.04 25.64.3 38.35 1.95 16.44 2.14 25.41 13.77 26.73 29.77.65 7.9-.19 15.88-1.44 23.68-.77 4.83-3.13 9.5-3.03 14.47.19 9.22 7.52 2.97 11.58-.07 14.18-10.58 27.77-21.91 41.6-32.93Z" fill="#EBB4C9"/><path d="M1915.2 73.924c.06-.1.13-.2.19-.29 5.71-8.86 3.21-23.2-3.28-30.87-8.58-10.15-26.08-15-38.73-16.45-9.74-1.11-19.64.96-29.18 2.65-9.66 1.72-18.96 5.46-27.08 10.97-8.29 5.63-14.07 16.64-12.4 26.74 1.07 6.5 4.76 15.3 10.45 18.74 6.04 3.65 12.9 5.65 19.7 7.33 8.32 2.06 19.54 1.08 16.55 13.53-1.08 4.51-2.39 8.97-3.92 13.35-.34-.06.32 1.93.62 2.11.3.18.68.04 1-.09a196.63 196.63 0 0 0 43.93-25.87c7.67-5.99 16.75-13.63 22.15-21.85Z" fill="#76BE57"/><path d="M1365.14 69.504c21.72 4.94 32.35 23.76 39.87 43.02 3.87 9.9 7.13 20.04 11.52 29.72 2.17 4.79 4.49 9.44 7.74 13.55 2.78 3.67 5.95 6.69 9.32 9.57 2.17 1.86 1.18 5.39-1.64 5.82-8.95 1.37-18.02 3.04-26.92 3.24-5.56.12-11.13-.11-16.65-.71-4.21-.46-10.6-.22-14.34-1.37-12.75-3.94-28.08-7.72-39.05-15.59-19.74-14.16-32.33-35.95-25.17-60.51 4.78-16.39 17.72-29.36 35.7-28.07 6.35.47 13.5-.06 19.62 1.33Z" fill="#F8F3F2"/><path d="M1325.38 102.474c-.21 0-.42-.02-.62-.05l-9.29-1.46c-.79-.12-1.52-.48-2.1-1.02l-6.48-6.03a3.98 3.98 0 0 1-1.03-1.56l-3.02-8.31c-.15-.42-.23-.87-.24-1.32l-.13-10.98c-.01-.54.1-1.07.3-1.56l4.09-9.97c.24-.57.6-1.08 1.07-1.49l6.33-5.54c.55-.48 1.23-.81 1.96-.93l8.24-1.41c1.03-.18 2.09.06 2.95.65l6.96 4.82a3.93 3.93 0 0 1 1.46 1.88l2.97 7.89c.12.31.2.64.23.97l.92 8.35c.04.36.03.72-.03 1.07l-1.34 8.32c-.03.18-.07.36-.12.54l-2.46 8.03c-.21.68-.59 1.29-1.11 1.77l-6.8 6.29c-.74.68-1.71 1.05-2.71 1.05Zm-7.45-9.22 6.16.97 4.58-4.24 2.06-6.73 1.21-7.51-.81-7.31-2.35-6.25-4.59-3.18-5.51.95-4.77 4.18-3.42 8.34.11 9.49 2.46 6.77 4.87 4.52Z" fill="#000"/><path d="M1351.82 103.034c-.61 0-1.22-.14-1.77-.41l-6.74-3.33c-.77-.38-1.4-1-1.79-1.76l-3.45-6.71a3.9 3.9 0 0 1-.42-1.46l-.71-7.59c-.01-.13-.02-.25-.02-.38l.01-8.44c0-.16.01-.32.03-.48l1.03-8.41c.09-.74.39-1.44.86-2.02l5.84-7.25c.43-.53.98-.94 1.61-1.2l8.57-3.48c1.13-.46 2.42-.38 3.48.23l7.6 4.32c.71.4 1.27 1.01 1.63 1.74l3.75 7.77c.13.27.23.56.3.86l1.9 8.41c.1.46.13.94.06 1.41l-1.14 8.57c-.05.36-.15.72-.29 1.06l-3.27 7.56-.52 1.87c-.22.79-.68 1.5-1.32 2.02l-5.63 4.61c-.48.4-1.05.67-1.66.81l-7.06 1.58c-.3.07-.59.1-.88.1Zm-3.79-10.33 4.29 2.12 4.75-1.07 3.91-3.21.26-.92c.05-.18.11-.35.18-.51l3.16-7.31.97-7.31-1.64-7.27-3.01-6.24-4.83-2.74-5.81 2.36-4.47 5.55-.86 7.04-.01 8.01.62 6.64 2.49 4.86ZM1324.69 88.994c-2.09 0-3.84-1.62-3.99-3.73a4.004 4.004 0 0 1 3.72-4.26l5.39-.36c2.2-.15 4.11 1.52 4.26 3.72.15 2.2-1.52 4.11-3.72 4.26l-5.39.36c-.09 0-.18.01-.27.01Z" fill="#000"/><path d="M1353.3 88.694h-.17l-7.95-.34a4.003 4.003 0 0 1-3.83-4.17c.09-2.21 1.97-3.94 4.17-3.83l7.95.34c2.21.09 3.92 1.96 3.83 4.17a4.012 4.012 0 0 1-4 3.83ZM1337.23 89.844c-2.66 6.74-5.69 13.33-9.09 19.73-.85 1.59.86 3.32 2.46 2.49 6.46-3.33 12.56-6.45 18.41-11.25" fill="#000"/><path d="M1582.57 372.444c-3.24-.12-5.91-.09-9.15-.16-14.02-.3-27.88.94-41.85-.47-5.31-.54-10.91-5.47-11.36-10.94-.46-5.6 1.45-11.92 4.4-16.62 2.59-4.14 6.81-3.35 11.34-3.49 12.59-.41 25.2-.34 37.78-1.13 1.23-.08 2.45-.17 3.68-.14l1.35-1.54c.27-2.14.18-4.5 0-6.79a3.608 3.608 0 0 0-3.37-3.31c-19.43-1.17-38.96-.09-58.43-.18-20.89-.1-41.79-.27-62.68-.26-7.92.01-15.65-.44-23.45-.96-8.11-.54-16.37 1.75-24.58 1.32-19.03-1.01-38.1-.43-57.14-.08-13.16.24-26.29-1.19-39.46-1.02-11.57.15-14.96 4.94-19 14.96-2.1 5.2-3.65 10.94-3.53 16.59.15 7.27 3.17 15.18 8.25 20.43 5.17 5.34 10.75 5.52 17.67 5.55 13.01.05 26.06-.16 39.06-.7 10.12-.42 20.26 1.54 30.31 1.11 20.48-.88 40.57-.14 60.91-.71 20.9-.59 55.1-.6 76-.06 19.81.51 39.92.34 59.88.48 2.65.02 4.77-2.2 4.62-4.84-.1-1.74-.17-3.49-.12-4.88" fill="#392B25"/><path d="M1209.96 384.764c16.17-2.07 32.73-.38 49.09-.58 7.18-.09 14.36-.17 21.54-.26 12.19-.15 24.37-.36 36.56-.68 22.54-.59 44.63.12 67.15.19 25.59.08 51.17-.42 76.76-.55 11.66-.06 22.96.77 34.56.32 9.64-.37 19.73.92 29.17-.16 13.56-1.55 27.24-.48 40.81-1.58 5.71-.47 11.41-.19 17.13-.63 1.59-.12 2.96 1.07 3.03 2.66.12 2.72.4 5.43.51 8.15.03.87.37 2.48-.28 3.2-.51.57-1.51.38-2.18.37-1.24-.02-2.47-.02-3.71-.01-9.11.04-18.2.61-27.3.85-6 .16-12.25 1.4-18.21 1.18-9.43-.35-18.39.17-25.46 7.63-6.34 6.69-8.68 19.12-2.76 26.82 8.81 11.48 27.57 10.81 40.58 10.89 7.05.04 14.1-.26 21.15-.45 3.52-.09 7.05-.16 10.57-.13 1.76.01 3.51.05 5.27.11 1.84.07 3.24.64 3.53 2.57.38 2.5-.08 4.94-.22 7.45-.1 1.73-1.55 3.08-3.29 3.1-19.09.28-38.35 1.14-57.1-.58-6.64-.61-13.17.54-19.71.75-15.17.48-30.53.52-45.73.71-16.37.21-32.99-.02-49.51.16-8.47.09-16.93-.07-25.4-.2-12.62-.2-25.24-.26-37.86-.25-25.26.03-50.51.37-75.77.59-14.25.13-37.59-1.4-51.86-1.34" fill="#E37B3D"/><path d="M1514.99 313.454c-1.22-1.52-2.94-2.77-5.07-3.51-5.81-2.01-13.07-1.62-19.12-1.26-12.65.75-25.52-.58-38.24-.13-2.66.1-20.19 2.19-21.49-1.06-5.03-12.57-6.22-25.68-10.51-38.51-2.73-8.16-4.45-16.58-6.33-24.97-.69-3.07-3.44-5.24-6.59-5.16-10.5.28-21.52 1.16-31.7-.12-21.01-2.65-41.95-1.66-63.05-1.15-.69.02-3.54-.1-6.2-.22-2.58-.12-4.58 2.21-4.06 4.73 1.22 5.91 3.26 15.67 4.5 21.21 4.2 18.68 8.48 37.43 11.91 56.23a7.47 7.47 0 0 0 7.44 6.13c10.68-.11 21.36-.08 32.03-.03 6.45.03 12.9.07 19.35.1 27.81.09 55.65.76 83.5 1.51 16.27.44 32.71 1.77 48.95-.37 1-.13 1.98-.46 2.81-1.03 4.77-3.29 4.86-8.65 1.87-12.39Z" fill="#F8F3F2"/><path d="M1370.96 288.334c3.61-4.74-.56-12.64-3.17-17.02-1.11-1.86-2.45-3.66-4.29-4.81-13.75-8.58-11.45 14.68-6.07 20.85 3.11 3.57 9.04 5.61 12.96 1.64.21-.21.4-.43.57-.66Z" fill="#AEAEAE"/><path d="M2250.08 268.364c-6.38-2.69-12.9-5.01-19.54-6.95 9.31-16.62 24.22-42.94 12.14-61.19-3.39-5.12-7.41-10.12-12.96-12.75-5.56-2.64-11.97-2.58-18.12-2.47-6.01.11-12.09.22-17.9 1.74-.03-13.84 2.79-28.06-7.23-39.18-7.96-8.82-20.61-13.28-32.24-13.84-4.42-.21-8.85.31-13.17 1.25-5.75 1.26-42.86 14.43-40.93 23.35-1.58-7.34-3.27-14.91-7.67-21-18.55-25.68-61.62-20.24-82.99-2.99-6.29 5.08-10.74 17.22-13.57 24.79-6.27-10.08-17.53-22.99-29.68-25.02-12.9-2.16-29.72 4.19-40.08 11.41-26.01 18.15-32.45 54.8-6.16 76.44-14.46-1.88-33.12 3.87-43.95 13.64-10.83 9.76-17.1 24.38-16.73 38.95.16 6.18 4.64 15.03 6.9 20.85 3.89 9.97 11.32 18.25 21.51 22-4.61 1.42-12.99 9.29-15.91 13.13-16.99 22.4-5.99 65.86 23.24 72.91 18.75 4.52 34.97.69 51.14-9.26-1.21.75 9.45 24.7 11.63 27.38 6.69 8.23 22.33 12.6 32.14 15.97 1.32.45 3.04.63 4.22.13l-.01.08c15.63.19 32.09.17 45.69-7.53 4.97-2.81 9.35-6.55 13.69-10.26-4.33 3.7 19.58 16.61 21.65 17.35 11.22 3.99 21.76 5.09 33.62 4.41 17.86-1.02 27.78-16.95 35.43-30.87 19.25 6.89 47.79 9.05 65.38-4 13.67-10.14 22.64-37.34 13.07-52.87l-.35-2.68c15.02-2.71 25.57-9.05 34.02-21.4 12.05-17.53 18.59-51.04-6.28-61.52ZM1852.93 431.384c-9.04 6.4-22.8 7.05-30.62-4.27-5.89-8.52-4.03-21.76 4.55-27.57 3.9-2.64 2.46-.94 6.82-2.73 7.81-3.22 21.83 2.58 25.86 10.12 5.2 9.74.94 19.1-6.61 24.45Z" fill="#F8F3F2"/><path d="M309.436 342.874c-2.87-1.5-8.61-.75-11.82-.74-3.46.02-7.23.32-10.49.41-10.19.28-20.39.55-30.58.79-20.39.49-40.78.88-61.17 1.13-16.72.21-34.6-2.67-51.18-.75-14.55 1.68-29.21.53-43.8 1.17-4.73.21-9.89-.68-10.98 4.91-.19.99-.13 9.95.7 10.13-12.95-2.85-30.81 1.12-34.98 15.17-4.99 16.79-2.15 29.2 12.56 37.5 15.03 8.48 34.19 12.44 51.45 14.8 22.61 21.15 56.39 31.8 85.26 29.29 22.12-1.92 44.39-8.22 63.71-20.05 14.85-9.1 23.28-22.31 31.86-37.69.64-1.14.99-2.47 1.41-3.71 4.57-13.64 8.07-28.31 9.82-42.58.35-2.84 1.51-7.57-1.36-9.56-.14-.07-.27-.15-.41-.22Zm-235.77 40.06c2.19-7.37 12.39-8.83 18.45-6.53.29 1.94.53 3.35.65 3.88 2.16 9.55 5.65 18.79 10.47 27.17-7.98-1.12-16.76-2.99-23.67-6.89-6.91-3.91-8.24-9.74-5.9-17.63Z" fill="#AEAEAE"/><path d="M1668.55 208.614c-2.4-3.35-8.14-4.88-12.7-2.81-3.64 1.65-3.13 4.43-2.95 7.93.06 1.14.21 2.3.79 3.33 3.26 5.84 13.75 2.15 15.56-2.7.82-2.2.43-4.18-.7-5.75ZM1696.86 218.634c-1.66.96-3.81 1.35-6.33.81-1.41-.3-2.85-.75-3.88-1.75-5.96-5.72 1.17-15.84 8.69-12.71 7 2.91 6.46 10.79 1.52 13.65ZM1672.91 250.104c-.52 0-1.03-.1-1.51-.3l-9.71-3.98c-.97-.4-1.75-1.16-2.16-2.12l-4.24-9.85c-.87-2.03.06-4.38 2.09-5.26 2.03-.87 4.38.06 5.26 2.09l3.6 8.35 7.25 2.96 6.95-.82 6.11-3.59 2.56-3.78c-.49-1.15-.44-2.52.26-3.67a4.007 4.007 0 0 1 5.5-1.33l1.57.96a4.004 4.004 0 0 1 1.22 5.66l-5 7.39c-.33.49-.77.91-1.29 1.21l-7.61 4.48c-.48.28-1.01.46-1.56.52l-8.81 1.04c-.17.03-.33.04-.48.04Z" fill="#000"/><path d="M1221.75 327.734c-7.52 4.16-13.48 9.27-22 11.11-7.92 1.7-16.16 1.82-24.15.54-16.03-2.56-31.3-10.74-41.71-23.29-2.89-3.48-3.44-7.55-5.13-11.58-1.89-4.52-2.83-9.44-3.07-14.32-1.1-22.08 6.9-46.56 29.28-55.14 8.38-3.21 17.4-4.64 26.32-5.13 14.54-.81 32.09 4.27 42.3 14.63 6.92 7.02 12.25 15.63 15.37 24.99 1.57 4.73 1.7 10.5 2.41 15.45 2.3 16-5.26 34.79-19.62 42.74Z" fill="#AEAEAE"/><path d="M1195.17 229.844c-1.13.34-2.33.36-3.51.3-6.05-.31-14.94-3.63-19.1-8.26-7.04-7.84-4.88-21.81 1.14-29.54 2.52-3.24 7.04-4.07 11.14-4.3 3.6-.21 7.22-.14 10.81.19 8.28.77 14.91 14.31 15.39 21.56.57 8.61-7.91 17.68-15.87 20.05ZM1254.74 251.794c1.14-.7 2.25-1.53 3.34-2.49 9.41-8.28 5.5-27.26-4.13-33.8-7.3-4.96-19.85-5.14-26.95.68-12.39 10.14-7.1 31.22 6.71 36.85 6.9 2.81 14.6 2.75 21.03-1.24ZM1171.03 331.604c-18.26 10.35-11.5 32.1-9.72 49.11.93 8.86 2.08 17.69 3.44 26.49.95 6.12 1.42 12 2.52 18.14 1.1 6.21 1.41 12.69-2.18 18.2-2.24 3.44-8.53 4.06-9.76 8.2-2.53 8.5 6.56 7.85 11.5 7.9 7.54.07 14.23.47 18.63-6.49 5.98-9.46 4.02-21.15 6.58-31.53l3.85-.1c1.83 8.06 3.62 16.13 5.49 24.17 1.25 5.37 3.42 12.33 9.59 13.78 6.22 1.46 14.37.76 20.38-1.33 2.83-.99 4.49-4.33 3.89-7.26-1.18-5.69-7.58-4.5-9.54-9.09-7.52-17.58-6.46-37.75-10.56-56.22-3.42-15.39-.84-32.86-11.92-45.43-2.29-2.6-5.83-3.74-8.74-5.51" fill="#AEAEAE"/><path d="M1172.33 264.864c-.96-1.01-2.41-1.44-3.8-1.46-2.52-.03-3.91.58-5.14 2.72-.54.93-.81 2.06-.55 3.1.24.98.9 1.78 1.55 2.56.32.38.64.77 1.07 1.02.66.39 1.46.4 2.22.41.58 0 1.16.01 1.74.01.29 0 .58 0 .85-.1.24-.09.45-.26.64-.44.95-.86 1.71-1.96 2-3.21.29-1.25.31-3.68-.58-4.61ZM1193.04 278.564c1.25-1.97 1.4-5.09-.07-6.71-1.63-1.79-4.77-1.86-6.48-.15-1.3 1.3-1.93 3.28-1.63 5.09.35 2.2 2.24 2.63 4.15 3.32 1.76.63 3.16-.18 4.03-1.55ZM1159.09 306.394c-.21 0-.42-.02-.63-.05l-7.59-1.22c-.75-.12-1.44-.45-2.01-.95l-5.49-4.82a4 4 0 0 1-1.36-2.93l-.14-7.31c-.03-1.55.84-2.97 2.22-3.66l7.64-3.79 9.77-5.14a3.992 3.992 0 0 1 5.4 1.68c1.03 1.96.28 4.37-1.68 5.4l-9.86 5.19-5.46 2.7.06 3.01 3.29 2.9 5.81.93 6.34-1.05 6.31-3.18 5.96-4.8a3.99 3.99 0 0 1 5.62.6 3.99 3.99 0 0 1-.6 5.62l-6.29 5.07c-.22.18-.46.33-.71.46l-7.23 3.65c-.36.18-.75.31-1.15.38l-7.59 1.26c-.19.03-.41.05-.63.05Z" fill="#000"/><path d="M1155.9 298.394c-.06-3.79-.13-7.57-.19-11.36-2.31-.93-5.12-1.3-7.11.19-1.99 1.49-3.13 4.05-2.89 6.53.13 1.35.68 2.7 1.72 3.57 1 .84 2.33 1.14 3.61 1.42 1.37.3 3.45-.22 4.86-.35Z" fill="#000"/><path d="M1184.59 415.074c-.67.71-1.76 1.03-2.87 1.06-2.24.06-4.48.2-6.71.34-4.33.26-8.66.58-12.99.58-8.72 0-15.1.77-23.69.84-1.9.01-14.06-.49-19.83-.74a4.121 4.121 0 0 1-3.81-3.06c-3.01-11.3-14.04-52.52-20.43-74.6-1.11-3.84 1.74-7.67 5.73-7.69 4.3-.02 8.87-.21 9.78-.22 6.25-.1 12.97.09 19.15-.93 9.83-1.63 19.95-.34 29.92-.22 2.79.03 5.22 1.92 5.85 4.64.15.66.3 1.31.46 1.97 3.16 13.41 6.87 26.68 10.56 39.95 1.85 6.66 3.7 13.32 5.49 20.01.88 3.29 1.74 6.59 2.57 9.89.54 2.15 1.45 4.15 1.48 6.4.01.75-.24 1.34-.66 1.78Z" fill="#392B25"/><path d="M1139.89 335.394c1.3-.16 2.25-1.29 2.17-2.6-.16-2.62-.33-5.23-.52-7.85-.1-1.39-.2-2.78-.31-4.17-.11-1.39.32-3.93-1.43-4.51-.74-.25-1.58-.09-2.33.02-1.92.28-3.85.54-5.77.8a560.744 560.744 0 0 1-18.3 2.12 2.455 2.455 0 0 0-2.08 3.26c1.48 4.26 2.93 8.53 4.35 12.8.37 1.11 1.46 1.82 2.62 1.67 6.96-.9 14.62-.67 21.6-1.54Z" fill="#F8F3F2"/><path d="M1096.89 373.404c1.41 3.09 4.19 3.41 7.34 2.35 1.32-.44 2.4-1.39 3.44-2.31 3.67-3.25 4.35-7.29 1.54-11.52-.86-1.3-2-2.49-3.46-3.03-1.08-.4-2.27-.42-3.42-.37-3.11.15-6.64 1.19-7.87 4.06-.82 1.92.21 2.83.48 4.9.27 2.06 1.08 4.02 1.95 5.92Z" fill="#AEAEAE"/><path d="M847.826 153.764c-1.03-6.14-3.23-12.05-6.04-17.58-3.15-6.19-5.47-11.48-9.59-17.12-4.06-5.55-8.53-10.79-13.43-15.61-10.73-10.54-23.92-16.85-35.18-26.68l-.18.1c-.36-1.91-2.61-5.03-2.93-6.94-2.62-15.82-4.91-36.42-19.43-46.24-7.45-5.04-17.84-6.35-26.36-3.54-2.54.84-4.84 2.11-6.93 3.67-3.03 1.68-6.08 3.04-9.37 1.77-2.27-.88-3.7-3.09-5.46-4.77-2.37-2.26-5.62-3.67-8.89-3.47-3.27.2-6.46 2.13-7.84 5.1-1.67 3.6-.41 8.13 2.44 10.89s6.98 3.91 10.95 3.8c-3.84 1.01-7.77 2.07-11.04 4.33-3.27 2.26-5.8 6.02-5.49 9.98.24 3.09 2.33 6 5.22 7.11 2.9 1.11 6.45.3 8.5-2.03 1.36-1.55 2.06-3.62 2.93-5.51-.31.74-.62 1.48-.92 2.21-2.25 5.48-5.55 16.22-6.91 21.98l-.35-.19a71.329 71.329 0 0 0-20.41 7.84c-6.11 3.5-12.34 5.37-19.02 7.66-5.69 1.96-11.03 6.44-17.33 6.14-4.66-.22-6.55-3.33-7.8-7.46-1.55-5.14 2.09-7.65 3.45-12.51.45-1.59.54-3.28.27-4.92-.14-.85-.39-1.71-.94-2.36-1.04-1.24-2.95-1.44-4.48-.91-2.62.9-3.17 2.77-5.19 4.45-2.18 1.82-1.92-7.89-1.88-9.15.07-2.42.04-4.96-1.07-7.11-1.11-2.15-3.64-3.77-5.95-3.05-1.71.53-2.86 2.15-3.58 3.79-.9 2.04-1.36 4.28-1.32 6.51-1.28-2.14-4.67-10.29-8.49-8.21-1.85 1.01-2.43 3.42-2.28 5.52.15 2.1.85 4.16.75 6.27-1.11-.69-2.22-1.37-3.34-2.06-1.01-.62-2.04-1.25-3.19-1.53s-2.47-.13-3.35.66c-1.34 1.2-1.2 3.31-.87 5.07.67 3.5 2.42 6.92 2.88 10.38.47 3.53-.74 7.08-.66 10.61.11 5.27.9 10.78 1.48 16.04.98 8.76 5.41 19.28 11.81 25.5 6.51 6.33 12.15 9.32 20.93 11.28 7.25 1.62 14.65.7 21.95 0 5.97-.57 11.96-.75 17.95-1.04 2.94-.14 7.03-1.44 9.74.24 3.58 2.23 1.86 8.46 1.84 12.04-.05 11.8.11 23.6.49 35.39.36 11.36.91 21.67-.69 32.9-1.53 10.75-.38 20.37-.7 30.92-.74 24.31-.61 48.64-1.1 72.96-.19 9.28 2.15 24.11-1.9 32.63-3.4 7.15-13 9.55-17.01 16.47-4.38 7.55-1.79 19.2 6.8 22.74 5.05 2.08 11.83.14 17.15-.46 6.92-.79 13.83-1.75 20.7-2.89 9.43-1.57 9.55-14.73 11.14-21.82 3.63-16.19 3.34-33.63 7.78-49.51 2.03-7.25 1.79-14 3.21-21.23 1.16-5.95 2.36-11.9 3.45-17.87.49-2.69 1.34-11.46 5.13-11.47 1.88-.01 2.75 1.82 3.41 3.28 1.58 3.49 1.45 7.72 1.78 11.46 1.74 19.95 3.52 39.89 5.3 59.83 1.04 11.63 1.96 23.27 3.13 34.88 1.28 12.67 12.7 13.91 23.58 13.82 7.79-.06 18.09 2.75 25.36-.41 3.89-1.69 7.1-5.44 7.14-9.68.03-2.94-1.39-5.69-2.95-8.18-3.61-5.79-10.43-11.45-11.71-18.24-2.59-13.7 2.25-25.9 2.17-39.23-.11-18.19 2.44-35.68 1.75-53.76l3.79-9.57c.26-2.58 1.26-15.86 6.22-12.97.69.4 1.23.99 1.82 1.53 2.33 2.12 5.37 3.36 8.5 3.76 3.13.4 6.31-.05 9.31-1 1.77-.56 3.51-1.32 4.95-2.48 3.02-2.44 4.42-6.43 4.72-10.3.31-3.96-.66-7.85-.6-11.76.06-3.53.58-7.02 2-10.28 2.79-6.39 5.59-12.62 7.55-19.35 3.86-13.35 5.04-27.34 2.73-41.06Z" fill="#303694"/><path d="M818.256 252.674c-.68 0-1.35-.17-1.95-.51l-10.72-5.99c-.68-.38-1.24-.95-1.6-1.64l-4.79-9.19-2.6-5.22-2.99.14c-.66.03-1.31-.1-1.91-.38l-1.7-.8a4.016 4.016 0 0 1-2.29-3.71l.25-10.62c.02-.77.26-1.52.69-2.16l6.79-9.98 2.53-5.86 2.4-5.75 1.15-9.28.07-9.54-1.45-10.09-2.72-10.12a3.997 3.997 0 1 1 7.72-2.08l2.79 10.36c.04.15.07.31.1.47l1.53 10.63c.03.2.04.4.04.6l-.08 10.07c0 .15-.01.31-.03.46l-1.25 10.05c-.04.36-.14.71-.28 1.05l-2.63 6.31-2.7 6.26c-.1.23-.22.45-.36.66l-6.34 9.32-.14 6.03 3.1-.11c1.58-.03 3.02.81 3.72 2.22l3.71 7.46 4.2 8.07 8.44 4.72 6.39-1.1 5.83-8 1.1-5.17-.44-8.39a4.003 4.003 0 0 1 3.78-4.21c2.2-.11 4.09 1.58 4.21 3.78l.47 8.92c.02.35-.01.7-.08 1.04l-1.38 6.52c-.12.55-.35 1.07-.68 1.53l-7.29 10c-.61.84-1.52 1.41-2.55 1.58l-9.39 1.62c-.22.01-.45.03-.67.03ZM747.816 39.334c-.53-.8-1.32-1.39-2.31-1.54-.94-.14-1.94.18-2.64.83-.96.9-1.35 1.95-1.33 3.26.01.64.07 1.29.36 1.86.69 1.34 2.45 1.76 3.95 1.57.43-.05.86-.15 1.22-.38 1.82-1.2 1.88-3.88.75-5.6ZM759.106 42.814c-1.4 5.33-9.48.85-6.61-3.64 1.05-1.65 3.99-2.07 5.55-.81 1.19.96 1.49 2.84 1.06 4.45Z" fill="#000"/><path d="m696.916 76.104 4.87 7.61 5.14 7.43 4.9 7.58 5.25 7.35 5.54 7.14 4.63 7.8 5.98 6.82 4.98 7.54 5.34 7.29 4.93 7.56 5.02 7.5 5.09 6.82 4.95 6.92 4.17 7.43 4.69 7.09 5.19 6.74 5.49 6.49 5.4 6.58 5.98 6.06.55.03-3.08 4.54-3.14 3.72.94 4.94 4.74 1.2 1.06-1.13 3.13-.5 1.82 2.19 1.97 5.27 5.59 11.02 2.59 1.32 11.05 1.7 4.86.1 5.52-5.28 2.99-7.73.16-12.04.37 1.4 4.67 8.62 4.18 8.89 3.63 9.13 3.13 8.31-.77 8.8-5.18 6.91-9.36 3.81-9.77 2.55-10.13.28-7.89-2.73-7.49-3.73-5.66-6.29-3.62-7.75-3-8.04-3.62-7.76-4.11-7.52-3.42-7.85-4.18-7.47-4.03-7.54-4.07-7.52-4.57-7.23-4.43-8.49-5.39-7.9-4.95-8.17-5.23-8-5.19-8.02-5.69-7.68-5.23-8.01-5.47-7.68-4.61-8.24-4.95-8.04-4.36-8.39-5.44-7.75-5.74-7.5-5.31-6.45-4.49-7.04M431.956 154.014c-2.08 0-3.84-1.61-3.99-3.72l-.55-7.91c-.01-.09-.01-.19-.01-.28l.01-7.92c0-.12.01-.24.02-.36l.72-7.9a4 4 0 0 1 4.34-3.62 4 4 0 0 1 3.62 4.34l-.7 7.72-.01 7.6.54 7.77c.15 2.2-1.51 4.12-3.71 4.27-.09.01-.18.01-.28.01ZM761.276 54.784c-1.27 2.55-4.44 4.2-7.96 1.97-6.5-4.12-.59-11.9 5.56-8.86 3.13 1.55 3.54 4.58 2.4 6.89ZM708.996 56.004c-.26 0-.51-.02-.77-.08a4.012 4.012 0 0 1-3.16-4.7l2.08-10.6a4 4 0 0 1 .68-1.57l4.79-6.65-.06-3.45a4.03 4.03 0 0 1 1.39-3.11l3.39-2.91a3.995 3.995 0 0 1 5.64.43 3.995 3.995 0 0 1-.43 5.64l-1.96 1.69.05 2.89c.02.86-.25 1.71-.75 2.41l-5.05 7.02-1.91 9.74c-.39 1.92-2.06 3.25-3.93 3.25Z" fill="#000"/><path d="M746.836 63.874c-1.52 0-3.05-.21-4.52-.64a4.014 4.014 0 0 1-2.73-4.96 4.01 4.01 0 0 1 4.96-2.73c3.6 1.05 7.89-.52 9.97-3.64a4.007 4.007 0 0 1 5.55-1.11 4.007 4.007 0 0 1 1.11 5.55c-3.15 4.73-8.73 7.53-14.34 7.53ZM688.556 395.384a3.998 3.998 0 0 1-3.62-5.7l4.65-9.89c.94-2 3.32-2.86 5.32-1.92 2 .94 2.86 3.32 1.92 5.32l-4.65 9.89a3.997 3.997 0 0 1-3.62 2.3ZM673.616 396.634c-.47 0-.95-.08-1.41-.26a4.002 4.002 0 0 1-2.33-5.16l4.17-11.04a4.002 4.002 0 0 1 5.16-2.33c2.07.78 3.11 3.09 2.33 5.16l-4.17 11.04a4.016 4.016 0 0 1-3.75 2.59ZM773.236 394.054c-1.58 0-3.08-.94-3.71-2.5l-3.59-8.85c-.83-2.05.16-4.38 2.2-5.21a4 4 0 0 1 5.21 2.21l3.59 8.85c.83 2.05-.16 4.38-2.2 5.21-.49.19-1 .29-1.5.29ZM784.956 393.604a3.99 3.99 0 0 1-3.89-3.1l-2.14-9.28c-.5-2.15.85-4.3 3-4.8 2.16-.49 4.3.85 4.8 3l2.14 9.28c.5 2.15-.85 4.3-3 4.8-.31.06-.61.1-.91.1ZM798.916 393.024a4.02 4.02 0 0 1-3.46-1.98l-5.92-10.11a3.996 3.996 0 0 1 1.43-5.47c1.91-1.11 4.36-.47 5.47 1.43l5.92 10.11c1.12 1.91.47 4.36-1.43 5.47-.63.37-1.32.55-2.01.55Z" fill="#000"/><path d="M1086.09 60.224c-15.01-8.87-12.57-40.25-23.63-54.15-4.11-5.17-7.21-4.02-13.18-5.68-4.55-1.26-9.51.64-13.07 3.74-3.56 3.1-4.38 5.63-6.79 9.69-6.03 10.16-11.04 19.49-17.07 29.66-15.555.54-31.244-1.01-46.784.43-1.67-3.18-2.661-4.58-4.641-7.58-3.8-5.77-4.12-12.41-8.51-17.89-3.36-4.19-7.03-7.93-12.19-9.83-10.45-3.85-20.17 2.04-25.31 11.21-7.68 13.7-9.41 29.85-12.69 44.95-3.87 3.58-8.12 8.91-11.99 12.49-19.55 18.07-21.519 47.74-17.769 72.49 2.76 18.16 9.78 35.96 21.87 49.95 2.96 3.43 6.29 7.17 10.04 9.76 3.43 2.37 7.849 3.88 11.479 5.95 9.56 5.45 22.201 7.98 32.901 9.86 30.25 5.31 61.574 4.62 92.194 3.47 7.86-.3 16.39 1.33 23.94-1.34 15.84-5.6 31.29-13.11 43.69-24.66 10.86-10.12 17.76-23.48 18.83-38.11.69-9.35 3.47-17.73 3.6-27.17.3-22.87-7.41-54.21-28.63-66.75-3.83-2.26-12.47-8.23-16.29-10.49Z" fill="#EBB4C9"/><path d="M1004.69 133.474c-8.565 6.97-17.184-10.69-3.74-11.97 3.28-.31 4.5 2.56 5.6 5.05.63 1.43.79 3.11.15 4.53-.44.96-1.2 1.72-2.01 2.39Z" fill="#000"/><path d="M981.555 147.374c-.31 0-.63-.04-.93-.11l-5.17-1.24a4.008 4.008 0 0 1-2.96-4.82 4.011 4.011 0 0 1 4.82-2.96l4.56 1.1 4.16-.31 3.85-1.4 3.49-3.08c.17-.15.35-.28.54-.4l4.58-2.84a4.022 4.022 0 0 1 4.525.2l4.18 3.16 4.92 1.59.18.06 4.7 1.77 4.69-.3 5.46-1.19a4 4 0 1 1 1.7 7.82l-5.76 1.26c-.2.04-.4.07-.6.08l-5.86.37c-.57.04-1.13-.05-1.66-.25l-5.41-2.04-5.47-1.77c-.42-.14-.82-.34-1.18-.61l-2.53-1.91-1.965 1.22-3.8 3.36c-.37.33-.81.59-1.28.76l-5.07 1.85c-.34.12-.7.2-1.07.23l-5.34.4h-.3ZM970.446 120.984c-2.02 0-3.75-1.52-3.97-3.57a4 4 0 0 1 3.54-4.41l9.61-1.04c.07-.01.14-.01.21-.02l9.64-.54c2.22-.14 4.09 1.56 4.22 3.77a4.003 4.003 0 0 1-3.77 4.22l-9.54.53-9.51 1.03c-.14.03-.28.03-.43.03ZM1030 120.354h-.12l-9.09-.27c-.15 0-.3-.02-.44-.04l-9.02-1.28a4.001 4.001 0 0 1-3.4-4.52 4.008 4.008 0 0 1 4.52-3.4l8.8 1.25 8.87.27c2.21.07 3.94 1.91 3.88 4.12a4.006 4.006 0 0 1-4 3.87Z" fill="#000"/><path d="M1082.28 271.194c-2.45-2.91-7.78-6.25-11.83-5.4-1.47.31-3.06 1.48-4.65 1.93-1.59.44-3.34.64-4.48 1.98-2.25 2.65-1.95 9.45-1.25 12.58.84 3.82 3.58 7.46 7.41 8.27 5.3 1.11 11.94 1.68 15.42-3.17 3.4-4.74 3.05-11.82-.62-16.19ZM997.866 291.124c-4.27 5.21-11.62 7.75-17.97 4.78-3.28-1.53-5.31-5.01-6.02-8.55-.72-3.55-1.22-6.93.02-10.33 1.29-3.54 4.81-5.88 8.47-6.78 7.65-1.87 19.514 1.88 19.074 11.75-.16 3.45-1.504 6.61-3.574 9.13Z" fill="#EBB4C9"/><path d="M936.326 355.594c-.1 0-.2 0-.31-.01a4.012 4.012 0 0 1-3.69-4.29l.64-8.44-.13-8.45c0-.18.01-.36.03-.54l1.02-8.53c.13-1.11.73-2.12 1.64-2.77l6.36-4.57 5.9-4.68 10.27-11.71a4.002 4.002 0 0 1 5.64-.38 4.002 4.002 0 0 1 .38 5.64l-10.52 11.99c-.16.18-.33.34-.52.49l-6.25 4.97-.15.12-5.01 3.6-.78 6.52.13 8.37c0 .12 0 .24-.01.36l-.65 8.62a4.008 4.008 0 0 1-3.99 3.69Z" fill="#000"/><path d="M992.906 227.004c3.63 3.67 7.424 7.18 11.364 10.51 1.87 1.58 4.62 1.61 6.5.03 5.72-4.8 11.36-10.06 16.02-15.75" fill="#EBB4C9"/><path d="M1128.71 214.094c-.57.09-1.05.48-1.28 1.01-.25.58-.16 1.25.21 1.76 1.98 2.67 3.9 5.38 5.86 8.06.35.48.78 1.04 1.24 1.62 1.46-4.86 3.06-9.27 5.51-13.6-4 .26-8.43.64-11.54 1.15Z" fill="#101010"/><path d="M1185.91 361.874c-6.79 5.51-19.44-.85-23.36 8.65-1.19 2.88-.14 6.36 2.02 8.61 5.5 5.75 22.71 6.64 28.25.49" fill="#AEAEAE"/><path d="M1178.48 388.204c-.16 0-.31-.01-.46-.03l-9.8-1.14c-.84-.1-1.62-.46-2.24-1.02l-6.56-6.01c-.13-.12-.24-.24-.35-.37l-2.13-2.52a4 4 0 0 1-.61-4.19l4.1-9.32a3.99 3.99 0 0 1 3.41-2.38l10.72-.67 7.18-1.32 5.51-4.83 5.31-6.59 5.5-6.94a4.004 4.004 0 0 1 5.62-.65 4.004 4.004 0 0 1 .65 5.62l-5.52 6.96-5.54 6.88c-.14.18-.3.35-.48.5l-6.6 5.79c-.54.48-1.2.79-1.91.93l-8.5 1.57c-.16.03-.32.05-.48.06l-8.53.53-2.12 4.81.36.42 5.42 4.97 7.79.91 8.64-2.12 8.34-3.07 6.64-5.89 6.44-7.14a4 4 0 0 1 5.94 5.36l-6.59 7.3c-.1.11-.21.21-.32.31l-7.37 6.54c-.37.33-.81.59-1.27.76l-9.26 3.41c-.14.05-.28.09-.43.13l-9.56 2.35c-.3.05-.62.09-.94.09ZM1416.31 152.284c-.18 0-.37-.01-.56-.04l-8.97-1.25c-.04-.01-.08-.01-.12-.02l-8.99-1.54c-.57-.1-1.1-.31-1.58-.64l-8.31-5.67c-.31-.21-.59-.46-.82-.75l-6.32-7.63c-.3-.37-.54-.78-.7-1.23l-3.3-9.44c-.17-.47-.24-.97-.22-1.47l.38-10.13c.02-.41.1-.82.24-1.21l3.44-9.49c.13-.37.32-.71.55-1.03l6.01-8.06a4.014 4.014 0 0 1 5.6-.82 4.005 4.005 0 0 1 .82 5.6l-5.66 7.59-3.03 8.34-.33 8.75 2.81 8.04 5.5 6.64 7.12 4.87 8.07 1.38 8.91 1.24c2.19.31 3.71 2.33 3.41 4.51a3.985 3.985 0 0 1-3.95 3.46ZM1372.72 240.154c-.07 0-.14 0-.21-.01-2.21-.11-3.9-2-3.79-4.2l.46-8.85c0-.05.01-.1.01-.15l.76-8.53-.63-8.55a5.61 5.61 0 0 1 0-.58l.61-8.52-.94-8.48c-.01-.07-.01-.14-.02-.21l-.5-8.79-.76-8.77a4.001 4.001 0 0 1 7.97-.69l.77 8.83c0 .04.01.08.01.12l.5 8.74.96 8.74c.03.24.03.48.01.73l-.62 8.59.64 8.58c.02.22.01.43 0 .65l-.78 8.78-.46 8.78a3.996 3.996 0 0 1-3.99 3.79ZM1388.11 242.054h-.07a4 4 0 0 1-3.93-4.07l.14-8.17-.78-8.15c-.02-.19-.02-.37-.01-.56l.36-8.08-.91-8.04c-.02-.19-.03-.38-.02-.57l.25-8.19-.83-10.54a2.81 2.81 0 0 1 0-.58l.72-10.78c.15-2.2 2.06-3.87 4.26-3.72 2.2.15 3.87 2.05 3.72 4.26l-.7 10.48.82 10.47c.01.14.02.29.01.44l-.25 8.12.92 8.07c.02.21.03.42.02.63l-.36 8.12.77 8.1c.01.15.02.3.02.45l-.15 8.39a4.002 4.002 0 0 1-4 3.92Z" fill="#000"/></svg>