<svg width="1268" height="322" fill="none" xmlns="http://www.w3.org/2000/svg"><path d="m131.834 301.713 3.489-.197 3.496-.082 3.488.109h3.489l3.496-.075 3.489.088 3.489-.19 3.495.211 3.489-.041 3.489.034 3.489-.32 3.495.34 3.489-.231 3.496.32 3.489-.483 3.495.143 3.489-.109 3.489.04 3.495.3 3.489-.007 3.489.136 3.489-.115 3.489-.245 3.489.217 3.488-.354 3.489.157 3.489-.17 3.489.497 3.489-.286 3.488-.136 3.489.463 3.496-.32 3.489.075 3.489-.259 3.488.606 3.496.007 3.489-.531 3.489.435 3.488.055 3.496-.382 3.489.082 3.496-.027 3.488-.102 3.489.497 3.496.054 3.489-.435 3.488.435 3.496-.551 3.489.32 3.496-.021 3.488-.054 3.496.211 3.489-.429 3.495.279 3.489.041 3.496-.204 3.489.436 3.495-.45 3.489.402 3.496-.45 3.489.504 3.495-.163 3.489-.443 3.496.266 3.488.102 3.496.007 3.489.211 3.496-.375 3.488-.006 3.496.415 3.489-.279 3.495.368 3.489-.409 3.496.123 3.489.258 3.495-.027 3.489-.483 3.496.32 3.489.177h3.495l3.489-.538 3.482.429 3.489-.218 3.489-.136 3.488.572 3.489-.103 3.489.089 3.489-.402 3.489-.163 3.489.402 3.488-.218 3.489.054 3.489.089 3.489.245 3.496-.334 3.488.055 3.489-.007 3.489.156 3.489.014 3.489.048 3.495-.286 3.489.258 3.489.096 3.489.102 3.495-.259 3.489-.381 3.489.408 3.496-.183 3.488-.123 3.489.116 3.496.333 3.489-.401 3.495.388 3.489-.497 3.489.102 3.496.524 3.488-.483 3.489.381 3.496-.286 3.489.375 3.489-.041 3.488-.123 3.489.218 3.496.034 3.489-.293 3.488.034 3.496.205 3.489-.034 3.495-.416 3.489.443 3.496-.511 3.489.497 3.495-.02 3.489-.395 3.496.218 3.495-.075 3.489.129 3.496-.265 3.495.442 3.496-.197 3.496-.15 3.495-.007 3.489.198 3.496.238 3.495-.252 3.496.211 3.496-.436 3.495.436 3.496.007 3.495.068 3.496-.157 3.496.218 3.495-.047 3.496-.041 3.496-.368 3.495.327 3.496-.341 3.502.273 3.496-.341 3.496.327 3.495-.156 3.496-.198 3.495.572 3.503-.361 3.495-.177 3.496.245 3.496.191 3.502-.327 3.496.136 3.495-.211 3.489.184 3.496-.218 3.495.647 3.496-.313 3.489.163 3.495-.082 3.496.062 3.489.19 3.496-.027h3.495l3.489-.068 3.496.082 3.495-.204 3.489.034 3.496.074 3.495.007 3.489-.224 3.496-.205 3.495.014 3.489.061 3.496.347 3.495-.483 3.489.102h3.496l3.496.191 3.488.252 3.496.095 3.489-.054 3.495-.116 3.489-.034 3.496.204 3.489-.136 3.495-.095 3.496-.327 3.489.497 3.495-.273 3.489.368 3.496-.572 3.495.211 3.496-.122 3.489.17 3.495.354 3.496-.32 3.489.279 3.496-.013 3.495.129 3.489-.361 3.496.143 3.495.095 3.489.13 3.496-.143 3.495-.014 3.496-.456 3.489.075 3.495.129 3.496.157 3.489-.232 3.495.49 3.496.014 3.489-.048 3.496-.401 3.495.122 3.489-.115 3.496.115 3.495.286 3.489-.483 3.496.068 3.488.027 3.496.034 3.489.334 3.496-.524 3.488.483 3.496.095 3.496.021 3.488.034 3.496-.075 3.496-.102 3.495.211 3.491-.245 3.5-.109 3.5-.205 3.48.361 3.5.123 3.5-.014 3.49-.258 3.49-.137 3.49.116 3.49.164 3.49-.205 3.49-.095 3.5.606 3.49-.422 3.49.034 3.49.245 3.49-.197 3.49.115 3.49-.286 3.49.096 3.49-.184 3.49.592 3.49-.551 3.49.204 3.49.32 3.49-.102 3.51-.075 3.48-.572 3.51-.041 3.49-.511 3.51-.129 3.5-.197 3.49-.389 3.51-.088 3.48-.504 3.52-.068 3.5-.313 3.42-.981 3.54-.02 3.41-.913 3.47-.524 3.47-.545 3.54-.075 3.38-1.062 3.55-.102 3.37-1.096 3.5-.429 3.4-.919 3.49-.47 3.3-1.308 3.5-.503 3.26-1.369 3.35-1.069 3.4-.885 3.34-1.049 3.35-1.069 3.36-1.049 3.34-1.103 3.12-1.654 3.18-1.485 3.36-1.096 3.08-1.716 3.27-1.321 2.91-2.002 3.05-1.743 3.1-1.688 2.72-2.241 3.2-1.559 2.49-2.547 3.07-1.777 2.37-2.635 3-1.92 2.1-2.88 2.71-2.268 2.2-2.751 2.05-2.846 2.39-2.601 2.06-2.86 1.78-3.037 1.6-3.139 1.82-3.023.96-3.425 1.51-3.173 1.39-3.234.65-3.473 1.17-3.323 1.03-3.377.41-3.5.75-3.466.41-3.52.13-3.548-.33-3.54-.04-3.521.1-3.547-.51-3.507-.31-3.527-.92-3.425-.59-3.486-.69-3.486-1.38-3.276-1.48-3.214-1.32-3.261-1.44-3.221-1.3-3.309-1.92-2.983-1.84-3.03-2.45-2.58-2.37-2.601-2.2-2.765-2.55-2.437-2.54-2.472-2.74-2.227-2.68-2.308-2.99-1.907-2.75-2.233-3.08-1.757-3.03-1.79-2.81-2.179-3.3-1.335-2.99-1.913-3.44-.94-3.18-1.587-3.42-.898-3.51-.538-3.39-.94-3.45-.783-3.53-.32-3.53.014-3.53.122-3.52-.088-3.51.252-3.57-.184-3.42 1.082-3.54.259-3.49.592-3.42.927-3.38 1.069-3.42.892-3.31 1.252-3.43.92-3.17 1.607-3.42.98-3.06 1.852-3.48.879-3.04 1.858-3.31 1.267-3.12 1.682-3.46.939-3.04 1.859-3.15 1.621-3.33 1.212-3.29 1.307-3.26 1.137-3.3 1.022-3.32.933-3.22 1.287-3.32.973-3.38.79-3.44.422-3.42.572-3.46.211-3.46.137-3.46-.007-3.43-.647-3.49.184-3.36-.967-3.47-.245-3.33-.96-3.21-1.294-3.24-1.164-3.24-1.172-3.25-1.171-3.03-1.668-2.95-1.791-3.01-1.682-3.17-1.457-2.5-2.438-3.02-1.736-2.66-2.22-2.7-2.158-2.47-2.69-2.83-2.274-3.11-1.893-2.94-2.118-2.7-2.458-3.23-1.695-3.126-1.838-3.094-1.88-3.013-2.022-2.87-2.26-3.237-1.649-3.04-1.756-2.999-1.832-3.19-1.484-3.046-1.743-3.217-1.41-3.129-1.587-3.067-1.722-3.176-1.498-3.142-1.573-3.244-1.355-3.407-.94-3.237-1.348-3.149-1.6-3.298-1.199-3.346-1.069-3.333-1.11-3.325-1.13-3.475-.626-3.394-.885-3.38-.92-3.339-1.116-3.401-.872-3.522-.3-3.428-.728-3.394-.947-3.448-.687-3.489-.456-3.495-.327-3.523-.082-3.475-.47-3.516.041-3.482-.756-3.516.061-3.51.028-3.502.436-3.516-.355-3.516.034-3.468.763-3.503.177-3.495.252-3.448.715-3.544.007-3.441.728-3.38.974-3.468.45-3.353 1.007-3.441.579-3.408.735-3.461.531-3.299 1.199-3.414.729-3.312 1.164-3.502.368-3.36.953-3.339 1.028-3.407.749-3.387.824-3.353 1.015-3.475.422-3.462.497-3.318 1.205-3.435.6-3.502.237-3.455.47-3.421.702-3.468.442-3.503-.04-3.488.054-3.469.272-3.482-.027-3.489.477-3.475-.443-3.462-.415-3.522.177-3.448-.6-3.455-.517-3.346-1.062-3.469-.484-3.278-1.239-3.291-1.137-3.448-.715-3.061-1.75-3.284-1.083-3.047-1.613-3.061-1.594-2.808-2.015-2.897-1.866-2.877-1.893-2.904-1.859-2.965-1.784-2.809-2.002-2.537-2.39-2.924-1.831-2.741-2.118-3.108-1.539-2.917-1.838-2.932-1.839-3.271-1.164-3.067-1.62-3.427-.865-3.258-1.342-3.414-.865-3.258-1.382-3.373-1.008-3.387-.96-3.543-.306-3.36-1.083-3.509-.388-3.407-.946-3.489-.436-3.529-.143-3.496-.327-3.496-.381-3.495-.286-3.489-.518-3.509-.252-3.516-.197-3.516-.102-3.516.402L584.64 35l-3.509.422-3.516-.088-3.496.565-3.516.102-3.516.068-3.482.558-3.543-.088-3.462.674-3.455.626-3.509.177-3.448.647-3.482.361-3.401.926-3.502.286-3.489.375-3.448.592-3.359 1.09-3.476.463-3.407.81-3.346 1.082-3.387.852-3.454.62-3.319 1.116-3.475.565-3.374.94-3.414.824-3.244 1.348-3.407.837-3.292 1.206-3.237 1.341-3.318 1.124-3.265 1.266-3.203 1.41-3.135 1.566-3.217 1.368-3.339 1.096-3.19 1.444-3.149 1.539-3.244 1.335-2.972 1.886-2.999 1.81-3.155 1.512-3.101 1.635-3.156 1.538-3.101 1.642-2.863 2.029-2.918 1.872-2.87 1.94-2.985 1.758-2.802 2.035-3.074 1.628-2.646 2.28-3.074 1.628-2.999 1.743-2.571 2.39-2.904 1.88-2.768 2.09-3.026 1.702-2.693 2.2-3.02 1.722-2.761 2.098-2.829 2.002-3.108 1.572-2.605 2.343-3.08 1.62-2.904 1.88-2.911 1.879-2.986 1.757-3.033 1.668-2.931 1.838-2.965 1.784-2.877 1.948-3.135 1.471-3.081 1.572-2.856 2.016-3.122 1.512-3.047 1.647-3.162 1.417-3.36.967-3.08 1.607-3.203 1.314-3.272 1.137-3.189 1.375-3.346.899-3.407.878-3.353 1.035-3.367 1.035-3.448.688-3.427.77-3.448.674-3.516.292-3.414.94-3.51.259-3.475.585-3.523.089-3.516.007-3.482.592-3.523-.177-3.502.32-3.509.034-3.509.45-3.516-.579-3.51-.048-3.522.361-3.517-.075-3.482-.694-3.536.245-3.482-.552-3.475-.511-3.557.178-3.468-.6-3.482-.483-3.462-.599-3.482-.497-3.475-.497-3.442-.736-3.448-.667-3.516-.361-3.312-1.287-3.448-.688-3.352-1.028-3.414-.831-3.387-1.014-3.407-.919-3.36-1.131-3.434-.851-3.435-.824-3.434-.83-3.489-.627-3.469-.654-3.495-.537-3.482-.62-3.482-.606-3.523-.3-3.482-.599-3.462-.824-3.536-.15-3.55.021-3.509-.334-3.53-.109-3.53-.184-3.522-.143-3.537-.238-3.529.334-3.544-.102-3.489.776-3.556-.15-3.462.79-3.489.538-3.523.32-3.475.64-3.427.865-3.36 1.123-3.537.45-3.305 1.266-3.489.722-3.277 1.348-3.292 1.301-3.04 1.865-3.237 1.24-2.959 1.79-3.176 1.41-2.89 1.906-2.952 1.818-2.754 2.098-2.7 2.165-2.775 2.07-2.59 2.301-2.558 2.35-2.122 2.764-2.291 2.587-2.578 2.356-1.965 2.867-1.762 2.996-2.366 2.588-1.476 3.159-1.959 2.873-1.367 3.194-1.414 3.159-1.537 3.105-1.483 3.139-.837 3.384-1.326 3.214-.748 3.391-.816 3.364-.714 3.391-.802 3.384.02 3.493-.789 3.411-.109 3.473-.15 3.33L1 234.922l.483 3.33-.014 3.337.599 3.282.204 3.336 1.04 3.173 1.279 3.057 1.346 3.201 1.741 3.016 1.952 2.867 1.972 2.86 2.102 2.771 1.979 2.914 2.598 2.349 2.666 2.261 2.441 2.512 2.755 2.152 2.788 2.111 3.122 1.614 2.87 1.981 2.917 1.92 3.21 1.389 3.04 1.723 3.203 1.382 3.34 1.029 3.107 1.641 3.387.864 3.237 1.355 3.448.613 3.4.797 3.36.66 3.448.048 3.387.429 3.387.477 3.42.109 3.408.217 3.394.566 3.427-.28 3.414.082 3.421.021 3.414.013 3.421.3 3.414-.232 3.421-.047 3.393-.634 3.442.368 3.4-.354 3.434.15 3.394-.456" fill="#305DCE"/><g clip-path="url(#a)"><path d="M881.364 111.607c6.554 2.971 18.297 9.1 24.287 13.145 28.994 19.58 27.823 77.346-3.249 94.981-14.672 8.326-27.893 8.542-44.426 8.493-18.2-.049-36.4.251-54.6.244h-32.829c-2.106 0-4.456-.209-6.799-.314-3.821-.174-6.813-3.347-6.82-7.168-.125-46.441-1.311-93.112-.774-139.672.251-21.874.705-43.75.774-65.624.014-3.41 2.622-6.248 6.018-6.52 16.478-1.31 33.074.468 49.558.92 8.131.224 16.268.036 24.399.008 12.015-.042 24.197 1.694 35.556 5.676 8.451 2.963 16.715 10.404 23.235 16.463 6.108 5.677 8.681 14.17 9.964 22.161 2.266 14.128 3.347 31.811-6.966 43.436-4.916 5.536-11.234 9.636-17.119 14.036" fill="#303694"/><path d="M789.902 105.29h-.111l-6.834-.279a3.002 3.002 0 0 1-.781-.146l-6.499-2.197a2.896 2.896 0 0 1-.418-.181l-6.032-3.222a3.092 3.092 0 0 1-.37-.237l-5.432-4.114a2.805 2.805 0 0 1-.599-.62l-5.077-7.21a2.803 2.803 0 0 1-.125-3.02 2.79 2.79 0 0 1 2.698-1.36l5.823.62 5.327-.341 5.412-1.304 5.411-1.395 4.999-1.84 3.18-2.072a2.783 2.783 0 0 1 3.856.816 2.783 2.783 0 0 1-.816 3.856l-3.444 2.239c-.175.111-.363.209-.558.279l-5.432 1.994a1.701 1.701 0 0 1-.265.084l-5.593 1.436-5.69 1.367a2.688 2.688 0 0 1-.474.07l-5.802.376a2.714 2.714 0 0 1-.411-.007l1.283 1.827 4.909 3.717 5.634 3.012 5.9 1.995 6.324.257 6.318-.23 6.164-1.938a2.797 2.797 0 0 1 3.501 1.82 2.797 2.797 0 0 1-1.82 3.5l-6.52 2.05a2.634 2.634 0 0 1-.732.126l-6.799.251c-.035.021-.07.021-.105.021Z" fill="#111"/><path d="M920.658 306.681c20.229 1.764 40.953 1.066 61.238.871-6.394-10.313-5.746-22.927.781-33.178-24.601-1.471-49.739-3.424-74.138.439M899.68 261.746l78.036.007-.147.474c-3.807-7.887-3.786-17.844.056-25.71l-.16-.788-66.991 1.722M832.85 48.466c15.145 3.445 22.558 16.568 27.801 29.998 2.699 6.904 4.972 13.975 8.034 20.724 1.513 3.341 3.13 6.583 5.397 9.449 1.938 2.559 4.149 4.665 6.499 6.673 1.513 1.297.822 3.759-1.144 4.059-6.241.955-12.566 2.119-18.772 2.259a89.629 89.629 0 0 1-11.61-.495c-2.936-.321-7.391-.154-9.999-.955-8.891-2.748-19.581-5.384-27.23-10.872-13.765-9.873-22.544-25.068-17.552-42.194 3.334-11.429 12.357-20.473 24.894-19.573 4.428.327 9.414-.042 13.682.927Z" fill="#F8F3F2"/><path d="M805.124 71.456a2.93 2.93 0 0 1-.432-.035l-6.478-1.018a2.756 2.756 0 0 1-1.464-.71l-4.519-4.206a2.768 2.768 0 0 1-.718-1.087l-2.106-5.795a2.93 2.93 0 0 1-.167-.92l-.091-7.657c-.007-.377.07-.746.209-1.088l2.852-6.952c.167-.398.419-.753.746-1.039l4.414-3.863a2.774 2.774 0 0 1 1.367-.649l5.746-.983a2.793 2.793 0 0 1 2.057.453l4.853 3.362c.467.32.823.78 1.018 1.31l2.071 5.502c.084.216.14.447.161.677l.641 5.822a2.66 2.66 0 0 1-.021.746l-.934 5.802a3.633 3.633 0 0 1-.084.376l-1.715 5.6a2.81 2.81 0 0 1-.774 1.234l-4.742 4.386a2.791 2.791 0 0 1-1.89.732Zm-5.195-6.429 4.296.677 3.193-2.957 1.437-4.693.844-5.237-.565-5.097-1.639-4.358-3.2-2.218-3.843.663-3.326 2.914-2.385 5.816.077 6.617 1.715 4.721 3.396 3.152Z" fill="#111"/><path d="M823.562 71.847c-.426 0-.851-.098-1.234-.286l-4.7-2.322a2.798 2.798 0 0 1-1.249-1.227l-2.405-4.68a2.71 2.71 0 0 1-.293-1.017l-.495-5.293c-.007-.09-.014-.174-.014-.265l.007-5.885c0-.112.007-.223.021-.335l.718-5.864a2.772 2.772 0 0 1 .6-1.409l4.072-5.056c.3-.37.683-.655 1.123-.836l5.976-2.427a2.775 2.775 0 0 1 2.426.16l5.3 3.013c.495.279.885.704 1.136 1.213l2.615 5.418a2.9 2.9 0 0 1 .21.6l1.324 5.864c.07.321.091.656.042.984l-.795 5.976a3.049 3.049 0 0 1-.202.739l-2.28 5.271-.363 1.304a2.774 2.774 0 0 1-.92 1.409l-3.926 3.215a2.765 2.765 0 0 1-1.158.564l-4.923 1.102c-.209.049-.411.07-.613.07Zm-2.643-7.203 2.991 1.478 3.313-.746 2.726-2.239.181-.641c.035-.126.077-.244.126-.356l2.203-5.097.677-5.097-1.144-5.07-2.099-4.351-3.368-1.91-4.051 1.645-3.117 3.87-.6 4.91-.007 5.584.433 4.63 1.736 3.39ZM804.64 62.057a2.794 2.794 0 0 1-2.782-2.601 2.792 2.792 0 0 1 2.594-2.97l3.759-.252a2.791 2.791 0 0 1 2.97 2.594 2.792 2.792 0 0 1-2.594 2.97l-3.758.252c-.063 0-.126.007-.189.007Z" fill="#111"/><path d="M824.593 61.847h-.118l-5.544-.237a2.791 2.791 0 0 1-2.671-2.907 2.782 2.782 0 0 1 2.908-2.671l5.544.237a2.79 2.79 0 0 1-.119 5.578ZM813.387 62.65a134.8 134.8 0 0 1-6.339 13.757c-.593 1.109.6 2.315 1.715 1.737 4.505-2.323 8.759-4.498 12.838-7.845" fill="#111"/><path d="M984.463 259.71c-2.259-.084-4.121-.063-6.381-.112-9.776-.209-19.441.655-29.182-.328-3.703-.376-7.608-3.814-7.922-7.628-.32-3.905 1.012-8.312 3.069-11.59 1.806-2.886 4.748-2.336 7.907-2.433 8.779-.286 17.572-.237 26.345-.788.857-.056 1.708-.119 2.566-.098l.941-1.074c.188-1.492.126-3.138 0-4.734a2.517 2.517 0 0 0-2.35-2.309c-13.549-.815-27.167-.062-40.744-.125-14.567-.07-29.14-.188-43.707-.181-5.523.007-10.913-.307-16.352-.67-5.656-.376-11.415 1.22-17.14.921-13.27-.705-26.568-.3-39.845-.056-9.176.167-18.332-.83-27.515-.711-8.068.104-10.432 3.444-13.249 10.431-1.465 3.626-2.546 7.629-2.462 11.569.105 5.069 2.211 10.585 5.753 14.246 3.605 3.724 7.496 3.849 12.321 3.87a601.85 601.85 0 0 0 27.237-.488c7.057-.293 14.128 1.074 21.136.774 14.281-.614 28.29-.098 42.473-.495 14.574-.412 38.422-.419 52.996-.042 13.814.356 27.837.237 41.755.335a3.2 3.2 0 0 0 3.222-3.375c-.07-1.214-.119-2.434-.084-3.403" fill="#372D26"/><path d="M846.209 267.373c-15.703-.049-58.994-.544-74.711-.132-24.498 0-35.001 53.759 4.169 51.404 11.539.422 26.537-.778 45.683-.801 8.8-.007 17.6.035 26.4.175 5.906.09 11.806.202 17.712.139 11.52-.125 23.109.035 34.524-.111 10.599-.133 21.31-.161 31.888-.495 4.56-.147 9.114-.949 13.744-.523 13.075 1.199 26.505.599 39.816.404 1.214-.014 2.225-.955 2.295-2.162.097-1.75.418-3.451.153-5.195-.202-1.345-1.178-1.743-2.461-1.792a128.79 128.79 0 0 0-3.675-.076c-2.455-.021-4.916.027-7.371.09-4.916.133-9.832.342-14.748.314-9.072-.056-22.154.411-28.297-7.594-4.128-5.369-2.496-14.037 1.925-18.702 4.93-5.202 11.177-5.564 17.753-5.32 4.156.153 8.514-.711 12.698-.823 6.346-.167 12.684-.565 19.037-.593a106.25 106.25 0 0 1 2.587.007c.467.007 1.164.14 1.52-.258.453-.502.216-1.624.195-2.231-.076-1.897-.272-3.786-.355-5.683a1.951 1.951 0 0 0-2.113-1.855c-3.989.307-7.964.112-11.945.439-9.463.767-19.002.021-28.457 1.102-6.583.753-13.619-.146-20.341.112-8.089.313-15.968-.265-24.099-.224-17.844.091-35.682.44-53.526.384Z" fill="#E37B3D"/><path d="M937.342 218.575c-.851-1.06-2.05-1.931-3.535-2.447-4.052-1.402-9.114-1.13-13.333-.879-8.821.523-17.795-.404-26.665-.091-1.855.07-14.079 1.527-14.985-.739-3.508-8.765-4.338-17.907-7.329-26.853-1.904-5.69-3.103-11.562-4.414-17.412a4.596 4.596 0 0 0-4.595-3.598c-7.322.195-15.007.809-22.105-.084-14.651-1.848-29.252-1.157-43.966-.802-.481.014-2.468-.07-4.323-.153-1.799-.084-3.194 1.541-2.831 3.298.851 4.121 2.273 10.927 3.138 14.79 2.928 13.026 5.913 26.1 8.305 39.21a5.209 5.209 0 0 0 5.188 4.274c7.447-.076 14.894-.055 22.335-.021 4.497.021 8.995.049 13.493.07 19.392.063 38.805.53 58.225 1.053 11.345.307 22.809 1.234 34.134-.258.697-.091 1.38-.321 1.959-.718 3.326-2.294 3.389-6.032 1.304-8.64Z" fill="#F8F3F2"/><path d="M836.909 201.059c2.518-3.305-.39-8.814-2.21-11.868-.774-1.297-1.709-2.553-2.992-3.354-9.588-5.983-7.984 10.236-4.232 14.538 2.168 2.49 6.303 3.912 9.037 1.144.146-.146.279-.3.397-.46Z" fill="#AEAEAE"/><path d="M868.537 106.19c-.126 0-.258-.007-.391-.028l-6.255-.872c-.027-.007-.055-.007-.083-.014l-6.269-1.074a2.772 2.772 0 0 1-1.102-.446l-5.794-3.954a2.529 2.529 0 0 1-.572-.523l-4.407-5.32a2.9 2.9 0 0 1-.488-.858l-2.302-6.583a2.704 2.704 0 0 1-.153-1.025l.265-7.063c.014-.286.07-.572.167-.844l2.399-6.618c.091-.258.223-.495.384-.718l4.191-5.62a2.798 2.798 0 0 1 3.904-.572 2.792 2.792 0 0 1 .572 3.905l-3.947 5.293-2.112 5.815-.23 6.102 1.959 5.606 3.835 4.63 4.965 3.396 5.627.962 6.213.865a2.794 2.794 0 0 1 2.378 3.145 2.78 2.78 0 0 1-2.754 2.413ZM838.137 167.462c-.049 0-.098 0-.147-.007a2.789 2.789 0 0 1-2.642-2.928l.32-6.172c0-.035.007-.069.007-.104l.53-5.948-.439-5.962a3.908 3.908 0 0 1 0-.405l.425-5.941-.655-5.913c-.007-.049-.007-.098-.014-.147l-.349-6.129-.53-6.115a2.79 2.79 0 0 1 5.558-.482l.537 6.158c0 .028.007.056.007.083l.348 6.095.67 6.094c.021.168.021.335.007.509l-.432 5.99.446 5.983c.014.154.007.3 0 .454l-.544 6.122-.321 6.122a2.786 2.786 0 0 1-2.782 2.643ZM848.867 168.787h-.048a2.789 2.789 0 0 1-2.741-2.838l.098-5.697-.544-5.683a2.432 2.432 0 0 1-.007-.391l.251-5.634-.635-5.606c-.014-.133-.021-.265-.014-.398l.175-5.711-.579-7.349a1.958 1.958 0 0 1 0-.405l.502-7.517a2.797 2.797 0 0 1 2.971-2.594 2.789 2.789 0 0 1 2.594 2.971l-.489 7.308.572 7.3c.007.098.014.203.007.307l-.174 5.662.641 5.628c.014.146.021.293.014.439l-.251 5.662.537 5.648c.007.105.014.21.014.314l-.104 5.851a2.791 2.791 0 0 1-2.79 2.733Z" fill="#111"/><path d="M321.152 321.292c13.696.662 27.426-.154 41.086.474 9.693.446 19.72-1.234 29.454-1.332 11.597 0 23.193-.23 34.789-.349 10.843-.111 21.059 1.618 31.728 1.59 13.193-.035 26.554.621 39.67-.111 3.194-.175 6.534-.328 9.755-.307.949.007 2.413.07 2.957-.872.907-1.541-1.436-3.514-2.301-4.616-1.088-1.388-2.183-2.768-3.354-4.079a36.244 36.244 0 0 0-8.528-7.057c-5.223-3.103-9.505-7.405-15.104-9.965-11.018-5.048-20.787-10.403-33.018-12.732-9.441-1.8-19.504-4.191-29.078-4.868-12.907-.913-25.94-1.255-38.903-1.387-21.351-.224-44.607 7.921-64.124 16.087-12.12 5.069-22.949 12.502-33.451 20.319-3.235 2.406-1.645 7.545 2.385 7.713l36.037 1.492Z" fill="#76BE57"/><path d="M471.75 107.133c-.718-4.281-2.253-8.402-4.212-12.258-2.197-4.317-3.814-8.005-6.687-11.938-2.831-3.87-5.948-7.524-9.365-10.885-7.482-7.35-16.68-11.75-24.532-18.605l-.125.07c-.251-1.332-1.82-3.507-2.043-4.84-1.827-11.03-3.424-25.395-13.549-32.243-5.195-3.514-12.44-4.428-18.381-2.468-1.771.585-3.375 1.47-4.832 2.559-2.113 1.171-4.24 2.12-6.534 1.234-1.583-.614-2.58-2.155-3.808-3.326-1.652-1.576-3.919-2.56-6.199-2.42-2.28.14-4.504 1.485-5.467 3.556-1.164 2.51-.286 5.67 1.702 7.594 1.987 1.925 4.867 2.727 7.635 2.65-2.677.704-5.418 1.443-7.698 3.02-2.28 1.575-4.044 4.197-3.828 6.959.167 2.154 1.624 4.183 3.64 4.957 2.022.774 4.497.21 5.927-1.415.948-1.081 1.436-2.525 2.043-3.842a322 322 0 0 0-.642 1.54c-1.568 3.822-3.87 11.311-4.818 15.328l-.244-.133a49.738 49.738 0 0 0-14.232 5.467c-4.261 2.44-8.605 3.745-13.263 5.341-3.968 1.367-7.691 4.491-12.084 4.282-3.25-.153-4.568-2.322-5.439-5.202-1.081-3.584 1.457-5.334 2.405-8.723a7.916 7.916 0 0 0 .189-3.431c-.098-.593-.272-1.193-.656-1.646-.725-.864-2.057-1.004-3.124-.634-1.827.627-2.21 1.931-3.619 3.103-1.52 1.269-1.339-5.502-1.311-6.38.049-1.688.028-3.46-.746-4.959-.774-1.499-2.538-2.629-4.149-2.126-1.192.37-1.994 1.499-2.496 2.642a10.812 10.812 0 0 0-.921 4.54c-.892-1.492-3.256-7.175-5.92-5.725-1.29.704-1.695 2.385-1.59 3.85.105 1.464.593 2.9.523 4.371-.774-.48-1.548-.955-2.329-1.436-.704-.432-1.422-.872-2.224-1.067-.802-.195-1.723-.09-2.336.46-.935.837-.837 2.308-.607 3.535.467 2.441 1.687 4.826 2.008 7.239.328 2.461-.516 4.937-.46 7.398.077 3.675.628 7.517 1.032 11.185.683 6.108 3.772 13.444 8.235 17.781 4.54 4.414 8.473 6.5 14.595 7.866 5.056 1.13 10.216.488 15.306 0 4.163-.397 8.34-.523 12.517-.725 2.05-.098 4.902-1.004 6.792.167 2.496 1.555 1.297 5.9 1.283 8.396-.035 8.228.076 16.456.341 24.678.251 7.921.635 15.111-.481 22.941-1.067 7.496-.265 14.205-.488 21.561-.516 16.952-.425 33.917-.767 50.876-.133 6.471 1.499 16.812-1.325 22.753-2.371 4.986-9.065 6.66-11.861 11.485-3.054 5.265-1.248 13.388 4.742 15.857 3.521 1.45 8.249.098 11.958-.321 4.826-.551 9.644-1.22 14.435-2.015 6.575-1.095 6.659-10.271 7.768-15.215 2.531-11.29 2.329-23.451 5.425-34.524 1.416-5.056 1.248-9.763 2.238-14.804.809-4.149 1.646-8.298 2.406-12.461.342-1.876.934-7.991 3.577-7.998 1.311-.007 1.918 1.269 2.378 2.287 1.102 2.433 1.011 5.383 1.241 7.991 1.214 13.911 2.455 27.816 3.696 41.72.725 8.11 1.367 16.227 2.183 24.322.892 8.835 8.856 9.7 16.442 9.637 5.432-.042 12.615 1.918 17.684-.286 2.713-1.178 4.951-3.793 4.979-6.75.021-2.05-.969-3.967-2.057-5.704-2.517-4.037-7.273-7.984-8.166-12.719-1.806-9.553 1.569-18.06 1.514-27.355-.077-12.684 1.701-24.88 1.22-37.488l2.643-6.673c.181-1.799.878-11.059 4.337-9.044.481.279.858.69 1.269 1.067 1.625 1.478 3.745 2.343 5.927 2.622 2.183.279 4.4-.035 6.492-.698 1.234-.39 2.448-.92 3.452-1.729 2.106-1.701 3.082-4.484 3.291-7.182.216-2.762-.46-5.474-.418-8.201.042-2.461.404-4.895 1.394-7.168 1.946-4.456 3.898-8.8 5.265-13.493 2.692-9.309 3.515-19.064 1.904-28.632Z" fill="#303694"/><path d="M451.124 176.105c-.474 0-.942-.119-1.36-.356l-7.475-4.177a2.795 2.795 0 0 1-1.116-1.144l-3.34-6.408-1.813-3.64-2.085.098c-.46.021-.914-.07-1.332-.265l-1.185-.558a2.798 2.798 0 0 1-1.597-2.587l.174-7.405c.014-.537.181-1.06.481-1.507l4.735-6.959 1.764-4.086 1.674-4.01.802-6.471.049-6.652-1.012-7.036-1.896-7.057a2.79 2.79 0 0 1 1.966-3.417 2.792 2.792 0 0 1 3.417 1.967l1.945 7.224c.028.105.049.216.07.328l1.067 7.412c.021.14.028.279.028.419l-.056 7.022c0 .104-.007.216-.021.32l-.871 7.008a2.7 2.7 0 0 1-.196.732l-1.834 4.401-1.882 4.365c-.07.16-.154.313-.251.46l-4.421 6.499-.098 4.205 2.162-.077c1.095-.021 2.106.565 2.594 1.548l2.587 5.202 2.929 5.627 5.885 3.291 4.456-.767 4.065-5.578.767-3.605-.307-5.851a2.79 2.79 0 0 1 2.636-2.935 2.796 2.796 0 0 1 2.936 2.636l.327 6.22c.014.244-.007.488-.055.725l-.963 4.546a2.871 2.871 0 0 1-.474 1.067l-5.083 6.973a2.751 2.751 0 0 1-1.778 1.102l-6.548 1.13c-.154.007-.314.021-.467.021ZM402.012 27.34c-.369-.558-.92-.97-1.61-1.074a2.264 2.264 0 0 0-1.841.579c-.67.628-.942 1.36-.928 2.273.007.446.049.9.251 1.297.481.935 1.709 1.227 2.755 1.095.3-.035.599-.105.85-.265 1.27-.837 1.311-2.706.523-3.905ZM409.88 29.767c-.977 3.716-6.611.592-4.61-2.538.733-1.151 2.783-1.444 3.871-.565.829.67 1.039 1.98.739 3.103Z" fill="#111"/><path d="m366.519 52.98 3.396 5.307 3.584 5.18 3.417 5.286 3.661 5.126 3.863 4.978 3.229 5.44 4.17 4.755 3.472 5.258 3.724 5.083 3.438 5.272 3.5 5.23 3.549 4.755 3.452 4.826 2.908 5.181 3.27 4.944 3.619 4.7 3.829 4.525 3.765 4.589 4.17 4.225.384.021-2.148 3.166-2.19 2.594.656 3.445 3.305.837.739-.788 2.183-.349 1.269 1.527 1.374 3.675 3.898 7.684 1.806.921 7.705 1.185 3.389.07 3.849-3.682 2.085-5.39.112-8.396.258.976 3.256 6.011 2.915 6.199 2.531 6.367 2.183 5.794-.537 6.137-3.612 4.818-6.527 2.657-6.813 1.778-7.064.195-5.502-1.903-5.222-2.601-3.947-4.386-2.524-5.405-2.092-5.606-2.525-5.411-2.866-5.244-2.384-5.474-2.915-5.209-2.81-5.257-2.838-5.244-3.187-5.042-3.089-5.92-3.759-5.509-3.451-5.697-3.647-5.578-3.619-5.593-3.968-5.355-3.647-5.585-3.814-5.356-3.215-5.746-3.452-5.606-3.04-5.85-3.793-5.405-4.003-5.23-3.703-4.497-3.131-4.91M411.399 38.114c-.886 1.778-3.096 2.928-5.551 1.373-4.532-2.873-.411-8.298 3.877-6.178 2.183 1.08 2.469 3.194 1.674 4.805ZM374.941 38.964c-.182 0-.356-.014-.537-.056a2.797 2.797 0 0 1-2.204-3.277l1.451-7.392a2.78 2.78 0 0 1 .474-1.094l3.34-4.637-.042-2.406a2.811 2.811 0 0 1 .969-2.169l2.364-2.029a2.786 2.786 0 0 1 3.933.3 2.785 2.785 0 0 1-.3 3.933l-1.367 1.178.035 2.015a2.79 2.79 0 0 1-.523 1.681l-3.521 4.895-1.332 6.792a2.812 2.812 0 0 1-2.74 2.266Z" fill="#111"/><path d="M401.329 44.452c-1.06 0-2.127-.146-3.152-.446a2.798 2.798 0 0 1-1.903-3.459 2.795 2.795 0 0 1 3.458-1.904c2.511.733 5.502-.362 6.952-2.538a2.795 2.795 0 0 1 3.871-.774 2.795 2.795 0 0 1 .774 3.87c-2.197 3.299-6.088 5.251-10 5.251ZM360.688 275.618a2.788 2.788 0 0 1-2.524-3.975l3.243-6.896a2.786 2.786 0 0 1 3.709-1.339 2.787 2.787 0 0 1 1.339 3.71l-3.242 6.896a2.79 2.79 0 0 1-2.525 1.604ZM350.273 276.49c-.328 0-.662-.056-.983-.182a2.79 2.79 0 0 1-1.625-3.598l2.908-7.698a2.791 2.791 0 1 1 5.223 1.973l-2.908 7.699a2.801 2.801 0 0 1-2.615 1.806ZM419.733 274.691a2.788 2.788 0 0 1-2.587-1.744l-2.504-6.171a2.793 2.793 0 0 1 1.534-3.633 2.789 2.789 0 0 1 3.633 1.541l2.504 6.171a2.791 2.791 0 0 1-1.534 3.633 2.898 2.898 0 0 1-1.046.203ZM427.91 274.377a2.783 2.783 0 0 1-2.712-2.162l-1.493-6.471a2.795 2.795 0 0 1 2.092-3.347 2.795 2.795 0 0 1 3.347 2.092l1.493 6.471a2.795 2.795 0 0 1-2.092 3.347c-.216.042-.426.07-.635.07ZM437.643 273.972c-.956 0-1.89-.495-2.413-1.38l-4.128-7.05a2.787 2.787 0 1 1 4.811-2.817l4.128 7.049a2.787 2.787 0 0 1-2.398 4.198Z" fill="#111"/><path d="M569.319 156.975c-5.592.007-11.185.007-16.777.014-3.34 0-6.813.181-10.111.613-3.41.446-6.227 2.28-9.302 3.856-1.967 1.011-2.79 2.462-4.324 3.884a12.428 12.428 0 0 0-3.256 4.958c-1.778 5.021-4.393 9.344-5.69 14.504a535.151 535.151 0 0 1-4.951 18.347c-2.873 1.994-6.499 2.44-9.358 4.344-5.153 3.431-6.799 9.616-7.078 15.473-.272 5.83-.216 13.493 3.501 18.333 2.768 3.598 7.712 4.755 11.973 5.411 5.348.829 10.954.523 16.407.816 8.766.481 27.956.585 36.735.753" fill="#E37B3D"/><path d="M559.813 240.094c-.376 13.179-.76 26.352-1.136 39.531-.189 6.589-.37 13.179-.565 19.776-.119 3.765-2.211 8.054-4.037 11.268-1.604 2.831-3.18 5.844.167 8.57.795.642 1.729 1.081 2.719 1.353 3.445.941 7.245 1.269 10.641.049 4.986-1.792 6.269-5.92 7.085-10.662 1.283-7.447 1.862-14.999 3.319-22.419 1.939-9.832 4.575-19.448 7.183-29.119.313-1.172 1.987-1.151 2.273.027 2.315 9.533 4.49 19.107 6.032 28.799.92 5.788 1.624 11.604 2.552 17.384.718 4.484.948 10.941 4.881 14.1 2.643 2.113 6.108 2.441 9.365 2.434 3.138-.014 8.103 1.046 10.473-1.702 2.378-2.761.851-7.329-1.736-9.274-6.032-4.547-4.916-12.084-5.202-18.827-.335-7.838-.467-15.683-.307-23.528.168-8.333-.697-16.756-.076-25.145" fill="#EBB4C9"/><path d="M620.57 186.185c-3.375-10.725-11.854-21.191-19.741-29.001l-4.763.572c-3.974 2.754-7.949 5.515-11.924 8.27-.209.146-.425.293-.676.314-.349.034-.67-.189-.955-.398l-13.222-9.686-12.642 4.052c-9.267 6.785-15.717 18.681-17.795 29.824-2.127 11.394 2.113 23.667 13.012 28.708-2.071 4.247-3.034 8.814-3.096 13.542-.035 2.692 1.631 5.446 2.852 7.845.732 1.443 1.624 2.921 3.061 3.654 3.5 1.785 7.761 1.101 11.519 1.408 12.922 1.053 25.78 1.004 38.841.656 3.04-.084 6.08-.161 9.121-.244 3.556-.091 6.052-4.777 7.377-7.524 2.12-4.393 1.43-9.114-.195-13.668 1.164.767 3.312-2.008 4.337-2.956 4.707-4.365 6.562-14.923 8.347-20.683" fill="#111"/><path d="M552.484 159.562c9.72 6.436 17.391 17.593 20.18 30.145l-10.564.725c-1.667-5.523-5.363-10.007-7.936-15.034-2.217-4.324-6.052-9.254-10.641-11.185M611.834 155.964c3.94 4.825 8.835 9.476 12.015 14.922 3.047 5.237 6.324 11.994 7.391 18.123l-10.46.697c-4.609-10.571-11.952-22.864-20.061-30.514" fill="#E37B3D"/><path d="M579.743 169.701c-7.517-.077-14.672-.879-21.945-2.35-5.369-1.081-11.952-.76-14.448-6.82-2.001-4.86.879-8.047 5.383-9.574 3.633-1.234 9.065-.272 12.921-.286 12.141-.049 24.225-.349 36.358-.098 4.63.098 9.184-.864 13.772-.209 1.025.147 2.05.349 2.971.823 3.702 1.897 3.981 5.432 2.001 8.758-2.483 4.17-6.625 5.453-11.066 6.729-4.589 1.318-9.079 2.797-13.793 3.438" fill="#111"/><path d="M537.543 237.138c-.335 9.476-.698 18.953-1.088 28.422a2.197 2.197 0 0 0 2.169 2.287c1.938.035 3.96.035 5.885-.09 1.171-.077 2.092-1.025 2.168-2.197.461-7.224.991-13.967.795-21.303M547.681 234.432c10.85-4.804 21.533-19.427 24.977-30.779l-11.157-2.789c-4.469 10.564-14.999 22.376-25.04 27.913" fill="#E37B3D"/><path d="M638.264 41.995c-10.467-6.185-8.765-28.067-16.478-37.76-2.866-3.605-5.027-2.803-9.19-3.96-3.173-.879-6.632.446-9.114 2.608-2.482 2.161-3.054 3.926-4.735 6.757-4.205 7.084-7.698 13.59-11.903 20.682-10.843.376-21.784-.704-32.62.3-1.165-2.218-1.855-3.194-3.236-5.286-2.649-4.023-2.873-8.653-5.934-12.475-2.343-2.922-4.902-5.53-8.5-6.854-7.287-2.685-14.065 1.422-17.649 7.816-5.355 9.554-6.562 20.815-8.849 31.345-2.698 2.496-5.662 6.213-8.361 8.71-13.632 12.6-15.006 33.289-12.391 50.547 1.925 12.663 6.82 25.076 15.25 34.831 2.064 2.392 4.386 5 7.001 6.806 2.392 1.652 5.474 2.705 8.006 4.149 6.666 3.8 15.48 5.564 22.941 6.875 21.094 3.703 42.934 3.222 64.285 2.42 5.481-.209 11.429.927 16.694-.935 11.045-3.904 21.819-9.141 30.465-17.195 7.573-7.057 12.385-16.373 13.131-26.575.481-6.52 2.42-12.363 2.51-18.946.209-15.947-5.167-37.801-19.964-46.545-2.671-1.576-8.695-5.74-11.359-7.315Z" fill="#EBB4C9"/><path d="M581.506 93.073c-5.969 4.86-11.979-7.454-2.608-8.347 2.288-.216 3.138 1.785 3.905 3.522.44.997.551 2.168.105 3.158-.307.67-.837 1.2-1.402 1.667Z" fill="#111"/><path d="M565.378 102.766c-.216 0-.439-.028-.648-.077l-3.605-.865a2.794 2.794 0 0 1-2.064-3.36 2.797 2.797 0 0 1 3.361-2.065l3.179.767 2.901-.216 2.685-.976 2.434-2.148c.118-.104.244-.195.376-.279l3.194-1.98a2.799 2.799 0 0 1 3.152.14l2.914 2.203 3.431 1.109.126.041 3.277 1.235 3.27-.21 3.808-.83a2.79 2.79 0 1 1 1.185 5.454l-4.016.878c-.14.028-.279.049-.419.056l-4.086.258a2.727 2.727 0 0 1-1.157-.174l-3.773-1.423-3.814-1.234a2.886 2.886 0 0 1-.823-.425l-1.764-1.332-1.367.85-2.65 2.343c-.258.23-.565.412-.892.53l-3.536 1.29c-.237.084-.488.14-.746.161l-3.723.279h-.21ZM557.629 84.364a2.786 2.786 0 0 1-2.769-2.49 2.79 2.79 0 0 1 2.469-3.075l6.701-.725c.049-.007.098-.007.147-.014l6.722-.377c1.555-.097 2.852 1.088 2.942 2.63a2.791 2.791 0 0 1-2.629 2.942l-6.652.37-6.631.718c-.098.02-.196.02-.3.02ZM599.152 83.924h-.084l-6.338-.188a2.19 2.19 0 0 1-.307-.028l-6.29-.892a2.79 2.79 0 0 1-2.371-3.152 2.792 2.792 0 0 1 3.152-2.371l6.137.871 6.185.189a2.794 2.794 0 0 1 2.705 2.873 2.793 2.793 0 0 1-2.789 2.698Z" fill="#111"/><path d="M635.609 189.107c-1.708-2.029-5.425-4.358-8.249-3.766-1.025.216-2.134 1.032-3.242 1.346-1.109.307-2.329.446-3.124 1.381-1.569 1.848-1.36 6.589-.872 8.772.586 2.664 2.496 5.202 5.167 5.767 3.696.774 8.326 1.171 10.753-2.211 2.371-3.305 2.127-8.242-.433-11.289ZM576.749 203.004c-2.977 3.633-8.102 5.404-12.53 3.333-2.288-1.067-3.703-3.493-4.198-5.962-.502-2.475-.851-4.832.014-7.203.899-2.468 3.354-4.1 5.906-4.728 5.334-1.304 13.605 1.311 13.298 8.194-.112 2.405-1.046 4.609-2.49 6.366Z" fill="#EBB4C9"/><path d="M533.836 247.96c-.07 0-.14 0-.216-.007a2.798 2.798 0 0 1-2.573-2.992l.446-5.885-.091-5.892c0-.126.007-.251.021-.377l.711-5.948a2.777 2.777 0 0 1 1.144-1.931l4.435-3.187 4.114-3.264 7.161-8.165a2.79 2.79 0 0 1 3.933-.265 2.79 2.79 0 0 1 .265 3.933l-7.336 8.361c-.111.125-.23.237-.362.341l-4.358 3.466-.105.084-3.493 2.51-.544 4.546.09 5.837c0 .084 0 .167-.007.251l-.453 6.011a2.796 2.796 0 0 1-2.782 2.573Z" fill="#111"/><path d="M573.289 158.293a120.867 120.867 0 0 0 7.922 7.328c1.303 1.102 3.221 1.123 4.532.021 3.989-3.347 7.922-7.015 11.171-10.982" fill="#EBB4C9"/><path d="M713.762 179.149c-2.566-1.171-5.118-2.392-7.726-3.465-4.638-1.918-9.449-3.675-13.863-6.074-2.245-1.22-4.602-1.973-6.924-3.054-2.58-1.207-5.767-2.601-8.5-3.766a4.063 4.063 0 0 1-1.514-1.115c-.99-1.165-2.901-3.438-3.926-4.84-1.366-1.869-2.705-3.758-4.086-5.62a1.233 1.233 0 0 1-.146-1.227c.16-.37.495-.642.892-.705 4.073-.662 11.381-1.018 13.863-1.122a3.25 3.25 0 0 1 1.576.341c2.887 1.458 6.192 2.838 9.086 4.142 2.782 1.249 5.39 2.866 8.347 3.731 3.5 1.025 6.652 3.166 10.09 4.477 1.666.634 3.2 1.527 4.762 2.378 1.465.802 3.103 1.311 4.637 2.015" fill="#F8F3F2"/><path d="M732.865 228.533c-5.244 2.901-9.4 6.464-15.341 7.747-5.523 1.185-11.268 1.269-16.84.376-11.178-1.785-21.826-7.489-29.085-16.24-2.015-2.427-2.399-5.265-3.577-8.075-1.318-3.152-1.973-6.582-2.141-9.985-.767-15.397 4.812-32.467 20.417-38.45 5.844-2.238 12.134-3.236 18.354-3.577 10.139-.565 22.376 2.977 29.496 10.201 4.825 4.895 8.542 10.899 10.718 17.426 1.094 3.298 1.185 7.322 1.68 10.774 1.604 11.157-3.668 24.259-13.681 29.803Z" fill="#AEAEAE"/><path d="M714.33 160.273c-.788.237-1.625.251-2.448.209-4.219-.216-10.418-2.531-13.319-5.76-4.909-5.467-3.403-15.208.795-20.598 1.758-2.26 4.909-2.838 7.768-2.999a50.449 50.449 0 0 1 7.538.133c5.774.537 10.397 9.978 10.732 15.034.397 6.004-5.516 12.328-11.066 13.981ZM755.869 175.579a16.964 16.964 0 0 0 2.329-1.736c6.562-5.774 3.836-19.009-2.88-23.569-5.09-3.459-13.841-3.585-18.792.474-8.64 7.07-4.951 21.77 4.679 25.696 4.811 1.959 10.181 1.917 14.664-.865ZM697.494 231.231c-12.733 7.218-8.019 22.384-6.778 34.245a383.128 383.128 0 0 0 2.399 18.472c.662 4.268.99 8.368 1.757 12.649.767 4.331.983 8.849-1.52 12.691-1.562 2.399-5.948 2.832-6.806 5.718-1.764 5.928 4.575 5.474 8.019 5.509 5.258.049 9.923.328 12.991-4.525 4.17-6.597 2.804-14.749 4.589-21.987l2.684-.069c1.276 5.62 2.525 11.247 3.829 16.854.871 3.744 2.384 8.597 6.687 9.609 4.337 1.018 10.02.53 14.211-.928 1.973-.69 3.131-3.019 2.713-5.062-.823-3.968-5.286-3.138-6.653-6.339-5.244-12.259-4.504-26.323-7.363-39.203-2.385-10.731-.586-22.913-8.312-31.679-1.597-1.813-4.066-2.608-6.095-3.842" fill="#AEAEAE"/><path d="M698.406 184.693c-.67-.705-1.681-1.004-2.65-1.018-1.757-.021-2.726.404-3.584 1.896-.377.649-.565 1.437-.384 2.162.168.683.628 1.241 1.081 1.785.223.265.447.537.746.711.461.272 1.018.279 1.548.286.405 0 .809.007 1.214.007.202 0 .404 0 .592-.069.168-.063.314-.182.447-.307.662-.6 1.192-1.367 1.394-2.239.203-.871.216-2.566-.404-3.214ZM712.841 194.246c.872-1.374.977-3.549-.048-4.679-1.137-1.248-3.327-1.297-4.519-.105-.907.907-1.346 2.288-1.137 3.55.244 1.534 1.562 1.834 2.894 2.315 1.227.439 2.204-.126 2.81-1.081ZM689.164 213.652c-.146 0-.292-.014-.439-.035l-5.292-.85a2.787 2.787 0 0 1-1.402-.663l-3.828-3.361a2.79 2.79 0 0 1-.949-2.043l-.097-5.097a2.793 2.793 0 0 1 1.548-2.552l5.327-2.643 6.813-3.584a2.783 2.783 0 0 1 3.766 1.171 2.784 2.784 0 0 1-1.172 3.766l-6.875 3.619-3.808 1.882.042 2.099 2.294 2.022 4.052.649 4.421-.732 4.4-2.218 4.156-3.347a2.781 2.781 0 0 1 3.918.419 2.781 2.781 0 0 1-.418 3.918l-4.386 3.536c-.153.125-.321.23-.495.321l-5.042 2.545a2.953 2.953 0 0 1-.802.265l-5.292.878a2.875 2.875 0 0 1-.44.035Z" fill="#111"/><path d="M686.94 208.074c-.042-2.643-.09-5.279-.132-7.922-1.611-.648-3.571-.906-4.958.133-1.388 1.039-2.183 2.824-2.015 4.553.09.941.474 1.883 1.199 2.49.697.585 1.625.794 2.517.99.956.209 2.406-.154 3.389-.244Z" fill="#111"/><path d="M706.954 289.436c-.468.495-1.228.718-2.002.739-1.562.042-3.124.14-4.679.237-3.019.182-6.038.405-9.058.405-6.08 0-10.529.537-16.519.585-1.325.007-9.804-.341-13.828-.516a2.871 2.871 0 0 1-2.656-2.133c-2.099-7.88-9.791-36.623-14.247-52.02-.774-2.677 1.214-5.348 3.996-5.362 2.998-.014 6.185-.147 6.82-.154 4.358-.069 9.044.063 13.353-.648 6.855-1.137 13.912-.237 20.864-.153 1.945.02 3.64 1.338 4.079 3.235.105.46.209.914.321 1.374 2.203 9.351 4.79 18.604 7.363 27.857 1.29 4.645 2.581 9.289 3.829 13.954a488.128 488.128 0 0 1 1.792 6.896c.376 1.499 1.011 2.894 1.032 4.463.007.523-.168.934-.46 1.241Z" fill="#372D26"/><path d="M675.778 233.874a1.72 1.72 0 0 0 1.514-1.813c-.112-1.827-.23-3.647-.363-5.474-.07-.969-.139-1.938-.216-2.907-.077-.97.223-2.741-.997-3.145-.516-.175-1.102-.063-1.625.014-1.339.195-2.685.376-4.024.557a389.433 389.433 0 0 1-12.76 1.479 1.712 1.712 0 0 0-1.451 2.273 721.34 721.34 0 0 1 3.034 8.926 1.702 1.702 0 0 0 1.827 1.164c4.853-.627 10.194-.467 15.061-1.074Z" fill="#F8F3F2"/><path d="M667.983 149.29a1.185 1.185 0 0 0-.892.704c-.175.405-.112.872.146 1.228 1.381 1.862 2.719 3.751 4.086 5.62.244.335.544.725.865 1.13 1.018-3.389 2.134-6.464 3.842-9.484-2.789.182-5.878.447-8.047.802Z" fill="#111"/><path d="M707.871 252.339c-4.735 3.842-13.556-.593-16.29 6.032-.829 2.008-.097 4.435 1.409 6.004 3.835 4.009 15.836 4.63 19.699.341" fill="#AEAEAE"/><path d="M702.688 270.699c-.112 0-.216-.007-.321-.021l-6.834-.795a2.824 2.824 0 0 1-1.562-.711l-4.574-4.191a2.685 2.685 0 0 1-.244-.258l-1.485-1.757a2.79 2.79 0 0 1-.426-2.922l2.859-6.499a2.783 2.783 0 0 1 2.378-1.659l7.475-.467 5.007-.921 3.842-3.368 3.703-4.595 3.835-4.84a2.793 2.793 0 0 1 3.919-.453 2.793 2.793 0 0 1 .453 3.919l-3.849 4.853-3.863 4.798a2.297 2.297 0 0 1-.335.349l-4.602 4.037a2.803 2.803 0 0 1-1.332.648l-5.927 1.095a2.738 2.738 0 0 1-.335.042l-5.948.37-1.478 3.354.251.293 3.779 3.465 5.432.635 6.025-1.478 5.816-2.141 4.63-4.107 4.491-4.979a2.788 2.788 0 1 1 4.142 3.737l-4.596 5.091a3.255 3.255 0 0 1-.223.216l-5.139 4.56a2.79 2.79 0 0 1-.886.53l-6.457 2.378a3.633 3.633 0 0 1-.3.091l-6.666 1.638a3.996 3.996 0 0 1-.655.063Z" fill="#111"/></g><defs><clipPath id="a"><path fill="#fff" transform="translate(281)" d="M0 0h707v322H0z"/></clipPath></defs></svg>