<svg width="260" height="260" viewBox="0 0 260 260" fill="none" xmlns="http://www.w3.org/2000/svg">
<path d="M208.629 64.7153C177.573 62.434 171.199 19.0257 140.524 29.6804C140.479 29.6969 140.429 29.7135 140.384 29.7301C133.423 32.2101 128.167 37.96 126.126 44.9967L121.233 61.821C119.886 66.4441 116.268 70.0839 111.622 71.498C106.539 73.0445 99.9243 75.0548 95.3616 76.447C92.0011 77.469 88.3555 76.8778 85.4982 74.845L77.3011 69.0125C73.9574 66.6376 70.6248 64.2621 67.2867 61.8871C53.9174 52.3817 29.421 42.7045 19.0879 61.462C11.0865 75.9938 13.9717 95.9335 16.8122 111.443C17.0247 112.592 20.0162 124.252 19.6528 124.462L19.4347 124.589C-17.1281 211.417 72.6769 249.738 144.975 224.226C181.191 210.798 227.858 201.127 242.793 160.828C256.05 125.583 249.581 77.5128 208.629 64.7153Z" fill="#EBB4C9"/>
<path fill-rule="evenodd" clip-rule="evenodd" d="M158.308 93.7701C158.665 96.1815 156.986 98.4241 154.555 98.7795C150.6 99.3574 146.712 100.402 143.014 101.886C140.739 102.799 138.145 101.708 137.225 99.4485C136.305 97.1888 137.409 94.6168 139.685 93.7033C144.041 91.9547 148.614 90.7272 153.261 90.0478C155.692 89.6923 157.951 91.3592 158.308 93.7701ZM126.538 101.046C127.152 103.406 125.718 105.812 123.342 106.421L122.293 106.688C116.42 108.189 116.253 108.231 109.883 110.384C107.557 111.17 105.031 109.937 104.239 107.63C103.447 105.323 104.69 102.815 107.016 102.029C113.698 99.7703 114.005 99.6913 120.263 98.094L121.122 97.8732C123.504 97.2655 125.925 98.6863 126.538 101.046ZM133.828 105.549C140.834 104.679 142.719 109.493 141.43 113.29C141.877 113.394 142.289 113.516 142.663 113.636C143.366 113.863 144.085 114.139 144.705 114.377L144.889 114.449C145.597 114.719 146.244 114.964 146.93 115.182C149.395 115.966 152.686 116.543 158.035 114.612C160.339 113.778 162.893 114.959 163.73 117.249C164.572 119.54 163.378 122.072 161.075 122.906C153.64 125.59 148.313 124.889 144.219 123.587C143.26 123.283 142.401 122.956 141.687 122.683L141.548 122.628C140.861 122.366 140.371 122.178 139.913 122.031C139.718 121.967 139.556 121.922 139.428 121.891L139.378 121.974C139.311 122.078 139.238 122.197 139.155 122.328C138.597 123.233 137.671 124.734 136.266 126.176C132.791 129.733 127.096 132.421 116.443 132.993C113.994 133.125 111.897 131.259 111.763 128.825C111.635 126.392 113.514 124.312 115.963 124.18C125.322 123.678 128.518 121.43 129.874 120.036C130.56 119.335 130.967 118.687 131.53 117.781C131.631 117.623 131.731 117.457 131.842 117.282L131.887 117.212C132.004 117.032 132.144 116.809 132.311 116.562C131.631 116.194 131 115.749 130.526 115.161C129.628 114.041 129.416 112.513 129.695 111.134L129.712 111.073C130.191 108.669 130.738 105.932 133.828 105.549ZM138.971 121.817C138.971 121.817 138.976 121.816 138.993 121.816C138.982 121.818 138.971 121.818 138.971 121.817Z" fill="black"/>
</svg>
